ply
format ascii 1.0
element vertex 10
property float x
property float y
property float z
property uchar red
property uchar green
property uchar blue
element face 12
property list uchar int vertex_indices
end_header
0.00000000 0.00000000 0.00000000 88 166 255
-0.06000000 -0.04200000 0.12000000 88 166 255
0.06000000 -0.04200000 0.12000000 88 166 255
0.06000000 0.04200000 0.12000000 88 166 255
-0.06000000 0.04200000 0.12000000 88 166 255
-0.17743551 -0.93608784 -0.30373706 255 123 114
-0.23359558 -0.96584978 -0.17834059 255 123 114
-0.11365918 -0.96648670 -0.18219493 255 123 114
-0.11347918 -0.88288936 -0.19040785 255 123 114
-0.23341557 -0.88225244 -0.18655351 255 123 114
3 0 1 2
3 0 2 3
3 0 3 4
3 0 4 1
3 1 2 3
3 1 3 4
3 5 6 7
3 5 7 8
3 5 8 9
3 5 9 6
3 6 7 8
3 6 8 9
