ply
format ascii 1.0
element vertex 868
property float x
property float y
property float z
property uchar red
property uchar green
property uchar blue
end_header
-0.30359634 0.28440563 6.61287333 125 139 158
-0.00426752 0.87142033 6.92914498 123 137 157
0.18075173 0.37943881 6.81758886 123 137 156
0.37026155 0.33480767 6.92102403 123 136 155
-0.17975536 0.46329181 6.70097814 126 140 159
-0.27044843 1.49769990 7.13905364 123 137 157
-0.10182855 0.45185608 6.72094864 127 141 160
0.16215336 1.76583103 7.36736576 120 133 153
-0.00186765 1.01538606 6.98168892 120 134 153
-0.11146771 1.27695728 7.05508782 122 136 155
-0.99154765 1.01941860 7.20915315 125 138 160
0.05211052 0.86611599 6.94073489 124 138 158
-0.81975640 0.12781418 6.58372507 131 144 165
0.39971235 0.13090773 6.87755851 122 136 154
0.24078272 0.85702838 7.00085084 127 139 160
3.26160571 -2.54363608 14.74807844 125 137 153
-0.54879237 0.72933372 6.79804293 126 139 161
0.56057734 1.01520924 7.31777510 122 134 154
0.30242945 -0.44550539 6.55328500 128 142 161
0.35104337 0.92238464 7.11244320 120 134 153
-0.42760580 0.10988498 6.49953340 128 142 162
-0.10623022 0.04203592 6.57201430 128 141 162
-0.29370772 0.51206338 6.68064169 128 142 162
0.04415686 0.84606310 6.94908014 123 136 157
-0.48324797 -0.26794173 6.31529903 132 146 164
-0.01467587 -0.36124460 6.39312385 128 141 159
0.08883984 -0.38006345 6.43439514 128 142 161
-0.35857222 -0.27872943 6.32989461 128 142 161
-0.25360670 -0.10652525 6.44275154 128 141 164
0.19975594 -0.01009607 6.66719703 127 141 160
0.08621785 0.01864420 6.63072846 122 136 155
0.60861202 2.17908206 6.31163438 115 127 146
-0.80742305 -0.45673099 6.30543759 132 146 165
-0.43162791 -0.27408953 6.31457785 132 146 165
-0.00660926 0.84929589 6.93726318 122 135 156
0.61960012 2.11265192 6.29845549 114 125 144
-0.46466607 -0.29100276 6.31009835 131 145 164
-1.17164996 -0.29947390 6.64167586 130 144 164
0.06345781 0.70190016 6.90358871 122 135 156
-0.05102452 -0.06306123 6.54182675 128 142 161
0.24741343 -0.03718631 6.69393575 123 137 156
-0.08632341 -0.06287060 6.52684326 129 143 164
0.57443328 0.93994640 7.31218874 120 132 153
0.00897932 0.82690728 6.93283034 124 138 158
-0.00608363 0.82767066 6.92225242 122 136 156
0.53506070 0.99983125 7.28029794 118 132 151
-0.23098999 -0.11247549 6.44700902 127 141 163
-0.16637810 -0.03376778 6.50407190 128 142 161
0.38583503 0.74701857 7.06234420 126 138 159
-0.24216042 0.34643430 6.64091094 124 138 157
-0.03543415 -0.35611167 6.38652242 130 143 161
-0.20142249 0.09433231 6.53614774 130 144 163
-0.08632341 -0.06287060 6.52684326 129 143 164
-0.43162791 -0.27408953 6.31457785 132 146 165
0.40162302 0.73121421 7.07218979 123 137 157
-0.27674989 0.06095643 6.50614139 128 140 160
-0.36852541 -0.01791441 6.45208468 128 142 163
-0.63001436 0.33515350 6.61946349 128 142 161
-0.22840139 0.06853247 6.52890614 128 140 160
0.75656197 1.38625285 7.81860774 118 130 150
0.04208115 -0.18452899 6.53968502 125 139 158
-0.16637810 -0.03376778 6.50407190 128 142 161
-0.12615496 -0.33608233 6.36037965 128 142 161
0.54346700 0.24882475 7.07017155 121 135 154
0.12722426 0.18959570 6.71417790 127 141 160
-0.04941803 -0.16174203 6.51178829 128 142 161
-0.85320452 -0.43873613 6.32553442 132 146 165
0.60846897 2.19350892 6.31099568 114 126 145
-0.13161061 -0.51472931 6.22805394 131 145 164
-0.01512121 0.92298506 6.92750486 124 137 158
-0.59094461 1.29394078 7.10774486 124 137 159
0.73720994 2.15578997 6.33321436 112 123 143
0.04172634 0.72101389 6.89963941 124 137 159
0.08158611 1.80165228 7.36955278 118 132 152
-0.44799475 0.12191304 6.51219789 128 142 161
-0.05025917 0.77559245 6.89042610 121 135 154
0.09119016 -0.56756933 6.31605018 130 144 163
0.25460088 0.77527193 6.98866188 123 136 157
0.49907458 0.27330052 7.02262448 120 134 153
-0.99753285 0.32056159 6.76828649 130 144 166
-0.00626731 -0.09256391 6.55400427 129 143 162
0.04272353 0.03288026 6.60741313 126 140 159
-0.60256004 -0.24373906 6.35310824 132 146 167
0.02975140 -0.10949860 6.56156853 128 143 161
0.38352365 1.12442174 7.22294210 119 133 153
0.04394059 0.31501048 6.72020415 125 139 158
0.23312734 0.17389451 6.77378867 123 136 155
-0.12666465 -0.13134756 6.48864125 128 142 161
-0.28250426 0.50361294 6.68670603 130 143 165
-0.12666465 -0.13134756 6.48864125 128 142 161
0.01382105 -0.03437595 6.57299935 126 140 159
-0.22228294 0.29170398 6.62215372 124 139 158
0.47105554 0.91535876 7.19052091 123 137 156
0.05508681 -0.56401457 6.29230254 128 142 161
-0.62353602 0.72251139 6.82510060 126 140 161
0.56798318 0.42238905 7.15482503 123 136 155
0.27792973 1.53943376 7.35085737 119 133 152
-0.29465603 -0.01290709 6.47383921 130 145 164
0.12074550 -0.14863039 6.58124186 129 143 162
-0.93561389 0.32818778 6.73404729 129 143 163
0.11590472 -0.18332402 6.56744813 129 143 162
0.36063308 0.74411267 7.05034710 123 136 157
-0.36887603 0.31812256 6.60066462 126 138 160
-0.17621193 0.28132964 6.63292782 126 140 161
0.13734516 -0.20571262 6.56783267 126 140 159
-0.29099392 0.03683907 6.49116193 128 141 160
-0.45492732 0.52711254 6.68427143 125 138 160
-0.14258375 -0.03884383 6.51355961 128 143 162
0.32977141 -0.25949845 6.64729131 125 139 160
-0.14434179 -0.05682526 6.50776556 130 144 164
-0.36852541 -0.01791441 6.45208468 128 142 163
0.12230070 -0.21628264 6.56575171 125 139 158
0.11590472 -0.18332402 6.56744813 129 143 162
0.02571967 0.04108173 6.61384581 128 141 162
-0.34082420 -0.29358979 6.32387984 130 144 163
-0.39503408 -0.08066865 6.42148811 125 139 158
0.12074550 -0.14863039 6.58124186 129 143 162
0.68760417 2.36182821 6.44891504 112 124 143
-0.18594675 -0.12478775 6.46176325 126 140 161
-0.11714570 0.37014872 6.68730308 128 140 160
0.62634775 1.02965627 7.37187730 119 131 151
-0.15869054 0.31964573 6.65575687 126 140 159
-0.99862326 -0.27692199 6.50447688 128 142 164
-0.46864427 -0.00445600 6.44769041 126 140 159
-0.12166045 0.32139006 6.65882961 123 137 156
0.02975140 -0.10949860 6.56156853 128 143 161
0.08569559 -0.53697616 6.31759856 126 140 159
0.04394059 0.31501048 6.72020415 125 139 158
0.42594294 0.10173516 6.89595689 124 138 157
-0.29531917 0.30606799 6.61113812 125 139 158
0.06345781 0.70190016 6.90358871 122 135 156
-0.89877951 -0.06463409 6.53549381 131 144 165
-0.20727323 -0.11899215 6.45337527 126 140 160
-0.09127459 -0.11392453 6.50698511 126 140 159
0.04394059 0.31501048 6.72020415 125 139 158
-0.22606697 -0.04514658 6.48303361 129 143 162
0.07684442 -0.50641460 6.31921619 128 142 161
-0.11732169 -0.14360757 6.48582787 128 142 161
-0.85320452 -0.43873613 6.32553442 132 146 165
-0.68447571 -0.06331354 6.45057199 131 146 165
-0.03618472 1.95867125 7.33538142 118 132 151
0.83588824 2.13768015 6.35794187 112 123 143
0.32937533 0.58575583 6.96249494 123 136 155
-0.14872880 -0.12524480 6.48048776 128 142 162
-0.98081749 -0.27525756 6.48943252 130 144 166
0.52713363 -0.55048813 6.75846842 125 139 158
-0.01831850 0.76517540 6.89886899 126 139 160
-0.40382782 -0.35078241 6.26083750 130 145 164
0.04208115 -0.18452899 6.53968502 125 139 158
-0.29935595 -0.09784856 6.43336885 131 145 164
0.20801629 -0.18711775 6.60273416 126 139 158
0.53883095 0.65925813 7.18561923 122 134 154
0.24176758 -0.58434537 6.41405102 126 140 159
0.21627295 0.39465698 6.82667666 122 136 155
-0.07476479 -0.50769988 6.23916121 131 145 164
-0.42901115 -0.34962292 6.26754427 131 146 165
0.36746161 0.95739362 7.10181514 120 134 153
-0.24443941 -0.45907968 6.21133552 129 143 162
0.09005672 -0.09685515 6.58547484 127 141 160
0.25123066 -0.57780473 6.42257099 131 143 163
-0.07163695 -0.15595041 6.50479954 127 141 160
0.64187324 2.11812017 6.30652798 114 126 145
0.61374523 1.53036915 7.69170873 121 133 155
-0.00369300 -0.17325377 6.52695344 130 144 163
-0.35264179 -0.35640074 6.26046072 129 143 162
0.23230418 -0.57173166 6.41233886 128 142 161
-0.17621193 0.28132964 6.63292782 126 140 161
-0.15869054 0.31964573 6.65575687 126 140 159
0.14791753 -0.55923850 6.35301561 127 141 160
-0.65418794 -0.25573750 6.34127341 131 144 165
0.20951528 -0.58171496 6.38894399 127 141 160
-1.01863757 -0.28023082 6.51318367 128 142 164
-0.25598229 -0.45070954 6.22294950 130 144 163
-0.04895235 -0.49737536 6.25641793 130 144 163
0.01076516 1.77098260 7.41055106 118 132 151
0.11816155 -0.53869703 6.33971071 130 144 162
0.23312734 0.17389451 6.77378867 123 136 155
-0.92724393 -0.32986827 6.43086511 133 147 167
0.44657049 0.09333725 6.90950197 124 138 157
0.08569559 -0.53697616 6.31759856 126 140 159
-0.40073291 -0.28651635 6.32358684 130 144 163
-0.33985231 -0.38122489 6.24115212 129 144 163
0.57670855 -0.60135050 6.84207099 126 140 158
0.01971280 -0.17941790 6.53395031 126 140 159
-0.19895156 0.12789340 6.55521840 132 146 165
-0.03646795 -0.49093459 6.26126305 129 143 161
1.18782427 -0.55175622 8.54555943 125 138 156
0.59324310 0.61587858 7.25168903 124 136 157
1.48504839 2.48797186 7.43264332 111 122 141
0.58107584 2.18869928 6.30839269 113 124 143
0.59992297 0.83185315 7.28878780 119 133 152
-0.29099392 0.03683907 6.49116193 128 141 160
0.38648198 -0.16880873 6.73014514 126 140 159
-0.25890960 0.25057466 6.58667091 127 140 162
-0.26295053 -0.05439370 6.46276462 128 141 162
0.07672585 -0.52477999 6.31824600 126 140 158
0.50967283 0.47336726 7.08412903 120 133 152
-0.35185246 -0.38825094 6.24117948 129 144 163
0.37091506 -0.12962649 6.74175193 125 139 158
0.62036940 0.38132050 7.19572868 121 135 154
0.63104261 0.58982710 7.31872153 125 137 158
-0.42772968 -0.30191014 6.29112895 127 141 160
-0.35320704 -0.31216495 6.29611457 132 146 165
0.35712737 1.77310036 7.47521024 121 132 152
0.18903409 0.72808446 6.87019903 121 136 155
-0.40725159 0.24298318 6.55903624 126 140 159
-0.92724393 -0.32986827 6.43086511 133 147 167
-0.35175338 -0.32692681 6.28214025 128 142 161
-1.41963291 -0.41491315 6.91108161 133 147 168
-1.41037978 0.01329501 7.02881825 132 146 168
0.45718596 1.74621323 7.28618038 114 127 147
-0.19895156 0.12789340 6.55521840 132 146 165
0.53166854 1.77737571 6.93402013 117 130 150
0.44612145 -0.47122123 6.66781601 127 141 159
0.06102571 1.87323765 7.43444765 121 133 153
0.72400947 -0.26250073 7.28535066 125 139 158
0.81776313 1.78117283 6.74319102 120 131 151
-0.30359634 0.28440563 6.61287333 125 139 158
-0.00426752 0.87142033 6.92914498 123 137 157
0.18075173 0.37943881 6.81758886 123 137 156
0.37026155 0.33480767 6.92102403 123 136 155
-0.17975536 0.46329181 6.70097814 126 140 159
-0.27044843 1.49769990 7.13905364 123 137 157
-0.10182855 0.45185608 6.72094864 127 141 160
0.16215336 1.76583103 7.36736576 120 133 153
-0.00186765 1.01538606 6.98168892 120 134 153
-0.11146771 1.27695728 7.05508782 122 136 155
-0.99154765 1.01941860 7.20915315 125 138 160
0.05211052 0.86611599 6.94073489 124 138 158
-0.81975640 0.12781418 6.58372507 131 144 165
0.39971235 0.13090773 6.87755851 122 136 154
0.24078272 0.85702838 7.00085084 127 139 160
3.26160571 -2.54363608 14.74807844 125 137 153
-0.54879237 0.72933372 6.79804293 126 139 161
0.56057734 1.01520924 7.31777510 122 134 154
0.30242945 -0.44550539 6.55328500 128 142 161
0.35104337 0.92238464 7.11244320 120 134 153
-0.42760580 0.10988498 6.49953340 128 142 162
-0.10623022 0.04203592 6.57201430 128 141 162
-0.29370772 0.51206338 6.68064169 128 142 162
0.04415686 0.84606310 6.94908014 123 136 157
-0.48324797 -0.26794173 6.31529903 132 146 164
-0.01467587 -0.36124460 6.39312385 128 141 159
0.08883984 -0.38006345 6.43439514 128 142 161
-0.35857222 -0.27872943 6.32989461 128 142 161
-0.25360670 -0.10652525 6.44275154 128 141 164
0.19975594 -0.01009607 6.66719703 127 141 160
0.08621785 0.01864420 6.63072846 122 136 155
0.60861202 2.17908206 6.31163438 115 127 146
-0.80742305 -0.45673099 6.30543759 132 146 165
-0.43162791 -0.27408953 6.31457785 132 146 165
-0.00660926 0.84929589 6.93726318 122 135 156
0.61960012 2.11265192 6.29845549 114 125 144
-0.46466607 -0.29100276 6.31009835 131 145 164
-1.17164996 -0.29947390 6.64167586 130 144 164
0.06345781 0.70190016 6.90358871 122 135 156
-0.05102452 -0.06306123 6.54182675 128 142 161
0.24741343 -0.03718631 6.69393575 123 137 156
-0.08632341 -0.06287060 6.52684326 129 143 164
0.57443328 0.93994640 7.31218874 120 132 153
0.00897932 0.82690728 6.93283034 124 138 158
-0.00608363 0.82767066 6.92225242 122 136 156
0.53506070 0.99983125 7.28029794 118 132 151
-0.23098999 -0.11247549 6.44700902 127 141 163
-0.16637810 -0.03376778 6.50407190 128 142 161
0.38583503 0.74701857 7.06234420 126 138 159
-0.24216042 0.34643430 6.64091094 124 138 157
-0.03543415 -0.35611167 6.38652242 130 143 161
-0.20142249 0.09433231 6.53614774 130 144 163
-0.08632341 -0.06287060 6.52684326 129 143 164
-0.43162791 -0.27408953 6.31457785 132 146 165
0.40162302 0.73121421 7.07218979 123 137 157
-0.27674989 0.06095643 6.50614139 128 140 160
-0.36852541 -0.01791441 6.45208468 128 142 163
-0.63001436 0.33515350 6.61946349 128 142 161
-0.22840139 0.06853247 6.52890614 128 140 160
0.75656197 1.38625285 7.81860774 118 130 150
0.04208115 -0.18452899 6.53968502 125 139 158
-0.16637810 -0.03376778 6.50407190 128 142 161
-0.12615496 -0.33608233 6.36037965 128 142 161
0.54346700 0.24882475 7.07017155 121 135 154
0.12722426 0.18959570 6.71417790 127 141 160
-0.04941803 -0.16174203 6.51178829 128 142 161
-0.85320452 -0.43873613 6.32553442 132 146 165
0.60846897 2.19350892 6.31099568 114 126 145
-0.13161061 -0.51472931 6.22805394 131 145 164
-0.01512121 0.92298506 6.92750486 124 137 158
-0.59094461 1.29394078 7.10774486 124 137 159
0.73720994 2.15578997 6.33321436 112 123 143
0.04172634 0.72101389 6.89963941 124 137 159
0.08158611 1.80165228 7.36955278 118 132 152
-0.44799475 0.12191304 6.51219789 128 142 161
-0.05025917 0.77559245 6.89042610 121 135 154
0.09119016 -0.56756933 6.31605018 130 144 163
0.25460088 0.77527193 6.98866188 123 136 157
0.49907458 0.27330052 7.02262448 120 134 153
-0.99753285 0.32056159 6.76828649 130 144 166
-0.00626731 -0.09256391 6.55400427 129 143 162
0.04272353 0.03288026 6.60741313 126 140 159
-0.60256004 -0.24373906 6.35310824 132 146 167
0.02975140 -0.10949860 6.56156853 128 143 161
0.38352365 1.12442174 7.22294210 119 133 153
0.04394059 0.31501048 6.72020415 125 139 158
0.23312734 0.17389451 6.77378867 123 136 155
-0.12666465 -0.13134756 6.48864125 128 142 161
-0.28250426 0.50361294 6.68670603 130 143 165
-0.12666465 -0.13134756 6.48864125 128 142 161
0.01382105 -0.03437595 6.57299935 126 140 159
-0.22228294 0.29170398 6.62215372 124 139 158
0.47105554 0.91535876 7.19052091 123 137 156
0.05508681 -0.56401457 6.29230254 128 142 161
-0.62353602 0.72251139 6.82510060 126 140 161
0.56798318 0.42238905 7.15482503 123 136 155
0.27792973 1.53943376 7.35085737 119 133 152
-0.29465603 -0.01290709 6.47383921 130 145 164
0.12074550 -0.14863039 6.58124186 129 143 162
-0.93561389 0.32818778 6.73404729 129 143 163
0.11590472 -0.18332402 6.56744813 129 143 162
0.36063308 0.74411267 7.05034710 123 136 157
-0.36887603 0.31812256 6.60066462 126 138 160
-0.17621193 0.28132964 6.63292782 126 140 161
0.13734516 -0.20571262 6.56783267 126 140 159
-0.29099392 0.03683907 6.49116193 128 141 160
-0.45492732 0.52711254 6.68427143 125 138 160
-0.14258375 -0.03884383 6.51355961 128 143 162
0.32977141 -0.25949845 6.64729131 125 139 160
-0.14434179 -0.05682526 6.50776556 130 144 164
-0.36852541 -0.01791441 6.45208468 128 142 163
0.12230070 -0.21628264 6.56575171 125 139 158
0.11590472 -0.18332402 6.56744813 129 143 162
0.02571967 0.04108173 6.61384581 128 141 162
-0.34082420 -0.29358979 6.32387984 130 144 163
-0.39503408 -0.08066865 6.42148811 125 139 158
0.12074550 -0.14863039 6.58124186 129 143 162
0.68760417 2.36182821 6.44891504 112 124 143
-0.18594675 -0.12478775 6.46176325 126 140 161
-0.11714570 0.37014872 6.68730308 128 140 160
0.62634775 1.02965627 7.37187730 119 131 151
-0.15869054 0.31964573 6.65575687 126 140 159
-0.99862326 -0.27692199 6.50447688 128 142 164
-0.46864427 -0.00445600 6.44769041 126 140 159
-0.12166045 0.32139006 6.65882961 123 137 156
0.02975140 -0.10949860 6.56156853 128 143 161
0.08569559 -0.53697616 6.31759856 126 140 159
0.04394059 0.31501048 6.72020415 125 139 158
0.42594294 0.10173516 6.89595689 124 138 157
-0.29531917 0.30606799 6.61113812 125 139 158
0.06345781 0.70190016 6.90358871 122 135 156
-0.89877951 -0.06463409 6.53549381 131 144 165
-0.20727323 -0.11899215 6.45337527 126 140 160
-0.09127459 -0.11392453 6.50698511 126 140 159
0.04394059 0.31501048 6.72020415 125 139 158
-0.22606697 -0.04514658 6.48303361 129 143 162
0.07684442 -0.50641460 6.31921619 128 142 161
-0.11732169 -0.14360757 6.48582787 128 142 161
-0.85320452 -0.43873613 6.32553442 132 146 165
-0.68447571 -0.06331354 6.45057199 131 146 165
-0.03618472 1.95867125 7.33538142 118 132 151
0.83588824 2.13768015 6.35794187 112 123 143
0.32937533 0.58575583 6.96249494 123 136 155
-0.14872880 -0.12524480 6.48048776 128 142 162
-0.98081749 -0.27525756 6.48943252 130 144 166
0.52713363 -0.55048813 6.75846842 125 139 158
-0.01831850 0.76517540 6.89886899 126 139 160
-0.40382782 -0.35078241 6.26083750 130 145 164
0.04208115 -0.18452899 6.53968502 125 139 158
-0.29935595 -0.09784856 6.43336885 131 145 164
0.20801629 -0.18711775 6.60273416 126 139 158
0.53883095 0.65925813 7.18561923 122 134 154
0.24176758 -0.58434537 6.41405102 126 140 159
0.21627295 0.39465698 6.82667666 122 136 155
-0.07476479 -0.50769988 6.23916121 131 145 164
-0.42901115 -0.34962292 6.26754427 131 146 165
0.36746161 0.95739362 7.10181514 120 134 153
-0.24443941 -0.45907968 6.21133552 129 143 162
0.09005672 -0.09685515 6.58547484 127 141 160
0.25123066 -0.57780473 6.42257099 131 143 163
-0.07163695 -0.15595041 6.50479954 127 141 160
0.64187324 2.11812017 6.30652798 114 126 145
0.61374523 1.53036915 7.69170873 121 133 155
-0.00369300 -0.17325377 6.52695344 130 144 163
-0.35264179 -0.35640074 6.26046072 129 143 162
0.23230418 -0.57173166 6.41233886 128 142 161
-0.17621193 0.28132964 6.63292782 126 140 161
-0.15869054 0.31964573 6.65575687 126 140 159
0.14791753 -0.55923850 6.35301561 127 141 160
-0.65418794 -0.25573750 6.34127341 131 144 165
0.20951528 -0.58171496 6.38894399 127 141 160
-1.01863757 -0.28023082 6.51318367 128 142 164
-0.25598229 -0.45070954 6.22294950 130 144 163
-0.04895235 -0.49737536 6.25641793 130 144 163
0.01076516 1.77098260 7.41055106 118 132 151
0.11816155 -0.53869703 6.33971071 130 144 162
0.23312734 0.17389451 6.77378867 123 136 155
-0.92724393 -0.32986827 6.43086511 133 147 167
0.44657049 0.09333725 6.90950197 124 138 157
0.08569559 -0.53697616 6.31759856 126 140 159
-0.40073291 -0.28651635 6.32358684 130 144 163
-0.33985231 -0.38122489 6.24115212 129 144 163
0.57670855 -0.60135050 6.84207099 126 140 158
0.01971280 -0.17941790 6.53395031 126 140 159
-0.19895156 0.12789340 6.55521840 132 146 165
-0.03646795 -0.49093459 6.26126305 129 143 161
1.18782427 -0.55175622 8.54555943 125 138 156
0.59324310 0.61587858 7.25168903 124 136 157
1.48504839 2.48797186 7.43264332 111 122 141
0.58107584 2.18869928 6.30839269 113 124 143
0.59992297 0.83185315 7.28878780 119 133 152
-0.29099392 0.03683907 6.49116193 128 141 160
0.38648198 -0.16880873 6.73014514 126 140 159
-0.25890960 0.25057466 6.58667091 127 140 162
-0.26295053 -0.05439370 6.46276462 128 141 162
0.07672585 -0.52477999 6.31824600 126 140 158
0.50967283 0.47336726 7.08412903 120 133 152
-0.35185246 -0.38825094 6.24117948 129 144 163
0.37091506 -0.12962649 6.74175193 125 139 158
0.62036940 0.38132050 7.19572868 121 135 154
0.63104261 0.58982710 7.31872153 125 137 158
-0.42772968 -0.30191014 6.29112895 127 141 160
-0.35320704 -0.31216495 6.29611457 132 146 165
0.35712737 1.77310036 7.47521024 121 132 152
0.18903409 0.72808446 6.87019903 121 136 155
-0.40725159 0.24298318 6.55903624 126 140 159
-0.92724393 -0.32986827 6.43086511 133 147 167
-0.35175338 -0.32692681 6.28214025 128 142 161
-1.41963291 -0.41491315 6.91108161 133 147 168
-1.41037978 0.01329501 7.02881825 132 146 168
0.45718596 1.74621323 7.28618038 114 127 147
-0.19895156 0.12789340 6.55521840 132 146 165
0.53166854 1.77737571 6.93402013 117 130 150
0.44612145 -0.47122123 6.66781601 127 141 159
0.06102571 1.87323765 7.43444765 121 133 153
0.72400947 -0.26250073 7.28535066 125 139 158
0.81776313 1.78117283 6.74319102 120 131 151
-0.30359634 0.28440563 6.61287333 125 139 158
-0.00426752 0.87142033 6.92914498 123 137 157
0.18075173 0.37943881 6.81758886 123 137 156
0.37026155 0.33480767 6.92102403 123 136 155
-0.17975536 0.46329181 6.70097814 126 140 159
-0.27044843 1.49769990 7.13905364 123 137 157
-0.10182855 0.45185608 6.72094864 127 141 160
0.16215336 1.76583103 7.36736576 120 133 153
-0.00186765 1.01538606 6.98168892 120 134 153
-0.11146771 1.27695728 7.05508782 122 136 155
-0.99154765 1.01941860 7.20915315 125 138 160
0.05211052 0.86611599 6.94073489 124 138 158
-0.81975640 0.12781418 6.58372507 131 144 165
0.39971235 0.13090773 6.87755851 122 136 154
0.24078272 0.85702838 7.00085084 127 139 160
3.26160571 -2.54363608 14.74807844 125 137 153
-0.54879237 0.72933372 6.79804293 126 139 161
0.56057734 1.01520924 7.31777510 122 134 154
0.30242945 -0.44550539 6.55328500 128 142 161
0.35104337 0.92238464 7.11244320 120 134 153
-0.42760580 0.10988498 6.49953340 128 142 162
-0.10623022 0.04203592 6.57201430 128 141 162
-0.29370772 0.51206338 6.68064169 128 142 162
0.04415686 0.84606310 6.94908014 123 136 157
-0.48324797 -0.26794173 6.31529903 132 146 164
-0.01467587 -0.36124460 6.39312385 128 141 159
0.08883984 -0.38006345 6.43439514 128 142 161
-0.35857222 -0.27872943 6.32989461 128 142 161
-0.25360670 -0.10652525 6.44275154 128 141 164
0.19975594 -0.01009607 6.66719703 127 141 160
0.08621785 0.01864420 6.63072846 122 136 155
0.60861202 2.17908206 6.31163438 115 127 146
-0.80742305 -0.45673099 6.30543759 132 146 165
-0.43162791 -0.27408953 6.31457785 132 146 165
-0.00660926 0.84929589 6.93726318 122 135 156
0.61960012 2.11265192 6.29845549 114 125 144
-0.46466607 -0.29100276 6.31009835 131 145 164
-1.17164996 -0.29947390 6.64167586 130 144 164
0.06345781 0.70190016 6.90358871 122 135 156
-0.05102452 -0.06306123 6.54182675 128 142 161
0.24741343 -0.03718631 6.69393575 123 137 156
-0.08632341 -0.06287060 6.52684326 129 143 164
0.57443328 0.93994640 7.31218874 120 132 153
0.00897932 0.82690728 6.93283034 124 138 158
-0.00608363 0.82767066 6.92225242 122 136 156
0.53506070 0.99983125 7.28029794 118 132 151
-0.23098999 -0.11247549 6.44700902 127 141 163
-0.16637810 -0.03376778 6.50407190 128 142 161
0.38583503 0.74701857 7.06234420 126 138 159
-0.24216042 0.34643430 6.64091094 124 138 157
-0.03543415 -0.35611167 6.38652242 130 143 161
-0.20142249 0.09433231 6.53614774 130 144 163
-0.08632341 -0.06287060 6.52684326 129 143 164
-0.43162791 -0.27408953 6.31457785 132 146 165
0.40162302 0.73121421 7.07218979 123 137 157
-0.27674989 0.06095643 6.50614139 128 140 160
-0.36852541 -0.01791441 6.45208468 128 142 163
-0.63001436 0.33515350 6.61946349 128 142 161
-0.22840139 0.06853247 6.52890614 128 140 160
0.75656197 1.38625285 7.81860774 118 130 150
0.04208115 -0.18452899 6.53968502 125 139 158
-0.16637810 -0.03376778 6.50407190 128 142 161
-0.12615496 -0.33608233 6.36037965 128 142 161
0.54346700 0.24882475 7.07017155 121 135 154
0.12722426 0.18959570 6.71417790 127 141 160
-0.04941803 -0.16174203 6.51178829 128 142 161
-0.85320452 -0.43873613 6.32553442 132 146 165
0.60846897 2.19350892 6.31099568 114 126 145
-0.13161061 -0.51472931 6.22805394 131 145 164
-0.01512121 0.92298506 6.92750486 124 137 158
-0.59094461 1.29394078 7.10774486 124 137 159
0.73720994 2.15578997 6.33321436 112 123 143
0.04172634 0.72101389 6.89963941 124 137 159
0.08158611 1.80165228 7.36955278 118 132 152
-0.44799475 0.12191304 6.51219789 128 142 161
-0.05025917 0.77559245 6.89042610 121 135 154
0.09119016 -0.56756933 6.31605018 130 144 163
0.25460088 0.77527193 6.98866188 123 136 157
0.49907458 0.27330052 7.02262448 120 134 153
-0.99753285 0.32056159 6.76828649 130 144 166
-0.00626731 -0.09256391 6.55400427 129 143 162
0.04272353 0.03288026 6.60741313 126 140 159
-0.60256004 -0.24373906 6.35310824 132 146 167
0.02975140 -0.10949860 6.56156853 128 143 161
0.38352365 1.12442174 7.22294210 119 133 153
0.04394059 0.31501048 6.72020415 125 139 158
0.23312734 0.17389451 6.77378867 123 136 155
-0.12666465 -0.13134756 6.48864125 128 142 161
-0.28250426 0.50361294 6.68670603 130 143 165
-0.12666465 -0.13134756 6.48864125 128 142 161
0.01382105 -0.03437595 6.57299935 126 140 159
-0.22228294 0.29170398 6.62215372 124 139 158
0.47105554 0.91535876 7.19052091 123 137 156
0.05508681 -0.56401457 6.29230254 128 142 161
-0.62353602 0.72251139 6.82510060 126 140 161
0.56798318 0.42238905 7.15482503 123 136 155
0.27792973 1.53943376 7.35085737 119 133 152
-0.29465603 -0.01290709 6.47383921 130 145 164
0.12074550 -0.14863039 6.58124186 129 143 162
-0.93561389 0.32818778 6.73404729 129 143 163
0.11590472 -0.18332402 6.56744813 129 143 162
0.36063308 0.74411267 7.05034710 123 136 157
-0.36887603 0.31812256 6.60066462 126 138 160
-0.17621193 0.28132964 6.63292782 126 140 161
0.13734516 -0.20571262 6.56783267 126 140 159
-0.29099392 0.03683907 6.49116193 128 141 160
-0.45492732 0.52711254 6.68427143 125 138 160
-0.14258375 -0.03884383 6.51355961 128 143 162
0.32977141 -0.25949845 6.64729131 125 139 160
-0.14434179 -0.05682526 6.50776556 130 144 164
-0.36852541 -0.01791441 6.45208468 128 142 163
0.12230070 -0.21628264 6.56575171 125 139 158
0.11590472 -0.18332402 6.56744813 129 143 162
0.02571967 0.04108173 6.61384581 128 141 162
-0.34082420 -0.29358979 6.32387984 130 144 163
-0.39503408 -0.08066865 6.42148811 125 139 158
0.12074550 -0.14863039 6.58124186 129 143 162
0.68760417 2.36182821 6.44891504 112 124 143
-0.18594675 -0.12478775 6.46176325 126 140 161
-0.11714570 0.37014872 6.68730308 128 140 160
0.62634775 1.02965627 7.37187730 119 131 151
-0.15869054 0.31964573 6.65575687 126 140 159
-0.99862326 -0.27692199 6.50447688 128 142 164
-0.46864427 -0.00445600 6.44769041 126 140 159
-0.12166045 0.32139006 6.65882961 123 137 156
0.02975140 -0.10949860 6.56156853 128 143 161
0.08569559 -0.53697616 6.31759856 126 140 159
0.04394059 0.31501048 6.72020415 125 139 158
0.42594294 0.10173516 6.89595689 124 138 157
-0.29531917 0.30606799 6.61113812 125 139 158
0.06345781 0.70190016 6.90358871 122 135 156
-0.89877951 -0.06463409 6.53549381 131 144 165
-0.20727323 -0.11899215 6.45337527 126 140 160
-0.09127459 -0.11392453 6.50698511 126 140 159
0.04394059 0.31501048 6.72020415 125 139 158
-0.22606697 -0.04514658 6.48303361 129 143 162
0.07684442 -0.50641460 6.31921619 128 142 161
-0.11732169 -0.14360757 6.48582787 128 142 161
-0.85320452 -0.43873613 6.32553442 132 146 165
-0.68447571 -0.06331354 6.45057199 131 146 165
-0.03618472 1.95867125 7.33538142 118 132 151
0.83588824 2.13768015 6.35794187 112 123 143
0.32937533 0.58575583 6.96249494 123 136 155
-0.14872880 -0.12524480 6.48048776 128 142 162
-0.98081749 -0.27525756 6.48943252 130 144 166
0.52713363 -0.55048813 6.75846842 125 139 158
-0.01831850 0.76517540 6.89886899 126 139 160
-0.40382782 -0.35078241 6.26083750 130 145 164
0.04208115 -0.18452899 6.53968502 125 139 158
-0.29935595 -0.09784856 6.43336885 131 145 164
0.20801629 -0.18711775 6.60273416 126 139 158
0.53883095 0.65925813 7.18561923 122 134 154
0.24176758 -0.58434537 6.41405102 126 140 159
0.21627295 0.39465698 6.82667666 122 136 155
-0.07476479 -0.50769988 6.23916121 131 145 164
-0.42901115 -0.34962292 6.26754427 131 146 165
0.36746161 0.95739362 7.10181514 120 134 153
-0.24443941 -0.45907968 6.21133552 129 143 162
0.09005672 -0.09685515 6.58547484 127 141 160
0.25123066 -0.57780473 6.42257099 131 143 163
-0.07163695 -0.15595041 6.50479954 127 141 160
0.64187324 2.11812017 6.30652798 114 126 145
0.61374523 1.53036915 7.69170873 121 133 155
-0.00369300 -0.17325377 6.52695344 130 144 163
-0.35264179 -0.35640074 6.26046072 129 143 162
0.23230418 -0.57173166 6.41233886 128 142 161
-0.17621193 0.28132964 6.63292782 126 140 161
-0.15869054 0.31964573 6.65575687 126 140 159
0.14791753 -0.55923850 6.35301561 127 141 160
-0.65418794 -0.25573750 6.34127341 131 144 165
0.20951528 -0.58171496 6.38894399 127 141 160
-1.01863757 -0.28023082 6.51318367 128 142 164
-0.25598229 -0.45070954 6.22294950 130 144 163
-0.04895235 -0.49737536 6.25641793 130 144 163
0.01076516 1.77098260 7.41055106 118 132 151
0.11816155 -0.53869703 6.33971071 130 144 162
0.23312734 0.17389451 6.77378867 123 136 155
-0.92724393 -0.32986827 6.43086511 133 147 167
0.44657049 0.09333725 6.90950197 124 138 157
0.08569559 -0.53697616 6.31759856 126 140 159
-0.40073291 -0.28651635 6.32358684 130 144 163
-0.33985231 -0.38122489 6.24115212 129 144 163
0.57670855 -0.60135050 6.84207099 126 140 158
0.01971280 -0.17941790 6.53395031 126 140 159
-0.19895156 0.12789340 6.55521840 132 146 165
-0.03646795 -0.49093459 6.26126305 129 143 161
1.18782427 -0.55175622 8.54555943 125 138 156
0.59324310 0.61587858 7.25168903 124 136 157
1.48504839 2.48797186 7.43264332 111 122 141
0.58107584 2.18869928 6.30839269 113 124 143
0.59992297 0.83185315 7.28878780 119 133 152
-0.29099392 0.03683907 6.49116193 128 141 160
0.38648198 -0.16880873 6.73014514 126 140 159
-0.25890960 0.25057466 6.58667091 127 140 162
-0.26295053 -0.05439370 6.46276462 128 141 162
0.07672585 -0.52477999 6.31824600 126 140 158
0.50967283 0.47336726 7.08412903 120 133 152
-0.35185246 -0.38825094 6.24117948 129 144 163
0.37091506 -0.12962649 6.74175193 125 139 158
0.62036940 0.38132050 7.19572868 121 135 154
0.63104261 0.58982710 7.31872153 125 137 158
-0.42772968 -0.30191014 6.29112895 127 141 160
-0.35320704 -0.31216495 6.29611457 132 146 165
0.35712737 1.77310036 7.47521024 121 132 152
0.18903409 0.72808446 6.87019903 121 136 155
-0.40725159 0.24298318 6.55903624 126 140 159
-0.92724393 -0.32986827 6.43086511 133 147 167
-0.35175338 -0.32692681 6.28214025 128 142 161
-1.41963291 -0.41491315 6.91108161 133 147 168
-1.41037978 0.01329501 7.02881825 132 146 168
0.45718596 1.74621323 7.28618038 114 127 147
-0.19895156 0.12789340 6.55521840 132 146 165
0.53166854 1.77737571 6.93402013 117 130 150
0.44612145 -0.47122123 6.66781601 127 141 159
0.06102571 1.87323765 7.43444765 121 133 153
0.72400947 -0.26250073 7.28535066 125 139 158
0.81776313 1.78117283 6.74319102 120 131 151
-0.30359634 0.28440563 6.61287333 125 139 158
-0.00426752 0.87142033 6.92914498 123 137 157
0.18075173 0.37943881 6.81758886 123 137 156
0.37026155 0.33480767 6.92102403 123 136 155
-0.17975536 0.46329181 6.70097814 126 140 159
-0.27044843 1.49769990 7.13905364 123 137 157
-0.10182855 0.45185608 6.72094864 127 141 160
0.16215336 1.76583103 7.36736576 120 133 153
-0.00186765 1.01538606 6.98168892 120 134 153
-0.11146771 1.27695728 7.05508782 122 136 155
-0.99154765 1.01941860 7.20915315 125 138 160
0.05211052 0.86611599 6.94073489 124 138 158
-0.81975640 0.12781418 6.58372507 131 144 165
0.39971235 0.13090773 6.87755851 122 136 154
0.24078272 0.85702838 7.00085084 127 139 160
3.26160571 -2.54363608 14.74807844 125 137 153
-0.54879237 0.72933372 6.79804293 126 139 161
0.56057734 1.01520924 7.31777510 122 134 154
0.30242945 -0.44550539 6.55328500 128 142 161
0.35104337 0.92238464 7.11244320 120 134 153
-0.42760580 0.10988498 6.49953340 128 142 162
-0.10623022 0.04203592 6.57201430 128 141 162
-0.29370772 0.51206338 6.68064169 128 142 162
0.04415686 0.84606310 6.94908014 123 136 157
-0.48324797 -0.26794173 6.31529903 132 146 164
-0.01467587 -0.36124460 6.39312385 128 141 159
0.08883984 -0.38006345 6.43439514 128 142 161
-0.35857222 -0.27872943 6.32989461 128 142 161
-0.25360670 -0.10652525 6.44275154 128 141 164
0.19975594 -0.01009607 6.66719703 127 141 160
0.08621785 0.01864420 6.63072846 122 136 155
0.60861202 2.17908206 6.31163438 115 127 146
-0.80742305 -0.45673099 6.30543759 132 146 165
-0.43162791 -0.27408953 6.31457785 132 146 165
-0.00660926 0.84929589 6.93726318 122 135 156
0.61960012 2.11265192 6.29845549 114 125 144
-0.46466607 -0.29100276 6.31009835 131 145 164
-1.17164996 -0.29947390 6.64167586 130 144 164
0.06345781 0.70190016 6.90358871 122 135 156
-0.05102452 -0.06306123 6.54182675 128 142 161
0.24741343 -0.03718631 6.69393575 123 137 156
-0.08632341 -0.06287060 6.52684326 129 143 164
0.57443328 0.93994640 7.31218874 120 132 153
0.00897932 0.82690728 6.93283034 124 138 158
-0.00608363 0.82767066 6.92225242 122 136 156
0.53506070 0.99983125 7.28029794 118 132 151
-0.23098999 -0.11247549 6.44700902 127 141 163
-0.16637810 -0.03376778 6.50407190 128 142 161
0.38583503 0.74701857 7.06234420 126 138 159
-0.24216042 0.34643430 6.64091094 124 138 157
-0.03543415 -0.35611167 6.38652242 130 143 161
-0.20142249 0.09433231 6.53614774 130 144 163
-0.08632341 -0.06287060 6.52684326 129 143 164
-0.43162791 -0.27408953 6.31457785 132 146 165
0.40162302 0.73121421 7.07218979 123 137 157
-0.27674989 0.06095643 6.50614139 128 140 160
-0.36852541 -0.01791441 6.45208468 128 142 163
-0.63001436 0.33515350 6.61946349 128 142 161
-0.22840139 0.06853247 6.52890614 128 140 160
0.75656197 1.38625285 7.81860774 118 130 150
0.04208115 -0.18452899 6.53968502 125 139 158
-0.16637810 -0.03376778 6.50407190 128 142 161
-0.12615496 -0.33608233 6.36037965 128 142 161
0.54346700 0.24882475 7.07017155 121 135 154
0.12722426 0.18959570 6.71417790 127 141 160
-0.04941803 -0.16174203 6.51178829 128 142 161
-0.85320452 -0.43873613 6.32553442 132 146 165
0.60846897 2.19350892 6.31099568 114 126 145
-0.13161061 -0.51472931 6.22805394 131 145 164
-0.01512121 0.92298506 6.92750486 124 137 158
-0.59094461 1.29394078 7.10774486 124 137 159
0.73720994 2.15578997 6.33321436 112 123 143
0.04172634 0.72101389 6.89963941 124 137 159
0.08158611 1.80165228 7.36955278 118 132 152
-0.44799475 0.12191304 6.51219789 128 142 161
-0.05025917 0.77559245 6.89042610 121 135 154
0.09119016 -0.56756933 6.31605018 130 144 163
0.25460088 0.77527193 6.98866188 123 136 157
0.49907458 0.27330052 7.02262448 120 134 153
-0.99753285 0.32056159 6.76828649 130 144 166
-0.00626731 -0.09256391 6.55400427 129 143 162
0.04272353 0.03288026 6.60741313 126 140 159
-0.60256004 -0.24373906 6.35310824 132 146 167
0.02975140 -0.10949860 6.56156853 128 143 161
0.38352365 1.12442174 7.22294210 119 133 153
0.04394059 0.31501048 6.72020415 125 139 158
0.23312734 0.17389451 6.77378867 123 136 155
-0.12666465 -0.13134756 6.48864125 128 142 161
-0.28250426 0.50361294 6.68670603 130 143 165
-0.12666465 -0.13134756 6.48864125 128 142 161
0.01382105 -0.03437595 6.57299935 126 140 159
-0.22228294 0.29170398 6.62215372 124 139 158
0.47105554 0.91535876 7.19052091 123 137 156
0.05508681 -0.56401457 6.29230254 128 142 161
-0.62353602 0.72251139 6.82510060 126 140 161
0.56798318 0.42238905 7.15482503 123 136 155
0.27792973 1.53943376 7.35085737 119 133 152
-0.29465603 -0.01290709 6.47383921 130 145 164
0.12074550 -0.14863039 6.58124186 129 143 162
-0.93561389 0.32818778 6.73404729 129 143 163
0.11590472 -0.18332402 6.56744813 129 143 162
0.36063308 0.74411267 7.05034710 123 136 157
-0.36887603 0.31812256 6.60066462 126 138 160
-0.17621193 0.28132964 6.63292782 126 140 161
0.13734516 -0.20571262 6.56783267 126 140 159
-0.29099392 0.03683907 6.49116193 128 141 160
-0.45492732 0.52711254 6.68427143 125 138 160
-0.14258375 -0.03884383 6.51355961 128 143 162
0.32977141 -0.25949845 6.64729131 125 139 160
-0.14434179 -0.05682526 6.50776556 130 144 164
-0.36852541 -0.01791441 6.45208468 128 142 163
0.12230070 -0.21628264 6.56575171 125 139 158
0.11590472 -0.18332402 6.56744813 129 143 162
0.02571967 0.04108173 6.61384581 128 141 162
-0.34082420 -0.29358979 6.32387984 130 144 163
-0.39503408 -0.08066865 6.42148811 125 139 158
0.12074550 -0.14863039 6.58124186 129 143 162
0.68760417 2.36182821 6.44891504 112 124 143
-0.18594675 -0.12478775 6.46176325 126 140 161
-0.11714570 0.37014872 6.68730308 128 140 160
0.62634775 1.02965627 7.37187730 119 131 151
-0.15869054 0.31964573 6.65575687 126 140 159
-0.99862326 -0.27692199 6.50447688 128 142 164
-0.46864427 -0.00445600 6.44769041 126 140 159
-0.12166045 0.32139006 6.65882961 123 137 156
0.02975140 -0.10949860 6.56156853 128 143 161
0.08569559 -0.53697616 6.31759856 126 140 159
0.04394059 0.31501048 6.72020415 125 139 158
0.42594294 0.10173516 6.89595689 124 138 157
-0.29531917 0.30606799 6.61113812 125 139 158
0.06345781 0.70190016 6.90358871 122 135 156
-0.89877951 -0.06463409 6.53549381 131 144 165
-0.20727323 -0.11899215 6.45337527 126 140 160
-0.09127459 -0.11392453 6.50698511 126 140 159
0.04394059 0.31501048 6.72020415 125 139 158
-0.22606697 -0.04514658 6.48303361 129 143 162
0.07684442 -0.50641460 6.31921619 128 142 161
-0.11732169 -0.14360757 6.48582787 128 142 161
-0.85320452 -0.43873613 6.32553442 132 146 165
-0.68447571 -0.06331354 6.45057199 131 146 165
-0.03618472 1.95867125 7.33538142 118 132 151
0.83588824 2.13768015 6.35794187 112 123 143
0.32937533 0.58575583 6.96249494 123 136 155
-0.14872880 -0.12524480 6.48048776 128 142 162
-0.98081749 -0.27525756 6.48943252 130 144 166
0.52713363 -0.55048813 6.75846842 125 139 158
-0.01831850 0.76517540 6.89886899 126 139 160
-0.40382782 -0.35078241 6.26083750 130 145 164
0.04208115 -0.18452899 6.53968502 125 139 158
-0.29935595 -0.09784856 6.43336885 131 145 164
0.20801629 -0.18711775 6.60273416 126 139 158
0.53883095 0.65925813 7.18561923 122 134 154
0.24176758 -0.58434537 6.41405102 126 140 159
0.21627295 0.39465698 6.82667666 122 136 155
-0.07476479 -0.50769988 6.23916121 131 145 164
-0.42901115 -0.34962292 6.26754427 131 146 165
0.36746161 0.95739362 7.10181514 120 134 153
-0.24443941 -0.45907968 6.21133552 129 143 162
0.09005672 -0.09685515 6.58547484 127 141 160
0.25123066 -0.57780473 6.42257099 131 143 163
-0.07163695 -0.15595041 6.50479954 127 141 160
0.64187324 2.11812017 6.30652798 114 126 145
0.61374523 1.53036915 7.69170873 121 133 155
-0.00369300 -0.17325377 6.52695344 130 144 163
-0.35264179 -0.35640074 6.26046072 129 143 162
0.23230418 -0.57173166 6.41233886 128 142 161
-0.17621193 0.28132964 6.63292782 126 140 161
-0.15869054 0.31964573 6.65575687 126 140 159
0.14791753 -0.55923850 6.35301561 127 141 160
-0.65418794 -0.25573750 6.34127341 131 144 165
0.20951528 -0.58171496 6.38894399 127 141 160
-1.01863757 -0.28023082 6.51318367 128 142 164
-0.25598229 -0.45070954 6.22294950 130 144 163
-0.04895235 -0.49737536 6.25641793 130 144 163
0.01076516 1.77098260 7.41055106 118 132 151
0.11816155 -0.53869703 6.33971071 130 144 162
0.23312734 0.17389451 6.77378867 123 136 155
-0.92724393 -0.32986827 6.43086511 133 147 167
0.44657049 0.09333725 6.90950197 124 138 157
0.08569559 -0.53697616 6.31759856 126 140 159
-0.40073291 -0.28651635 6.32358684 130 144 163
-0.33985231 -0.38122489 6.24115212 129 144 163
0.57670855 -0.60135050 6.84207099 126 140 158
0.01971280 -0.17941790 6.53395031 126 140 159
-0.19895156 0.12789340 6.55521840 132 146 165
-0.03646795 -0.49093459 6.26126305 129 143 161
1.18782427 -0.55175622 8.54555943 125 138 156
0.59324310 0.61587858 7.25168903 124 136 157
1.48504839 2.48797186 7.43264332 111 122 141
0.58107584 2.18869928 6.30839269 113 124 143
0.59992297 0.83185315 7.28878780 119 133 152
-0.29099392 0.03683907 6.49116193 128 141 160
0.38648198 -0.16880873 6.73014514 126 140 159
-0.25890960 0.25057466 6.58667091 127 140 162
-0.26295053 -0.05439370 6.46276462 128 141 162
0.07672585 -0.52477999 6.31824600 126 140 158
0.50967283 0.47336726 7.08412903 120 133 152
-0.35185246 -0.38825094 6.24117948 129 144 163
0.37091506 -0.12962649 6.74175193 125 139 158
0.62036940 0.38132050 7.19572868 121 135 154
0.63104261 0.58982710 7.31872153 125 137 158
-0.42772968 -0.30191014 6.29112895 127 141 160
-0.35320704 -0.31216495 6.29611457 132 146 165
0.35712737 1.77310036 7.47521024 121 132 152
0.18903409 0.72808446 6.87019903 121 136 155
-0.40725159 0.24298318 6.55903624 126 140 159
-0.92724393 -0.32986827 6.43086511 133 147 167
-0.35175338 -0.32692681 6.28214025 128 142 161
-1.41963291 -0.41491315 6.91108161 133 147 168
-1.41037978 0.01329501 7.02881825 132 146 168
0.45718596 1.74621323 7.28618038 114 127 147
-0.19895156 0.12789340 6.55521840 132 146 165
0.53166854 1.77737571 6.93402013 117 130 150
0.44612145 -0.47122123 6.66781601 127 141 159
0.06102571 1.87323765 7.43444765 121 133 153
0.72400947 -0.26250073 7.28535066 125 139 158
0.81776313 1.78117283 6.74319102 120 131 151
