ply
format ascii 1.0
element vertex 10
property float x
property float y
property float z
property uchar red
property uchar green
property uchar blue
element face 12
property list uchar int vertex_indices
end_header
0.00000000 0.00000000 0.00000000 88 166 255
-0.06000000 -0.04200000 0.12000000 88 166 255
0.06000000 -0.04200000 0.12000000 88 166 255
0.06000000 0.04200000 0.12000000 88 166 255
-0.06000000 0.04200000 0.12000000 88 166 255
0.98853447 -0.08841396 0.12240336 255 123 114
0.88590755 -0.12295649 0.21206120 255 123 114
0.99744334 -0.13649454 0.25420961 255 123 114
1.00641269 -0.05303134 0.25728271 255 123 114
0.89487690 -0.03949328 0.21513430 255 123 114
3 0 1 2
3 0 2 3
3 0 3 4
3 0 4 1
3 1 2 3
3 1 3 4
3 5 6 7
3 5 7 8
3 5 8 9
3 5 9 6
3 6 7 8
3 6 8 9
