ply
format ascii 1.0
element vertex 436
property float x
property float y
property float z
property uchar red
property uchar green
property uchar blue
end_header
-0.11971534 0.23483372 2.54679297 4 4 6
-0.08356006 0.48437671 2.56708614 113 97 88
-0.01602075 0.13091886 2.55023752 159 187 207
-0.03816999 0.51715756 2.56152416 75 54 47
0.33655167 0.32337085 3.13323941 157 175 190
0.02533914 0.18342069 2.55183267 179 192 197
-0.02974424 0.13935951 2.55155723 4 5 7
0.38999244 0.42685483 3.02118510 143 161 183
-0.03816999 0.51715756 2.56152416 75 54 47
0.35634467 0.38665023 3.03558428 158 111 40
-0.06511345 0.13284766 2.54129883 73 104 134
-0.01742607 0.13575322 2.54835523 6 12 19
0.46975360 0.41501942 3.01150983 55 125 148
-0.06235387 0.15991745 2.54908227 76 81 77
0.41687450 0.37361362 3.06629737 18 35 45
-0.01559559 0.47444384 2.60634490 123 102 96
-0.00139221 0.47499623 2.61382849 23 23 28
0.37185647 0.37214822 3.05719737 8 18 24
0.00375502 0.43824210 2.60511032 105 120 125
0.37185647 0.37214822 3.05719737 8 18 24
0.55103498 0.44727881 2.98428690 34 78 94
0.38857727 0.37787114 3.04804457 99 109 121
-0.05556003 0.19049673 2.51604803 112 125 132
0.01762602 0.49877944 2.62803524 106 123 132
-0.01286802 0.13485002 2.55027780 171 191 204
-0.05244277 0.18955056 2.50888318 120 135 143
0.40055823 0.36547825 3.07149543 152 165 182
0.38662654 0.38765182 3.03978196 11 15 17
0.38103192 0.40165406 3.02079642 0 2 6
0.00601816 0.46905694 2.60952198 121 137 149
0.34216457 -0.02878718 2.75508954 74 83 88
0.00776189 0.48278842 2.62300078 38 36 36
0.37380512 0.39723498 3.02258205 137 148 152
0.33485904 0.38271963 3.04217783 70 94 104
0.32185925 0.34080913 3.11185963 34 129 149
0.40413112 0.40311315 3.02342728 5 9 6
0.53745570 0.44775785 2.98252585 137 174 188
0.45879403 0.37709380 3.06857173 73 124 145
0.39971317 0.37240596 3.05951902 6 8 11
0.47467351 0.41064102 3.01425486 128 168 184
0.45879403 0.37709380 3.06857173 73 124 145
0.41152030 0.39364089 3.02303452 127 141 160
0.35099460 0.41623149 2.99291720 66 123 152
0.37693379 0.37320175 3.05530400 1 7 10
0.34458751 0.38267362 3.04662591 4 27 20
0.37140178 0.37689718 3.05380057 142 147 149
0.33485904 0.38271963 3.04217783 70 94 104
0.39591089 0.39154414 3.03587411 0 4 11
0.26080516 -0.15675552 2.68483187 35 39 39
0.40350062 0.39235937 3.03125674 147 160 174
0.45794095 0.41399318 3.00756251 51 119 145
0.46506252 0.39294527 3.04529726 121 165 178
0.00000000 0.00000000 0.00000000 88 166 255
-0.00260870 -0.00182609 0.00521739 88 166 255
-0.00521739 -0.00365217 0.01043478 88 166 255
-0.00782609 -0.00547826 0.01565217 88 166 255
-0.01043478 -0.00730435 0.02086957 88 166 255
-0.01304348 -0.00913043 0.02608696 88 166 255
-0.01565217 -0.01095652 0.03130435 88 166 255
-0.01826087 -0.01278261 0.03652174 88 166 255
-0.02086957 -0.01460870 0.04173913 88 166 255
-0.02347826 -0.01643478 0.04695652 88 166 255
-0.02608696 -0.01826087 0.05217391 88 166 255
-0.02869565 -0.02008696 0.05739130 88 166 255
-0.03130435 -0.02191304 0.06260870 88 166 255
-0.03391304 -0.02373913 0.06782609 88 166 255
-0.03652174 -0.02556522 0.07304348 88 166 255
-0.03913043 -0.02739130 0.07826087 88 166 255
-0.04173913 -0.02921739 0.08347826 88 166 255
-0.04434783 -0.03104348 0.08869565 88 166 255
-0.04695652 -0.03286957 0.09391304 88 166 255
-0.04956522 -0.03469565 0.09913043 88 166 255
-0.05217391 -0.03652174 0.10434783 88 166 255
-0.05478261 -0.03834783 0.10956522 88 166 255
-0.05739130 -0.04017391 0.11478261 88 166 255
-0.06000000 -0.04200000 0.12000000 88 166 255
0.00000000 0.00000000 0.00000000 88 166 255
0.00260870 -0.00182609 0.00521739 88 166 255
0.00521739 -0.00365217 0.01043478 88 166 255
0.00782609 -0.00547826 0.01565217 88 166 255
0.01043478 -0.00730435 0.02086957 88 166 255
0.01304348 -0.00913043 0.02608696 88 166 255
0.01565217 -0.01095652 0.03130435 88 166 255
0.01826087 -0.01278261 0.03652174 88 166 255
0.02086957 -0.01460870 0.04173913 88 166 255
0.02347826 -0.01643478 0.04695652 88 166 255
0.02608696 -0.01826087 0.05217391 88 166 255
0.02869565 -0.02008696 0.05739130 88 166 255
0.03130435 -0.02191304 0.06260870 88 166 255
0.03391304 -0.02373913 0.06782609 88 166 255
0.03652174 -0.02556522 0.07304348 88 166 255
0.03913043 -0.02739130 0.07826087 88 166 255
0.04173913 -0.02921739 0.08347826 88 166 255
0.04434783 -0.03104348 0.08869565 88 166 255
0.04695652 -0.03286957 0.09391304 88 166 255
0.04956522 -0.03469565 0.09913043 88 166 255
0.05217391 -0.03652174 0.10434783 88 166 255
0.05478261 -0.03834783 0.10956522 88 166 255
0.05739130 -0.04017391 0.11478261 88 166 255
0.06000000 -0.04200000 0.12000000 88 166 255
0.00000000 0.00000000 0.00000000 88 166 255
0.00260870 0.00182609 0.00521739 88 166 255
0.00521739 0.00365217 0.01043478 88 166 255
0.00782609 0.00547826 0.01565217 88 166 255
0.01043478 0.00730435 0.02086957 88 166 255
0.01304348 0.00913043 0.02608696 88 166 255
0.01565217 0.01095652 0.03130435 88 166 255
0.01826087 0.01278261 0.03652174 88 166 255
0.02086957 0.01460870 0.04173913 88 166 255
0.02347826 0.01643478 0.04695652 88 166 255
0.02608696 0.01826087 0.05217391 88 166 255
0.02869565 0.02008696 0.05739130 88 166 255
0.03130435 0.02191304 0.06260870 88 166 255
0.03391304 0.02373913 0.06782609 88 166 255
0.03652174 0.02556522 0.07304348 88 166 255
0.03913043 0.02739130 0.07826087 88 166 255
0.04173913 0.02921739 0.08347826 88 166 255
0.04434783 0.03104348 0.08869565 88 166 255
0.04695652 0.03286957 0.09391304 88 166 255
0.04956522 0.03469565 0.09913043 88 166 255
0.05217391 0.03652174 0.10434783 88 166 255
0.05478261 0.03834783 0.10956522 88 166 255
0.05739130 0.04017391 0.11478261 88 166 255
0.06000000 0.04200000 0.12000000 88 166 255
0.00000000 0.00000000 0.00000000 88 166 255
-0.00260870 0.00182609 0.00521739 88 166 255
-0.00521739 0.00365217 0.01043478 88 166 255
-0.00782609 0.00547826 0.01565217 88 166 255
-0.01043478 0.00730435 0.02086957 88 166 255
-0.01304348 0.00913043 0.02608696 88 166 255
-0.01565217 0.01095652 0.03130435 88 166 255
-0.01826087 0.01278261 0.03652174 88 166 255
-0.02086957 0.01460870 0.04173913 88 166 255
-0.02347826 0.01643478 0.04695652 88 166 255
-0.02608696 0.01826087 0.05217391 88 166 255
-0.02869565 0.02008696 0.05739130 88 166 255
-0.03130435 0.02191304 0.06260870 88 166 255
-0.03391304 0.02373913 0.06782609 88 166 255
-0.03652174 0.02556522 0.07304348 88 166 255
-0.03913043 0.02739130 0.07826087 88 166 255
-0.04173913 0.02921739 0.08347826 88 166 255
-0.04434783 0.03104348 0.08869565 88 166 255
-0.04695652 0.03286957 0.09391304 88 166 255
-0.04956522 0.03469565 0.09913043 88 166 255
-0.05217391 0.03652174 0.10434783 88 166 255
-0.05478261 0.03834783 0.10956522 88 166 255
-0.05739130 0.04017391 0.11478261 88 166 255
-0.06000000 0.04200000 0.12000000 88 166 255
-0.06000000 -0.04200000 0.12000000 88 166 255
-0.05478261 -0.04200000 0.12000000 88 166 255
-0.04956522 -0.04200000 0.12000000 88 166 255
-0.04434783 -0.04200000 0.12000000 88 166 255
-0.03913043 -0.04200000 0.12000000 88 166 255
-0.03391304 -0.04200000 0.12000000 88 166 255
-0.02869565 -0.04200000 0.12000000 88 166 255
-0.02347826 -0.04200000 0.12000000 88 166 255
-0.01826087 -0.04200000 0.12000000 88 166 255
-0.01304348 -0.04200000 0.12000000 88 166 255
-0.00782609 -0.04200000 0.12000000 88 166 255
-0.00260870 -0.04200000 0.12000000 88 166 255
0.00260870 -0.04200000 0.12000000 88 166 255
0.00782609 -0.04200000 0.12000000 88 166 255
0.01304348 -0.04200000 0.12000000 88 166 255
0.01826087 -0.04200000 0.12000000 88 166 255
0.02347826 -0.04200000 0.12000000 88 166 255
0.02869565 -0.04200000 0.12000000 88 166 255
0.03391304 -0.04200000 0.12000000 88 166 255
0.03913043 -0.04200000 0.12000000 88 166 255
0.04434783 -0.04200000 0.12000000 88 166 255
0.04956522 -0.04200000 0.12000000 88 166 255
0.05478261 -0.04200000 0.12000000 88 166 255
0.06000000 -0.04200000 0.12000000 88 166 255
0.06000000 -0.04200000 0.12000000 88 166 255
0.06000000 -0.03834783 0.12000000 88 166 255
0.06000000 -0.03469565 0.12000000 88 166 255
0.06000000 -0.03104348 0.12000000 88 166 255
0.06000000 -0.02739130 0.12000000 88 166 255
0.06000000 -0.02373913 0.12000000 88 166 255
0.06000000 -0.02008696 0.12000000 88 166 255
0.06000000 -0.01643478 0.12000000 88 166 255
0.06000000 -0.01278261 0.12000000 88 166 255
0.06000000 -0.00913043 0.12000000 88 166 255
0.06000000 -0.00547826 0.12000000 88 166 255
0.06000000 -0.00182609 0.12000000 88 166 255
0.06000000 0.00182609 0.12000000 88 166 255
0.06000000 0.00547826 0.12000000 88 166 255
0.06000000 0.00913043 0.12000000 88 166 255
0.06000000 0.01278261 0.12000000 88 166 255
0.06000000 0.01643478 0.12000000 88 166 255
0.06000000 0.02008696 0.12000000 88 166 255
0.06000000 0.02373913 0.12000000 88 166 255
0.06000000 0.02739130 0.12000000 88 166 255
0.06000000 0.03104348 0.12000000 88 166 255
0.06000000 0.03469565 0.12000000 88 166 255
0.06000000 0.03834783 0.12000000 88 166 255
0.06000000 0.04200000 0.12000000 88 166 255
0.06000000 0.04200000 0.12000000 88 166 255
0.05478261 0.04200000 0.12000000 88 166 255
0.04956522 0.04200000 0.12000000 88 166 255
0.04434783 0.04200000 0.12000000 88 166 255
0.03913043 0.04200000 0.12000000 88 166 255
0.03391304 0.04200000 0.12000000 88 166 255
0.02869565 0.04200000 0.12000000 88 166 255
0.02347826 0.04200000 0.12000000 88 166 255
0.01826087 0.04200000 0.12000000 88 166 255
0.01304348 0.04200000 0.12000000 88 166 255
0.00782609 0.04200000 0.12000000 88 166 255
0.00260870 0.04200000 0.12000000 88 166 255
-0.00260870 0.04200000 0.12000000 88 166 255
-0.00782609 0.04200000 0.12000000 88 166 255
-0.01304348 0.04200000 0.12000000 88 166 255
-0.01826087 0.04200000 0.12000000 88 166 255
-0.02347826 0.04200000 0.12000000 88 166 255
-0.02869565 0.04200000 0.12000000 88 166 255
-0.03391304 0.04200000 0.12000000 88 166 255
-0.03913043 0.04200000 0.12000000 88 166 255
-0.04434783 0.04200000 0.12000000 88 166 255
-0.04956522 0.04200000 0.12000000 88 166 255
-0.05478261 0.04200000 0.12000000 88 166 255
-0.06000000 0.04200000 0.12000000 88 166 255
-0.06000000 0.04200000 0.12000000 88 166 255
-0.06000000 0.03834783 0.12000000 88 166 255
-0.06000000 0.03469565 0.12000000 88 166 255
-0.06000000 0.03104348 0.12000000 88 166 255
-0.06000000 0.02739130 0.12000000 88 166 255
-0.06000000 0.02373913 0.12000000 88 166 255
-0.06000000 0.02008696 0.12000000 88 166 255
-0.06000000 0.01643478 0.12000000 88 166 255
-0.06000000 0.01278261 0.12000000 88 166 255
-0.06000000 0.00913043 0.12000000 88 166 255
-0.06000000 0.00547826 0.12000000 88 166 255
-0.06000000 0.00182609 0.12000000 88 166 255
-0.06000000 -0.00182609 0.12000000 88 166 255
-0.06000000 -0.00547826 0.12000000 88 166 255
-0.06000000 -0.00913043 0.12000000 88 166 255
-0.06000000 -0.01278261 0.12000000 88 166 255
-0.06000000 -0.01643478 0.12000000 88 166 255
-0.06000000 -0.02008696 0.12000000 88 166 255
-0.06000000 -0.02373913 0.12000000 88 166 255
-0.06000000 -0.02739130 0.12000000 88 166 255
-0.06000000 -0.03104348 0.12000000 88 166 255
-0.06000000 -0.03469565 0.12000000 88 166 255
-0.06000000 -0.03834783 0.12000000 88 166 255
-0.06000000 -0.04200000 0.12000000 88 166 255
0.98853447 -0.08841396 0.12240336 255 123 114
0.98407243 -0.08991581 0.12630152 255 123 114
0.97961039 -0.09141765 0.13019969 255 123 114
0.97514835 -0.09291950 0.13409786 255 123 114
0.97068631 -0.09442135 0.13799603 255 123 114
0.96622427 -0.09592320 0.14189419 255 123 114
0.96176223 -0.09742505 0.14579236 255 123 114
0.95730019 -0.09892690 0.14969053 255 123 114
0.95283815 -0.10042875 0.15358870 255 123 114
0.94837611 -0.10193060 0.15748686 255 123 114
0.94391407 -0.10343245 0.16138503 255 123 114
0.93945203 -0.10493430 0.16528320 255 123 114
0.93498999 -0.10643615 0.16918136 255 123 114
0.93052795 -0.10793799 0.17307953 255 123 114
0.92606591 -0.10943984 0.17697770 255 123 114
0.92160387 -0.11094169 0.18087587 255 123 114
0.91714183 -0.11244354 0.18477403 255 123 114
0.91267979 -0.11394539 0.18867220 255 123 114
0.90821775 -0.11544724 0.19257037 255 123 114
0.90375571 -0.11694909 0.19646853 255 123 114
0.89929367 -0.11845094 0.20036670 255 123 114
0.89483163 -0.11995279 0.20426487 255 123 114
0.89036959 -0.12145464 0.20816304 255 123 114
0.88590755 -0.12295649 0.21206120 255 123 114
0.98853447 -0.08841396 0.12240336 255 123 114
0.98892181 -0.09050442 0.12813406 255 123 114
0.98930915 -0.09259488 0.13386477 255 123 114
0.98969649 -0.09468534 0.13959548 255 123 114
0.99008384 -0.09677580 0.14532618 255 123 114
0.99047118 -0.09886626 0.15105689 255 123 114
0.99085852 -0.10095672 0.15678760 255 123 114
0.99124586 -0.10304718 0.16251830 255 123 114
0.99163320 -0.10513764 0.16824901 255 123 114
0.99202055 -0.10722810 0.17397972 255 123 114
0.99240789 -0.10931856 0.17971042 255 123 114
0.99279523 -0.11140902 0.18544113 255 123 114
0.99318257 -0.11349948 0.19117184 255 123 114
0.99356992 -0.11558994 0.19690255 255 123 114
0.99395726 -0.11768040 0.20263325 255 123 114
0.99434460 -0.11977086 0.20836396 255 123 114
0.99473194 -0.12186132 0.21409467 255 123 114
0.99511929 -0.12395178 0.21982537 255 123 114
0.99550663 -0.12604224 0.22555608 255 123 114
0.99589397 -0.12813270 0.23128679 255 123 114
0.99628131 -0.13022316 0.23701749 255 123 114
0.99666865 -0.13231362 0.24274820 255 123 114
0.99705600 -0.13440408 0.24847891 255 123 114
0.99744334 -0.13649454 0.25420961 255 123 114
0.98853447 -0.08841396 0.12240336 255 123 114
0.98931178 -0.08687558 0.12826768 255 123 114
0.99008909 -0.08533721 0.13413200 255 123 114
0.99086641 -0.08379883 0.13999632 255 123 114
0.99164372 -0.08226046 0.14586064 255 123 114
0.99242104 -0.08072208 0.15172496 255 123 114
0.99319835 -0.07918371 0.15758927 255 123 114
0.99397566 -0.07764533 0.16345359 255 123 114
0.99475298 -0.07610696 0.16931791 255 123 114
0.99553029 -0.07456858 0.17518223 255 123 114
0.99630761 -0.07303021 0.18104655 255 123 114
0.99708492 -0.07149183 0.18691087 255 123 114
0.99786224 -0.06995346 0.19277519 255 123 114
0.99863955 -0.06841508 0.19863951 255 123 114
0.99941686 -0.06687671 0.20450383 255 123 114
1.00019418 -0.06533834 0.21036815 255 123 114
1.00097149 -0.06379996 0.21623247 255 123 114
1.00174881 -0.06226159 0.22209679 255 123 114
1.00252612 -0.06072321 0.22796111 255 123 114
1.00330343 -0.05918484 0.23382543 255 123 114
1.00408075 -0.05764646 0.23968975 255 123 114
1.00485806 -0.05610809 0.24555407 255 123 114
1.00563538 -0.05456971 0.25141839 255 123 114
1.00641269 -0.05303134 0.25728271 255 123 114
0.98853447 -0.08841396 0.12240336 255 123 114
0.98446240 -0.08628697 0.12643514 255 123 114
0.98039033 -0.08415998 0.13046692 255 123 114
0.97631826 -0.08203300 0.13449870 255 123 114
0.97224619 -0.07990601 0.13853048 255 123 114
0.96817413 -0.07777903 0.14256226 255 123 114
0.96410206 -0.07565204 0.14659404 255 123 114
0.96002999 -0.07352505 0.15062582 255 123 114
0.95595792 -0.07139807 0.15465760 255 123 114
0.95188585 -0.06927108 0.15868938 255 123 114
0.94781378 -0.06714410 0.16272116 255 123 114
0.94374172 -0.06501711 0.16675294 255 123 114
0.93966965 -0.06289012 0.17078472 255 123 114
0.93559758 -0.06076314 0.17481650 255 123 114
0.93152551 -0.05863615 0.17884828 255 123 114
0.92745344 -0.05650917 0.18288006 255 123 114
0.92338138 -0.05438218 0.18691184 255 123 114
0.91930931 -0.05225520 0.19094362 255 123 114
0.91523724 -0.05012821 0.19497540 255 123 114
0.91116517 -0.04800122 0.19900718 255 123 114
0.90709310 -0.04587424 0.20303896 255 123 114
0.90302104 -0.04374725 0.20707074 255 123 114
0.89894897 -0.04162027 0.21110252 255 123 114
0.89487690 -0.03949328 0.21513430 255 123 114
0.88590755 -0.12295649 0.21206120 255 123 114
0.89075693 -0.12354510 0.21389374 255 123 114
0.89560631 -0.12413371 0.21572628 255 123 114
0.90045570 -0.12472232 0.21755882 255 123 114
0.90530508 -0.12531093 0.21939136 255 123 114
0.91015446 -0.12589954 0.22122390 255 123 114
0.91500384 -0.12648815 0.22305644 255 123 114
0.91985322 -0.12707676 0.22488898 255 123 114
0.92470261 -0.12766538 0.22672152 255 123 114
0.92955199 -0.12825399 0.22855406 255 123 114
0.93440137 -0.12884260 0.23038660 255 123 114
0.93925075 -0.12943121 0.23221914 255 123 114
0.94410013 -0.13001982 0.23405168 255 123 114
0.94894952 -0.13060843 0.23588422 255 123 114
0.95379890 -0.13119704 0.23771676 255 123 114
0.95864828 -0.13178565 0.23954930 255 123 114
0.96349766 -0.13237427 0.24138184 255 123 114
0.96834705 -0.13296288 0.24321438 255 123 114
0.97319643 -0.13355149 0.24504692 255 123 114
0.97804581 -0.13414010 0.24687945 255 123 114
0.98289519 -0.13472871 0.24871199 255 123 114
0.98774457 -0.13531732 0.25054453 255 123 114
0.99259396 -0.13590593 0.25237707 255 123 114
0.99744334 -0.13649454 0.25420961 255 123 114
0.99744334 -0.13649454 0.25420961 255 123 114
0.99783331 -0.13286571 0.25434323 255 123 114
0.99822328 -0.12923687 0.25447684 255 123 114
0.99861325 -0.12560804 0.25461045 255 123 114
0.99900323 -0.12197920 0.25474406 255 123 114
0.99939320 -0.11835037 0.25487768 255 123 114
0.99978317 -0.11472153 0.25501129 255 123 114
1.00017314 -0.11109270 0.25514490 255 123 114
1.00056311 -0.10746386 0.25527852 255 123 114
1.00095309 -0.10383503 0.25541213 255 123 114
1.00134306 -0.10020619 0.25554574 255 123 114
1.00173303 -0.09657736 0.25567935 255 123 114
1.00212300 -0.09294852 0.25581297 255 123 114
1.00251297 -0.08931969 0.25594658 255 123 114
1.00290294 -0.08569085 0.25608019 255 123 114
1.00329292 -0.08206202 0.25621381 255 123 114
1.00368289 -0.07843318 0.25634742 255 123 114
1.00407286 -0.07480435 0.25648103 255 123 114
1.00446283 -0.07117551 0.25661464 255 123 114
1.00485280 -0.06754668 0.25674826 255 123 114
1.00524277 -0.06391784 0.25688187 255 123 114
1.00563275 -0.06028901 0.25701548 255 123 114
1.00602272 -0.05666017 0.25714910 255 123 114
1.00641269 -0.05303134 0.25728271 255 123 114
1.00641269 -0.05303134 0.25728271 255 123 114
1.00156331 -0.05244273 0.25545017 255 123 114
0.99671393 -0.05185412 0.25361763 255 123 114
0.99186454 -0.05126550 0.25178509 255 123 114
0.98701516 -0.05067689 0.24995255 255 123 114
0.98216578 -0.05008828 0.24812001 255 123 114
0.97731640 -0.04949967 0.24628747 255 123 114
0.97246701 -0.04891106 0.24445493 255 123 114
0.96761763 -0.04832245 0.24262239 255 123 114
0.96276825 -0.04773384 0.24078985 255 123 114
0.95791887 -0.04714523 0.23895731 255 123 114
0.95306949 -0.04655661 0.23712477 255 123 114
0.94822010 -0.04596800 0.23529223 255 123 114
0.94337072 -0.04537939 0.23345969 255 123 114
0.93852134 -0.04479078 0.23162716 255 123 114
0.93367196 -0.04420217 0.22979462 255 123 114
0.92882257 -0.04361356 0.22796208 255 123 114
0.92397319 -0.04302495 0.22612954 255 123 114
0.91912381 -0.04243634 0.22429700 255 123 114
0.91427443 -0.04184772 0.22246446 255 123 114
0.90942505 -0.04125911 0.22063192 255 123 114
0.90457566 -0.04067050 0.21879938 255 123 114
0.89972628 -0.04008189 0.21696684 255 123 114
0.89487690 -0.03949328 0.21513430 255 123 114
0.89487690 -0.03949328 0.21513430 255 123 114
0.89448693 -0.04312211 0.21500069 255 123 114
0.89409696 -0.04675095 0.21486707 255 123 114
0.89370698 -0.05037978 0.21473346 255 123 114
0.89331701 -0.05400862 0.21459985 255 123 114
0.89292704 -0.05763746 0.21446624 255 123 114
0.89253707 -0.06126629 0.21433262 255 123 114
0.89214710 -0.06489513 0.21419901 255 123 114
0.89175713 -0.06852396 0.21406540 255 123 114
0.89136715 -0.07215280 0.21393178 255 123 114
0.89097718 -0.07578163 0.21379817 255 123 114
0.89058721 -0.07941047 0.21366456 255 123 114
0.89019724 -0.08303930 0.21353095 255 123 114
0.88980727 -0.08666814 0.21339733 255 123 114
0.88941729 -0.09029697 0.21326372 255 123 114
0.88902732 -0.09392581 0.21313011 255 123 114
0.88863735 -0.09755464 0.21299649 255 123 114
0.88824738 -0.10118348 0.21286288 255 123 114
0.88785741 -0.10481231 0.21272927 255 123 114
0.88746744 -0.10844115 0.21259566 255 123 114
0.88707746 -0.11206998 0.21246204 255 123 114
0.88668749 -0.11569882 0.21232843 255 123 114
0.88629752 -0.11932765 0.21219482 255 123 114
0.88590755 -0.12295649 0.21206120 255 123 114
