ply
format ascii 1.0
element vertex 50
property float x
property float y
property float z
property uchar red
property uchar green
property uchar blue
element face 60
property list uchar int vertex_indices
end_header
0.00000000 0.00000000 0.00000000 88 166 255
-0.14040772 -0.09828540 0.28081544 88 166 255
0.14040772 -0.09828540 0.28081544 88 166 255
0.14040772 0.09828540 0.28081544 88 166 255
-0.14040772 0.09828540 0.28081544 88 166 255
0.12973310 0.92309261 0.36203503 255 123 114
-0.01899722 0.78605577 0.62151886 255 123 114
0.26166482 0.78669865 0.63077722 255 123 114
0.26031014 0.98132424 0.65832943 255 123 114
-0.02035190 0.98068136 0.64907107 255 123 114
1.01585584 -0.06930134 0.09140409 126 231 135
0.82220114 -0.15038614 0.34469201 126 231 135
1.09799227 -0.17192639 0.39298884 126 231 135
1.11358173 0.02401848 0.39135862 126 231 135
0.83779061 0.04555873 0.34306179 126 231 135
0.68254049 -0.82806521 -0.20250939 210 168 255
0.50317003 -0.87392918 0.06943618 210 168 255
0.78104321 -0.89476861 0.10421448 210 168 255
0.79891139 -0.70082021 0.07766588 210 168 255
0.52103822 -0.67998078 0.04288758 210 168 255
1.35313359 0.90146643 0.78536207 255 166 87
1.14452646 0.78146091 1.00966857 255 166 87
1.41675129 0.75783663 1.07442077 255 166 87
1.42708562 0.95220447 1.10188760 255 166 87
1.15486080 0.97582875 1.03713540 255 166 87
0.33448910 -1.85279243 -0.08942303 121 192 255
0.17210854 -1.86926299 0.19622174 121 192 255
0.45178632 -1.88458626 0.21629280 121 192 255
0.46569225 -1.69467277 0.16751191 121 192 255
0.18601447 -1.67934951 0.14744084 121 192 255
-0.50157549 -1.39252572 0.35868227 88 166 255
-0.62088971 -1.43324381 0.66255365 88 166 255
-0.34075942 -1.43146153 0.64303040 88 166 255
-0.34472592 -1.23890742 0.60369512 88 166 255
-0.62485621 -1.24068970 0.62321837 88 166 255
-1.74332262 -0.84435037 -1.31305021 255 123 114
-1.81332100 -0.93502696 -1.00465170 255 123 114
-1.53972946 -0.91236748 -1.06374085 255 123 114
-1.55792892 -0.71686176 -1.07303461 255 123 114
-1.83152046 -0.73952124 -1.01394546 255 123 114
-2.26665586 0.08720831 -0.45992300 126 231 135
-2.30827941 -0.03129324 -0.15585637 126 231 135
-2.04120587 -0.00124765 -0.23725844 126 231 135
-2.06013364 0.19415291 -0.22723633 126 231 135
-2.32720718 0.16410732 -0.14583426 126 231 135
-2.36389704 0.69950097 0.10641810 210 168 255
-2.39755725 0.55965684 0.40229353 210 168 255
-2.13285817 0.59069185 0.31381452 210 168 255
-2.14731262 0.78513499 0.33877486 210 168 255
-2.41201170 0.75409998 0.42725387 210 168 255
3 0 1 2
3 0 2 3
3 0 3 4
3 0 4 1
3 1 2 3
3 1 3 4
3 5 6 7
3 5 7 8
3 5 8 9
3 5 9 6
3 6 7 8
3 6 8 9
3 10 11 12
3 10 12 13
3 10 13 14
3 10 14 11
3 11 12 13
3 11 13 14
3 15 16 17
3 15 17 18
3 15 18 19
3 15 19 16
3 16 17 18
3 16 18 19
3 20 21 22
3 20 22 23
3 20 23 24
3 20 24 21
3 21 22 23
3 21 23 24
3 25 26 27
3 25 27 28
3 25 28 29
3 25 29 26
3 26 27 28
3 26 28 29
3 30 31 32
3 30 32 33
3 30 33 34
3 30 34 31
3 31 32 33
3 31 33 34
3 35 36 37
3 35 37 38
3 35 38 39
3 35 39 36
3 36 37 38
3 36 38 39
3 40 41 42
3 40 42 43
3 40 43 44
3 40 44 41
3 41 42 43
3 41 43 44
3 45 46 47
3 45 47 48
3 45 48 49
3 45 49 46
3 46 47 48
3 46 48 49
