ply
format ascii 1.0
element vertex 1072
property float x
property float y
property float z
property uchar red
property uchar green
property uchar blue
end_header
-0.23359220 0.22255606 5.13279343 165 159 144
-0.00221384 0.66931317 5.32305219 209 194 171
0.13847449 0.29418174 5.26434510 58 67 76
0.28392203 0.25798998 5.32562930 162 153 141
-0.13817823 0.35956382 5.18398436 44 58 69
-0.07695569 0.35026103 5.19394598 149 162 170
0.12320081 1.33366043 5.55755334 139 99 74
-0.00001224 0.77742842 5.34688523 178 169 152
0.04081358 0.66494938 5.32112696 213 207 190
0.30471785 0.10311618 5.30576466 107 115 125
0.18496929 0.65443507 5.36524073 189 174 153
0.10242454 -0.46411663 4.96361490 208 202 186
0.34314911 0.20602482 5.36757528 50 57 65
0.42138413 0.76646566 5.52354612 102 115 124
0.23437941 -0.34668025 5.10102428 142 126 113
0.26709698 0.70267822 5.42746632 178 165 148
-0.08206638 0.03415675 5.09354194 69 82 93
-0.22684195 0.39789350 5.19422952 228 222 205
0.03478297 0.64939031 5.33479189 45 46 40
-0.37868508 -0.20797757 4.95177915 170 166 158
-0.01201959 -0.28298661 5.00907615 66 65 70
0.06827810 -0.29739160 5.03685185 133 123 111
-0.28107506 -0.21712584 4.95363554 144 137 124
-0.19870175 -0.08346687 5.04836027 49 59 67
0.15489772 -0.00743882 5.18738350 170 160 148
0.06667995 0.01455817 5.15980949 139 132 119
0.46691177 1.66856592 4.83576978 157 142 123
-0.63532619 -0.35876270 4.95495497 121 135 135
-0.33967682 -0.21554674 4.96668570 143 139 130
-0.95669055 1.12142986 7.56624305 103 118 122
-0.00401774 0.65223899 5.32878892 207 192 169
0.47591876 1.62187089 4.83537821 214 198 172
0.18748177 2.06136034 5.06438456 127 127 117
-0.36255594 -0.22580382 4.94109642 59 72 81
-0.91222516 -0.23295351 5.16818745 198 203 198
0.04988596 0.54036732 5.32130802 250 231 215
-0.04005368 -0.04920087 5.10701027 43 59 72
0.19117939 -0.02878047 5.19501509 55 58 63
-0.06758986 -0.04908751 5.09836801 48 62 75
0.43453153 0.71309206 5.55971245 10 17 23
0.00793203 0.63535632 5.32819822 42 43 37
0.32407833 -0.38561048 5.17473140 198 189 180
-0.00294950 0.63559133 5.32133517 203 193 176
0.40444129 0.75858527 5.53175805 15 23 26
-0.18098448 -0.08809982 5.05056060 45 55 61
-0.13009084 -0.02639906 5.08598548 42 58 71
0.29492733 0.57223617 5.41487207 171 159 142
-0.18765190 0.26963165 5.17134184 33 49 62
-0.02824878 -0.27906405 5.00544371 56 60 64
-0.15616506 0.07392141 5.08136701 192 187 173
-0.06758986 -0.04908751 5.09836801 48 62 75
-0.33967682 -0.21554674 4.96668570 143 139 130
0.30577476 0.55865709 5.40216039 172 161 147
-0.21613580 0.04763848 5.08995835 36 52 65
-0.28851020 -0.01408624 5.05703699 55 71 84
-0.48983813 0.26118677 5.16428662 186 195 192
-0.17821667 0.05352441 5.10318806 43 57 67
0.03231558 -0.14391184 5.10235128 40 46 51
-0.13009084 -0.02639906 5.08598548 42 58 71
-0.09941796 -0.26363581 4.99053971 61 64 67
0.41535779 0.19020514 5.42122991 183 180 173
-0.03901988 -0.12550091 5.08174802 44 52 58
-0.67095874 -0.34446758 4.96840621 101 123 134
0.46607623 1.67965976 4.83958334 197 186 169
-0.10412885 -0.40509186 4.90214978 181 179 163
-0.00918641 0.70860825 5.33033171 200 188 166
0.56385633 1.65020402 4.84963457 199 188 167
0.03467050 0.55338181 5.31782999 231 255 255
0.06301255 1.36035343 5.55889682 137 102 80
-0.34900625 0.09712098 5.07527466 52 69 78
-0.03738920 0.59698720 5.29940628 115 129 138
0.07081080 -0.44501112 4.95298608 90 98 104
0.19459957 0.59395348 5.35788685 167 160 142
-0.00523087 -0.07217434 5.11332444 46 62 74
0.03254402 0.02633346 5.13528886 205 198 184
-0.47155930 -0.18773591 4.96435414 185 185 173
0.02278569 -0.08534851 5.11721967 49 65 78
0.28984087 0.85130339 5.46829577 86 97 103
0.03414400 0.24439810 5.21396712 39 54 66
0.17976459 0.13467645 5.24332100 44 52 59
-0.09925374 -0.10268931 5.07434257 51 61 70
-0.21817947 0.39124723 5.19769621 214 214 205
-0.09925374 -0.10268931 5.07434257 51 61 70
0.01047993 -0.02677044 5.12551400 47 61 72
0.05156590 1.56293913 5.12012820 210 215 208
0.35816291 0.69900733 5.48981820 112 121 130
0.04261307 -0.44265343 4.93886706 198 193 175
0.43372102 0.32213295 5.47221305 176 174 168
0.05744312 1.37989947 5.55045664 116 85 64
0.20971966 1.15471996 5.52161923 91 101 107
-0.23049686 -0.01013337 5.06947570 40 58 70
0.09346547 -0.11573629 5.12741861 44 56 69
-0.72546095 0.25480387 5.23621599 99 113 120
0.08969639 -0.14280583 5.11840916 42 54 66
-0.28662637 0.24799881 5.14939004 60 73 81
-0.13663453 0.21901797 5.16574221 54 64 67
0.10635070 -0.16023542 5.11800145 71 81 89
-0.22742546 0.02879370 5.08072405 40 58 70
-0.35188297 0.40965778 5.19886453 205 206 200
-0.11148155 -0.03035494 5.09138571 40 56 69
0.25514856 -0.20259802 5.16876602 46 53 62
-0.11289835 -0.04441360 5.08759099 45 62 73
-0.28677965 -0.01132964 5.03589955 55 71 84
0.09336073 -0.16863872 5.11709411 118 113 105
0.08969639 -0.14280583 5.11840916 42 54 66
0.01950326 0.03328479 5.13987366 188 180 167
-0.26818910 -0.23072574 4.97103179 60 65 67
-0.30967267 -0.06330574 5.03737253 59 77 88
0.09346547 -0.11573629 5.12741861 44 56 69
0.52221412 1.79218853 4.90514572 196 186 174
-0.14469780 -0.09630942 5.04219323 47 55 59
-0.09040263 0.28754842 5.19670932 42 59 69
0.46952928 0.77557961 5.55135409 185 178 168
-0.12292076 0.24960711 5.16234588 48 62 73
-0.78111775 -0.21646153 5.08556910 102 118 124
-0.36699400 -0.00356369 5.05564920 52 73 86
-0.09409198 0.24994552 5.18023775 47 62 73
0.02278569 -0.08534851 5.11721967 49 65 78
0.06653485 -0.42110936 4.95529680 62 71 80
0.03360878 0.24513913 5.20550887 39 54 66
0.32674012 0.07849300 5.31226777 52 63 71
-0.22908449 0.23945156 5.13715130 69 79 80
0.04968105 0.54058652 5.32079560 250 231 215
-0.70238788 -0.05064735 5.11102953 113 135 144
-0.16240687 -0.09316554 5.05400472 48 55 60
-0.07165105 -0.08806636 5.07841501 40 57 67
0.03414400 0.24439810 5.21396712 39 54 66
-0.17683421 -0.03534178 5.07374837 48 65 75
0.05963906 -0.39723292 4.95768591 52 59 65
-0.09154801 -0.11093382 5.05498762 46 55 61
-0.67095874 -0.34446758 4.96840621 101 123 134
0.63633343 1.63424117 4.86320258 151 138 119
0.25216705 0.44980119 5.34568000 50 59 68
0.30762518 -0.26551667 5.20041892 177 167 152
0.39848327 0.64903068 5.51073011 174 165 155
-0.11651153 -0.09795371 5.06975098 48 59 68
0.43730944 0.17727949 5.44448452 165 163 159
-0.76757647 -0.21527446 5.07643325 100 119 130
0.40545632 -0.42492470 5.21849660 162 164 163
-0.01226489 0.58819199 5.31370194 11 16 20
-0.31835777 -0.27619099 4.93057627 46 62 75
0.16110572 -0.14555641 5.13872855 44 56 70
0.40817172 0.50170478 5.46664120 182 178 173
1.31812170 1.10501883 5.36574498 218 223 216
0.18803164 -0.45648858 5.01154627 49 59 69
0.16656446 0.30586373 5.27846512 196 184 168
-0.05906211 -0.39795534 4.90213571 57 70 79
-0.33813500 -0.27521673 4.93485797 61 77 90
0.28254958 0.73303315 5.43851368 27 32 35
-0.19199692 -0.35955260 4.88365648 60 77 87
0.51792221 0.41780572 5.63250110 186 194 196
0.19537700 -0.45127811 5.01703202 60 69 77
0.59436416 0.96194657 5.82425653 176 177 171
-0.05637909 -0.12074573 5.07588054 45 49 55
0.49171956 1.62430794 4.84137798 169 154 131
0.45191571 1.13202057 5.68848361 51 41 33
-0.27804086 -0.28058346 4.92981520 53 66 75
0.18070991 -0.44673981 5.01122251 55 64 72
0.11522188 -0.43769351 4.97397609 76 86 95
0.16304053 -0.45486568 4.99655159 55 65 74
-0.20214989 -0.35497317 4.90222138 67 84 94
-0.03889293 -0.39041757 4.91697094 57 67 76
0.09190132 -0.42212769 4.96868812 70 79 88
-0.72693995 -0.25835582 5.03826858 69 93 107
0.06653485 -0.42110936 4.95529680 62 71 80
-0.26812424 -0.30026561 4.91685114 57 70 79
0.44375939 -0.46499954 5.28840612 108 127 141
0.31046625 -0.16208667 5.21412441 57 66 75
-0.15478432 0.10114167 5.10682348 141 134 118
-0.02922740 -0.38595592 4.92322976 55 64 71
0.44618301 1.67566376 4.83366483 150 137 120
0.69737250 1.25757414 5.45958948 197 200 191
0.45327479 0.63705264 5.55330730 11 18 22
-0.22742546 0.02879370 5.08072405 40 58 70
0.29816348 -0.13066592 5.21324796 52 61 70
-0.20043746 0.19550528 5.11982861 184 177 159
-0.20486878 -0.04114201 5.03530634 173 188 191
0.05961450 -0.41169236 4.95722655 53 62 69
0.47944139 0.45151120 5.58737938 194 201 203
-0.33687123 -0.23756242 4.95124234 54 68 79
0.51209741 0.25752165 5.54278939 171 178 182
-0.27650229 -0.24361614 4.93139064 50 60 69
0.26581260 1.31756685 5.55492755 150 117 98
0.02942992 1.95778146 5.02904368 99 110 106
0.14655305 0.56055811 5.34240655 80 102 115
-0.31532616 0.19033646 5.09517058 201 195 179
-0.27569450 -0.25483791 4.92004198 53 66 75
-1.09487067 -0.31938993 5.32406766 99 116 126
0.34177253 1.30625308 5.45019378 42 47 50
-0.15478432 0.10114167 5.10682348 141 134 118
0.40205795 1.34501186 5.24707751 165 169 168
0.34446039 -0.36512837 5.16800539 181 172 162
0.65106240 1.71889550 4.90430404 105 97 84
-0.46566925 0.96683544 5.42458548 104 124 135
-0.63718530 0.10044658 5.11237599 125 149 167
-0.48107225 0.10156765 5.05709633 79 100 114
-0.09127451 0.66375395 5.29743101 187 183 172
0.23432195 0.41641803 5.34127408 176 164 148
-0.27430947 -0.96894945 6.05348486 123 110 101
0.36644203 0.22368817 5.38377295 165 158 149
-0.93328079 -0.38649507 5.07068604 194 192 175
-0.04535840 -0.40134248 4.90257999 98 107 116
0.46079605 0.76783435 5.59101291 100 111 121
0.42362627 0.79678099 5.56129806 89 103 111
-0.33278826 0.08670772 5.05322695 151 169 181
0.23543851 0.57701487 5.38170529 53 60 64
0.16520252 0.47421969 5.32644558 63 72 79
-0.56193396 -0.36404215 4.90683314 211 211 187
-0.07059925 -0.40443840 4.90214493 69 80 87
0.23543851 0.57701487 5.38170529 53 60 64
-0.28897915 -0.06556286 5.01079388 60 77 85
-0.15683823 -0.47331049 4.88819580 165 115 61
0.01021807 0.03341984 5.12584298 201 194 180
0.47075927 0.75569897 5.58838104 112 126 138
-0.08352529 0.51509658 5.23969640 192 186 176
-0.74619906 -0.35628208 4.60844920 180 177 158
-0.09887476 0.21054733 5.15153730 36 46 49
0.39654622 0.51120575 5.47731577 180 175 167
-0.06345829 0.65990916 5.30375566 200 192 176
0.25901974 0.41168040 5.34149528 157 148 135
-0.08352529 0.51509658 5.23969640 192 186 176
-0.67269086 -0.37733118 5.25112254 121 135 135
0.45200992 0.61991565 5.55730579 175 172 166
-0.23846140 0.39427504 5.17785726 215 212 198
0.37057008 0.04752656 5.35971456 146 140 128
-0.44362182 0.10580749 5.06677081 48 65 76
0.02379493 -0.43654025 4.94083852 167 164 152
-0.03567040 0.64733953 5.30357449 187 177 160
-0.04782264 0.50458138 5.24650635 180 175 162
1.64204416 1.98900044 5.43843613 155 191 197
0.35718366 0.53335535 5.44162939 168 162 150
0.03298517 0.55427992 5.31415762 231 255 255
-0.33916309 0.25059442 5.12223645 183 188 181
-0.44839503 -0.20743192 4.94712654 82 93 96
-0.75947986 -0.54542983 5.24717226 191 148 93
-0.76648986 -0.54897203 5.27400293 191 148 93
-0.12322342 0.24903612 5.15853508 48 62 73
0.57243155 1.03162109 5.84611214 54 47 40
-0.67930226 -0.20384280 4.99757314 98 119 130
0.07454570 0.16612847 5.19535055 49 60 65
-0.03978717 -0.04854243 5.09261174 43 59 72
-0.10491490 0.03638486 5.09153472 45 55 65
-0.12242806 0.24832989 5.15256328 48 62 73
-0.44839503 -0.20743192 4.94712654 82 93 96
0.50635906 0.13476407 5.54501427 176 182 182
-0.45514681 -0.29162714 4.90859164 71 94 108
-0.45514681 -0.29162714 4.90859164 71 94 108
-0.61839922 -0.46007138 4.99968846 158 117 66
1.57335576 2.05246054 5.36991517 132 164 171
0.45356747 0.45123825 5.54712239 90 106 120
0.88831142 -0.41403529 6.39197155 194 193 190
0.88508748 -0.41356152 6.38201468 194 193 190
-0.02559327 1.47294223 5.53354698 41 47 47
0.05181177 0.56874547 5.32010803 17 21 25
0.19052332 -0.18258747 5.14796409 45 49 54
0.06939941 -0.07503956 5.12675786 45 59 69
0.28813331 1.28625127 5.70257275 89 88 84
-0.05570153 -0.12094416 5.06987791 45 49 55
-0.10354114 -0.05237283 5.06571703 43 59 70
-0.34016570 -0.37666937 4.22019325 238 235 218
-0.18791463 -0.45549302 4.91815409 233 230 211
-0.79864049 1.25972420 5.84578782 75 87 87
-0.03666298 -0.11103863 5.08143350 41 54 64
0.00887020 1.32723376 5.55688549 159 142 126
-0.01570599 0.63024585 5.31361212 50 53 56
0.45223663 -0.12285989 5.37945713 177 181 181
-0.25647733 -0.31969470 4.89404723 60 73 82
-0.12488897 -0.37862955 4.88780781 57 70 79
0.05336740 1.44203182 5.55475729 115 93 74
0.41101993 -0.29030446 5.29575794 164 169 172
0.89298962 1.25184192 5.39047644 221 222 206
0.35095393 0.31244577 5.41034708 201 191 179
0.28813974 0.78333882 5.45413099 73 82 89
-0.00193775 -0.38674863 4.92869683 48 57 64
0.34085934 1.10499914 5.59030993 78 83 87
0.31669845 -0.13975984 5.29474596 59 68 77
0.47951458 0.28656123 5.52949330 179 181 176
0.42397142 0.64742616 5.52926858 74 82 86
0.34625219 0.34620053 5.39175799 199 191 178
-0.09711827 1.63857041 5.10240344 126 128 125
1.08782752 1.81676498 5.45011255 58 59 54
0.47020821 0.63180500 5.57563555 115 129 142
0.52218180 0.35780841 5.66664710 20 25 28
0.47498773 1.07654431 5.74590307 46 39 33
0.45013952 -0.75177567 5.49801699 221 223 213
0.62272315 1.63932856 4.86599516 148 137 119
0.49127387 -0.42832667 5.58791000 173 180 186
0.24051520 1.35738051 5.57778039 165 123 99
1.58601986 2.04471196 5.38995853 148 180 185
0.02092231 1.58452121 5.08950107 155 160 154
0.54409981 -0.71191654 5.52835849 154 174 184
1.58601986 2.04471196 5.38995853 148 180 185
0.38116006 1.14870343 5.69909295 145 133 119
0.49560746 0.48414813 5.54578976 195 204 206
1.37558911 1.29878649 5.36810041 197 199 192
0.38036344 1.52316603 5.84891653 65 65 65
0.64963808 0.00936703 5.97104170 206 189 171
-0.55224664 0.25612252 5.14603231 220 218 205
-0.26613163 0.10180531 5.07011221 160 158 139
-0.65722561 0.12417574 5.12749024 173 176 160
0.33816192 0.23468586 5.36173466 193 184 169
-0.00828098 0.02096087 5.12349858 53 63 73
-0.28377449 0.23601804 5.11795263 192 186 169
0.23888554 -0.02292153 5.21842206 172 156 141
0.03478470 -0.28541485 5.02425901 157 139 127
0.04242838 -0.29582113 5.01956476 58 58 63
-0.27147725 -0.06678402 5.02364222 51 65 73
-0.13228154 0.20876421 5.13875488 169 161 147
0.23743783 0.27441917 5.31035334 166 157 141
0.28285175 -0.20171648 5.19517892 124 132 143
-0.70612021 -0.34620370 4.96526122 125 148 164
-0.02863299 -0.11995013 5.08392111 41 51 60
-0.66804953 -0.35321342 4.94179914 130 148 160
0.36301698 -0.40481071 5.19320347 169 165 159
0.40754540 -0.44916771 5.25925436 81 100 114
-0.27147725 -0.06678402 5.02364222 51 65 73
0.37241145 0.75439577 5.51929435 91 105 114
0.10238902 -0.46237839 4.96669363 218 216 202
0.07587741 0.00457648 5.15140342 70 75 78
0.19133566 -0.18248311 5.14088360 50 54 61
0.03248704 -0.14286882 5.09539623 42 46 53
-0.05063834 -0.40825003 4.91053285 49 58 66
0.29954467 0.09072100 5.30784567 47 52 56
0.25354224 0.14286697 5.28218784 44 53 62
0.06731598 -0.10247081 5.11733518 44 54 65
0.01495210 -0.13927404 5.09596385 46 52 59
-0.08706754 0.03361713 5.10286734 44 57 66
-0.54036726 -0.35393868 4.90390440 113 132 139
-0.40586868 -0.20906147 4.95333025 80 89 93
0.11096319 0.29053101 5.24394539 57 69 78
0.01912101 -0.11112688 5.10032851 52 66 77
0.35666698 0.36939930 5.40635623 172 169 156
0.23845094 -0.13579881 5.17924016 55 59 67
-0.60594173 -0.34613652 4.92484838 108 131 147
0.09300773 0.00067139 5.15865271 59 62 61
0.36954234 0.06002572 5.35386952 59 66 73
0.04694467 -0.11095504 5.10884277 54 66 77
0.02111218 -0.09758514 5.10375717 45 56 69
-0.15747573 -0.03813171 5.06038005 58 72 81
0.05296672 -0.13317641 5.10674290 46 54 67
0.07163475 -0.13775336 5.11191582 59 72 81
-0.16244406 0.02400608 5.07871997 66 80 89
0.01008286 -0.02620432 5.12055995 42 54 64
0.08288767 -0.11991028 5.12003234 48 58 70
-0.15654025 -0.03762350 5.04918827 58 72 81
0.31555517 -0.07231218 5.25922911 64 63 62
0.13600011 -0.03098505 5.16502020 46 55 64
0.38925904 0.36137980 5.42865235 68 82 91
-0.26147423 -0.37160937 4.87834722 65 80 87
-0.50912063 -0.11995034 5.00349165 213 212 192
0.44325310 0.14701679 5.42540114 122 138 151
-0.28432438 -0.37159072 4.88173019 87 98 101
0.25354224 0.14286697 5.28218784 44 53 62
0.27437823 1.55893462 5.39473398 225 227 214
0.19991585 -0.17749863 5.15172346 44 51 61
-0.28432438 -0.37159072 4.88173019 87 98 101
0.05296514 -0.13273869 5.10340260 46 54 67
0.01598776 -0.39158278 4.94382841 51 55 64
0.25552113 -0.11471288 5.19804292 45 49 58
0.36277196 0.37737921 5.41969011 58 72 81
0.12340002 -0.16479320 5.12390981 52 60 70
0.23053952 -0.12593698 5.17879811 47 54 62
-0.10466751 -0.05136489 5.07527698 47 61 72
0.23526644 -0.47513020 5.04620372 52 64 75
0.08398846 -0.42815604 4.96290082 59 68 77
-0.01260267 -0.40518665 4.92666149 55 64 73
-0.70161027 -0.34018339 4.95692305 111 134 150
0.62605069 1.36793745 5.25224313 144 135 126
-0.20473855 -0.03944925 5.04150161 173 187 190
0.89250323 1.75746707 5.23628742 155 147 137
0.36626103 -0.26290652 5.25260401 193 188 178
0.47616668 0.38455982 5.57309410 164 192 214
-0.26479676 -0.36560570 4.86816949 185 200 205
-0.26479676 -0.36560570 4.86816949 185 200 205
1.29627700 1.36732716 5.38355870 135 125 115
-0.96250958 -0.16778645 5.23497705 208 207 187
1.13345388 1.41972593 5.26736611 184 175 158
1.35189675 1.32445488 5.34776749 184 181 174
-0.29112879 0.56152543 5.23412814 51 68 81
-0.44873724 0.27456075 5.12613013 141 164 178
0.13421048 0.15922945 5.22451300 53 63 73
-0.00788843 -0.43023975 4.91363423 177 172 158
-0.05406487 -0.26558290 4.98968364 133 123 111
-0.89913822 -0.86051944 5.92395905 131 121 109
-0.18030909 -0.07821550 5.02537167 73 86 95
-0.26830839 0.09710316 5.07064807 140 137 122
-0.43530001 -0.04179146 5.01065080 81 104 119
0.09754109 0.14918611 5.20347158 154 147 132
0.20972751 0.28731670 5.28448783 166 156 141
-0.13627236 0.95372163 5.37437020 83 97 108
0.18045805 0.29834033 5.27460022 174 163 148
0.23909199 0.27320258 5.30009142 142 133 122
-0.67503700 0.09961771 5.11919050 99 121 134
0.22304535 0.28019989 5.29079130 147 136 124
-0.25654985 -0.22309531 4.94877605 134 128 116
0.20882945 0.28806957 5.29604935 149 139 125
0.09204575 0.32105031 5.23940662 152 145 128
0.37805824 -0.41156866 5.23198583 165 163 160
0.26997631 -0.05670093 5.22374697 56 57 61
-0.03398862 -0.00763663 5.09250375 36 52 65
0.10479491 1.19099373 5.49638531 80 89 94
-0.51370734 -0.21847414 4.93701402 120 140 151
0.13557528 -0.46750110 4.99009675 60 70 78
-0.08829082 -0.40042698 4.89584571 63 75 81
-0.11316755 0.67213982 5.29487128 184 178 162
-0.18418613 -0.38272644 4.87852101 67 80 87
0.21127394 -0.49623917 5.03945668 54 66 76
0.32283626 0.05700821 5.30770361 178 168 156
1.58860511 1.89952071 5.52284140 133 159 159
0.07236787 1.52776342 5.27806269 77 82 80
0.24676073 -0.48169053 5.06592620 63 78 91
0.21197638 -0.49616608 5.03824259 54 66 76
0.52387702 0.17582848 6.31853551 78 92 104
-0.53693524 -0.35666214 4.88881697 114 129 134
0.35642670 0.21369861 5.37697691 80 86 90
-0.26062744 -0.36020302 4.87577732 80 97 107
-0.26062744 -0.36020302 4.87577732 80 97 107
-0.12001587 0.16247823 5.12256646 151 142 125
-0.91828111 0.05014159 5.22764627 93 114 129
0.66197396 1.23705906 5.45784425 142 109 90
-0.24309662 -0.54216426 5.19096624 167 120 64
1.49731943 2.09499766 5.29300405 205 238 243
1.48726776 2.10686477 5.28866805 209 244 253
1.55306232 2.05486593 5.33883802 150 187 193
0.02435122 1.83021970 4.95031860 151 154 145
0.08701707 -0.15693806 5.11054811 39 51 63
0.61974095 0.15872915 5.92542575 130 130 125
1.52429251 2.08088943 5.31146720 148 182 187
1.65316689 1.96628793 5.44532065 157 194 199
1.49804188 2.10348608 5.28748249 143 175 183
1.51951843 2.09776847 5.29903382 207 241 249
0.43274325 1.24673752 5.49967036 73 92 99
-0.12947348 -0.35118752 4.90017680 60 73 81
-0.21477380 -0.51227851 5.13686548 217 168 108
1.51951844 2.09776848 5.29903383 207 241 249
0.40722100 0.06580462 5.38327209 61 73 85
0.59733640 1.36753547 5.31328395 95 78 62
0.67874631 1.34420754 5.36501012 196 196 184
0.23839239 1.36507510 5.33910662 188 173 163
-0.21477380 -0.51227851 5.13686548 217 168 108
1.26080206 1.34155079 5.23153490 136 124 112
1.50912437 2.09739171 5.30142556 146 179 186
-0.51485036 0.68160209 5.32482539 85 107 121
-0.91263678 -0.05967416 5.20059230 98 121 136
-0.14898163 0.23070806 5.13821314 66 79 88
0.32989860 0.22155107 5.35024102 60 69 74
-0.28297467 0.40751503 5.18081396 201 198 181
-0.48317468 -0.04480764 5.01305301 82 102 115
-0.48350363 -0.04507397 5.01443326 82 102 115
0.27533490 0.56877672 5.39356665 170 157 140
0.04536608 0.54933114 5.31517432 25 26 25
0.03222469 -0.52984161 4.99478221 215 169 114
-0.00730655 0.36394052 5.21976528 199 186 167
0.05594049 -0.44014398 4.94670124 46 54 61
-0.26438217 -0.23445831 4.95679384 59 67 74
-0.16399943 -0.35858179 4.89653967 61 74 83
-0.25221952 0.08415677 5.07947653 78 87 89
0.04584341 0.54908492 5.31558806 25 26 25
1.25499043 1.23007703 5.30178955 225 220 200
-0.33347258 0.68809880 5.28931773 92 109 122
-0.48332819 0.56918032 5.25081649 100 118 130
-0.15255743 0.52020665 5.21898948 166 160 146
-0.78830007 -0.06371289 5.12316630 186 186 176
-0.41904502 0.56245969 5.23875477 102 119 128
-0.63370262 -0.03492412 5.06342532 80 107 124
0.17352190 0.73374360 5.39395278 167 155 139
-0.11480255 0.04689853 5.10433085 108 120 134
-0.00062601 -0.27490769 5.00841448 138 126 116
-0.55228770 0.24357686 5.13055090 196 197 183
-0.87645359 0.07982049 5.22871857 114 137 147
0.17844756 0.14495444 5.24268756 133 143 152
-0.48569321 0.41069807 5.19060445 92 106 115
0.31221695 -0.55529916 5.12448681 194 192 180
0.13644502 0.59829995 5.34409525 178 157 134
0.15318073 -0.49066083 5.00673247 229 222 206
0.23291960 -0.34756881 5.11317047 112 95 81
-0.60264570 0.26459745 5.16168222 107 125 134
-0.58112893 0.12325861 5.10728907 186 190 176
0.28928270 0.84978882 5.48195423 88 99 105
-0.33404322 0.55702457 5.23380804 90 106 116
0.44906276 0.17106803 5.46458034 174 171 168
-0.24109524 1.64873735 8.49908671 166 164 151
-0.97546106 -0.39106269 5.10951792 195 193 179
0.30493318 0.70846801 5.44406687 77 82 86
0.29341407 -0.05592209 5.24780577 138 127 115
-0.63413979 -0.35383619 4.93416078 126 143 148
0.39987795 0.34493655 5.43743995 189 188 182
-0.09730143 0.05616282 5.09433448 170 163 149
-0.30009151 -0.37444349 4.87920268 203 204 194
0.42951125 0.01688715 5.41420610 155 153 146
0.12736841 0.55929514 5.34284495 16 27 32
0.04917585 0.55568443 5.31148795 20 22 22
-0.22083864 0.54463616 5.22469041 82 95 102
-0.16805559 -0.38561621 4.89356804 56 67 72
0.12829889 -0.32093059 5.06615671 55 48 46
-0.53021950 -0.36039020 4.89401355 181 187 179
0.34692768 0.32615386 5.39031119 143 133 121
0.51230640 0.25483348 5.57660954 176 180 183
0.44089401 -0.12571531 5.37994874 141 146 142
0.44230657 0.69888939 5.59941233 13 21 24
0.16552119 0.29276658 5.27186395 71 76 78
0.35305002 0.35691280 5.41295621 162 154 143
-0.98785233 -0.38262438 5.12704458 110 128 137
0.33710392 0.80354857 5.47979730 90 99 106
-0.77590658 -0.23170009 5.05611708 109 135 150
-0.55817386 0.10989190 5.09002151 105 128 139
-0.66112023 -0.35770821 4.94214047 200 204 194
0.57473841 1.12765296 5.70498566 154 114 89
0.25460716 -0.21337903 5.18972026 186 181 171
-0.56087479 -0.35425417 4.91089366 121 137 143
0.45111518 -0.30210227 5.37679866 113 145 166
-0.85650610 0.24033493 5.25060337 104 122 134
0.45412214 0.72344945 5.58109292 108 122 133
0.44230657 0.69888939 5.59941233 13 21 24
-1.02560237 0.19617188 5.44329052 113 128 134
0.44833200 0.30949886 5.48257898 173 170 162
0.04826568 1.57368733 5.16192309 212 219 211
-0.05859369 -0.39949935 4.90008526 42 55 64
0.35287243 1.59809565 5.19770598 214 216 203
0.05404289 1.41096468 5.54863409 131 99 78
-0.44910455 0.40947501 5.18029872 89 103 112
1.33127310 1.88454427 5.66312098 159 179 186
0.16349379 -0.45717005 5.00441155 49 59 69
0.32760129 -0.07803821 5.27421454 62 65 66
0.54405617 0.60055129 5.70248406 117 146 170
0.08710937 -0.45126549 4.97351936 48 57 65
0.36712943 -0.09707782 5.31239653 80 83 81
-0.16805559 -0.38561621 4.89356804 56 67 72
0.22564547 -0.50357786 5.05458217 92 106 112
0.01735778 -0.61397586 5.29855481 195 149 88
0.04581998 0.55704200 5.32997899 20 22 22
-0.00149703 -0.38677613 4.92758278 43 52 60
0.61734855 1.35976715 5.49907364 88 72 57
0.08721106 -0.15629043 5.11483061 27 42 55
0.46847011 -0.16459926 5.41107321 74 96 108
1.36537009 1.20662948 5.38803248 169 162 146
0.65063291 1.42753527 5.41352984 117 114 105
0.39049807 0.33284945 5.43076456 158 151 140
-1.00885305 -0.27647306 5.24111085 105 125 136
1.36744363 1.21179159 5.41277137 169 162 146
1.57006760 2.05291573 5.39658428 210 243 250
1.58181545 2.04488424 5.36974792 202 239 247
0.53946878 -0.53494249 5.54932792 179 192 198
-0.52493471 0.12811321 5.07756165 185 187 174
0.01137699 1.09695445 5.44902983 100 114 123
-0.44362695 0.42237267 5.18804210 168 166 155
0.19069747 -0.01342445 5.20326045 148 138 126
-0.57550973 0.39939059 5.20403507 133 152 165
0.34575646 0.98130005 5.55448524 175 165 150
0.25049074 -0.04077886 5.23148187 133 124 112
0.05370323 0.56725066 5.31314099 17 21 25
-0.57010908 -0.21298424 4.94567698 50 72 86
-0.29690328 0.98054932 5.39352230 112 124 128
-0.04380297 1.09650527 5.43914528 192 185 169
0.15667455 0.44431266 5.30317924 173 162 144
-0.12657304 -0.10247936 5.04018171 45 55 63
-0.39143398 0.25048985 5.11855634 174 174 163
0.21883972 0.59090360 5.38197854 168 161 146
-0.43588465 -0.42608382 5.63385477 200 203 191
-0.50059410 -0.20499512 4.93958317 80 92 97
-0.28715993 -0.29646503 4.88981303 64 78 87
0.20527220 0.59311223 5.33287858 191 184 168
-0.04322289 -0.12422745 5.06627410 47 54 60
0.34677893 0.34564155 5.40360136 200 192 179
0.22260064 -0.19214299 5.16361966 53 59 66
0.40740716 0.66676397 5.52340877 99 106 112
0.45032039 0.47204616 5.53893629 175 179 179
0.26214880 1.33064517 5.60019314 117 85 64
0.16091708 0.62576766 5.36051342 183 168 145
-0.00103119 -0.27525348 5.00619686 159 145 133
-0.21585818 -0.06455780 5.00754700 75 88 97
0.36553697 0.22416372 5.39686243 168 160 147
0.46123468 0.67397545 5.57729065 116 132 145
0.39138959 0.79232204 5.53628581 104 117 126
-0.75449388 -0.35613044 4.93673058 207 209 198
0.15733597 -0.17257560 5.13022827 59 66 73
-0.65099320 -0.20792825 4.97206655 144 168 183
0.32561319 1.11891846 5.59381337 77 82 85
-0.03165350 -0.48192121 4.90541485 248 241 225
-0.22847618 -0.23345341 4.94474444 73 75 76
0.12830454 -0.17355395 5.12093771 190 182 173
0.63734939 1.61171342 4.85862667 175 160 137
0.28938569 0.76522324 5.46935025 15 23 27
-0.52809033 -0.35573673 4.87328742 203 209 200
-0.11825659 0.27678107 5.15951865 57 71 82
-0.01467548 -0.41695219 4.91007528 54 59 67
-0.15949046 0.23507589 5.13343972 50 65 78
-0.26596227 -0.27255126 4.90645417 55 68 77
0.01161346 1.31944235 5.56723525 156 140 124
-0.07504641 -0.43838061 4.79905414 252 249 235
0.49412984 0.90481912 5.66693853 99 109 116
-0.16112869 0.31813953 5.16133995 49 65 80
0.43715619 1.66800615 4.82839328 207 195 173
-0.15949046 0.23507589 5.13343972 50 65 78
-0.11909372 0.55162802 5.24708502 52 62 71
0.46881339 1.69189148 4.84949105 148 139 124
-0.10231829 0.24728332 5.15339075 57 74 85
0.38617116 -0.10956897 5.30737172 134 144 153
-0.15658724 0.36989587 5.17726364 43 57 70
0.08762984 -0.15567262 5.10951049 46 55 62
-0.01467548 -0.41695219 4.91007528 54 59 67
-0.31418904 -0.01025210 5.01358978 50 69 83
-0.24897053 -0.05319892 5.01079736 51 68 80
0.33008173 0.22940298 5.36519215 66 72 74
0.19844825 0.88752713 5.44978133 76 79 76
0.05307018 -0.13203877 5.10106846 46 54 67
-0.12776178 0.60897591 5.27546228 47 61 73
-0.16589621 0.26852433 5.14334129 42 58 72
0.15276573 1.30728316 5.58556650 154 115 92
-0.21214116 -0.04836501 5.01985536 47 64 73
-0.30579487 -0.26566242 4.90154889 61 75 86
-0.30579487 -0.26566242 4.90154889 61 75 86
1.03482460 1.47963654 5.25472458 196 187 170
-0.25164869 0.26539240 5.12167195 56 72 85
0.11541937 -0.43760602 4.97333480 76 84 94
-0.12384629 0.25894523 5.15111456 183 197 206
-0.37676955 -0.49553510 5.02048294 227 181 119
0.41910220 0.03487859 5.39198561 84 92 97
-0.13587429 -0.28925987 4.92871088 103 110 117
0.31779352 0.46265720 5.49016068 109 119 128
0.44419907 0.32734560 5.48853324 55 71 80
0.48703894 0.50754593 5.55085736 201 206 200
0.50843158 0.55809308 5.62717688 187 198 201
-0.12941800 0.53630969 5.23779458 53 63 71
0.42323493 0.64634103 5.53978663 62 68 73
-0.39068755 0.28224011 5.11783182 44 63 78
-0.00325215 -0.13328186 5.08236249 52 54 56
0.29266590 1.27805593 5.70938967 107 103 94
0.29403229 1.25134085 5.70565535 49 56 59
0.32102127 0.22645595 5.35411725 53 61 68
0.33035909 -0.42725630 5.17137813 53 57 66
0.35155698 -0.50916968 5.14594688 77 87 96
0.44622044 0.24310815 5.47350910 199 194 184
-0.23038276 -0.05893997 5.01228334 61 75 86
-0.07572908 0.18953569 5.14199035 204 196 174
0.31779352 0.46265720 5.49016068 109 119 128
0.02014497 0.03506779 5.13077479 190 182 163
0.43805602 -0.82301234 5.72245749 235 240 235
-0.04429058 -0.20673580 5.00923772 195 182 166
0.43805602 -0.82301234 5.72245749 235 240 235
1.30787891 1.84704443 5.57189389 164 188 198
-0.43107312 0.70341068 5.29442996 189 187 174
-0.20395176 0.24233673 5.13057474 73 86 96
-0.23509302 -0.09102832 5.00624282 184 177 167
-0.23173338 1.13428411 5.40969274 102 120 130
0.11699338 0.14187994 5.22612638 176 164 148
-0.13970328 0.53591170 5.23596034 66 78 85
0.11889507 1.06761877 5.44346236 100 110 114
0.18751732 -0.50256404 5.01685900 206 200 184
-0.25390539 -0.06251032 5.01605431 54 69 84
0.31767271 0.55508769 5.43766143 164 156 141
0.37544937 -0.56768305 5.17266672 179 200 216
0.25037143 1.14620451 5.53508093 83 89 92
-0.62046854 -0.34809357 4.86817111 204 205 191
0.49810824 -0.19695798 5.47792950 157 181 198
-0.08362322 -0.38470748 4.88495074 52 66 77
-0.40208606 0.55368017 5.23152329 110 123 128
-0.10544120 1.23112935 5.44618604 100 113 121
0.52425891 1.58621840 4.87596822 177 160 133
-0.08344104 -0.37126957 4.89199462 49 62 71
0.27959450 0.75460767 5.45973353 18 26 29
0.22240228 -0.19213253 5.16410320 63 65 71
0.05284262 -0.41438352 4.93936716 50 60 69
0.31894008 0.05987205 5.32932297 171 159 145
0.02672835 -0.39989863 4.93318735 43 50 58
1.18415241 1.19154043 5.32678346 186 165 139
-0.19479588 -0.24087447 4.94331504 54 58 64
0.36649793 -0.09767920 5.31589719 80 83 81
-0.05253985 -0.35813403 4.90976754 49 58 67
0.16066163 -0.14495536 5.14246198 36 46 58
-0.30260734 -0.36916466 4.86274804 82 96 103
0.18214599 -0.44697202 5.01429928 42 53 59
0.08908456 -0.31541070 5.02663489 45 48 53
-0.03592616 -0.11008493 5.07332863 32 45 58
0.06222037 -0.39681941 4.95081649 43 50 56
-0.44656009 0.40862824 5.17144829 89 103 112
0.18933922 -0.45744494 5.01633470 39 48 56
0.19595591 -0.49657228 5.01844187 213 216 210
0.29000882 1.33731327 5.57671030 131 109 95
0.06947271 -0.42061392 4.94685269 50 59 69
-0.16147588 -0.36970472 4.86916657 54 70 84
0.17367196 -0.45054864 5.00934033 57 67 77
0.01906047 -0.43355449 4.91775094 196 190 175
-0.38188834 0.25867984 5.11353185 104 120 125
-0.55044543 -0.11598018 4.99689318 198 194 182
-0.11793507 -0.32624242 4.90049683 48 56 67
0.66498480 1.24118449 5.46212398 141 108 89
0.14251266 -0.43909690 4.99002799 50 60 70
-0.55044543 -0.11598018 4.99689318 198 194 182
0.22767186 -0.50237613 5.04111552 92 106 112
0.51496511 0.35705732 5.63917739 18 23 26
0.47861206 0.37362433 5.57814877 131 156 175
0.13442486 -0.03079600 5.17114218 35 43 53
0.55522837 0.34807439 5.76589495 179 192 200
-0.31292734 0.18999164 5.08631269 203 198 179
0.27843293 1.31570485 5.56915914 135 107 91
0.34843168 0.31263097 5.42065429 195 185 173
0.42697764 1.08936873 5.68848162 147 133 122
0.17367196 -0.45054864 5.00934033 57 67 77
0.55088293 0.27135847 5.71670648 127 155 176
1.09981274 1.79338243 5.42381187 56 57 52
-0.15704866 0.09354460 5.08112814 191 183 168
-0.15704866 0.09354460 5.08112814 191 183 168
0.60037019 0.68723315 5.85247489 191 197 197
1.37263058 1.30525558 5.38838902 206 203 194
-0.65708299 0.38702571 5.22755212 95 117 130
-0.05600374 0.18618886 5.14975275 181 176 157
0.18223943 0.65840544 5.38468960 179 166 144
0.11134252 -0.31709258 5.04760238 43 47 52
-0.50860127 0.10256172 5.06591853 56 82 97
0.60063018 0.96041720 5.80769441 165 170 164
-0.87961073 -0.21627590 5.12350284 214 215 201
-0.63232346 -0.03653340 5.05337980 92 118 133
2.40825747 -1.87460357 10.85740242 63 60 57
-0.64107323 -0.35904716 4.92565610 189 194 180
0.10170996 -0.46351652 4.97158372 198 196 187
-0.26028641 -0.37316951 4.86940118 82 95 100
-0.67969635 -0.89996543 6.18422242 241 233 214
-0.55652870 0.23743505 5.13639096 166 167 153
0.32063745 0.76331070 5.46381730 49 57 62
0.32063745 0.76331070 5.46381730 49 57 62
0.45463187 -0.00040506 5.43732795 151 152 150
-0.24096149 -0.54318037 5.18991884 167 120 64
-0.39278676 0.27668894 5.13221605 79 98 115
-0.27583043 0.06368460 5.05587123 130 149 163
0.44404430 -0.60582884 5.27029739 97 120 142
-0.58681886 0.27493729 5.16616452 112 133 148
-1.12273956 -0.79844911 5.99840387 129 120 111
-0.31682898 0.39097782 5.17993375 86 105 119
-0.41455062 0.12053024 5.06617227 197 195 182
-0.26601400 -0.38473360 4.86160155 194 194 170
0.20108633 -0.02640757 5.19429754 132 127 116
-0.93072212 -0.39199797 5.09461154 193 191 176
0.17413906 -0.04417867 5.17536418 69 79 86
0.05936709 -0.45055102 4.94444366 192 189 171
0.22530741 -0.50360605 5.04796154 78 91 97
-0.93462518 -0.15245130 5.22200016 192 193 179
-0.60378260 -0.35935737 4.91124167 220 226 211
-0.01491877 -0.41934211 4.91298218 46 58 62
-0.05309798 0.63792005 5.29440723 89 104 112
0.09821156 0.00661535 5.16310399 181 176 164
-0.24830423 -0.50910277 5.17657632 195 150 95
0.13780024 -0.64777402 5.40229137 187 142 83
-0.24849001 -0.50875626 5.17730022 195 150 95
0.44889473 0.25260061 5.50281529 138 135 128
0.42125566 -0.11692341 5.37960803 164 169 165
0.43883369 0.35726456 5.49170897 93 109 122
0.93592038 1.77187469 5.32904446 63 60 55
-0.24830423 -0.50910277 5.17657632 195 150 95
-0.07686541 -0.51232918 5.19586298 158 109 50
0.24824095 0.32224329 5.08781095 147 136 116
-0.29422858 -0.47324889 5.16261454 152 102 43
0.14807235 -0.23909356 4.95528963 125 115 100
0.20121111 -0.17993815 5.15712635 85 96 102
-0.07034315 -0.40565293 4.89334805 73 85 90
-0.12092183 -0.38467933 4.88411140 87 100 108
-0.58771889 -0.05585221 5.03275671 164 166 152
0.05020503 0.02073207 5.13844140 163 157 143
-0.27602955 -0.07999102 5.00196543 185 184 171
-0.27006109 -0.06933743 5.00735721 46 61 71
0.04689689 -0.11164235 5.10507317 51 67 80
0.04689689 -0.11164235 5.10507317 51 67 80
-0.06899081 -0.12274255 5.06216903 127 123 116
-0.25995305 -0.06376032 5.01383419 45 62 72
0.22281566 -0.19228463 5.16043393 53 59 66
-0.55099062 -0.20039013 4.96291757 173 180 173
-0.12335784 -0.36498567 4.89060109 62 75 84
-0.25778428 -0.34564721 4.87362149 66 83 93
-0.29090884 -0.34960636 4.86995935 71 88 99
-0.14369600 -0.36157243 4.88798658 62 75 84
-0.42747048 -0.32585770 4.88338617 70 89 103
-0.29090884 -0.34960636 4.86995935 71 88 99
-0.14560321 0.08641313 5.08577839 125 116 101
-0.18006357 -0.34165058 4.88786391 58 72 81
-0.42922081 -0.33987406 4.87855020 66 84 94
-0.09693191 0.20060781 5.14556799 176 169 150
0.12333040 -0.16495062 5.12364273 52 60 70
-0.35233214 -0.35614319 4.87922147 73 95 107
-0.06898378 -0.12141166 5.06666092 141 130 121
-0.10816187 -0.00087131 5.08136428 52 66 75
-0.10816187 -0.00087131 5.08136428 52 66 75
-0.16517737 -0.02748026 5.05815903 68 82 91
-0.29611825 -0.35469269 4.87772998 211 228 230
0.30774829 -0.13930226 5.25303108 56 65 74
-0.82282370 -0.04537490 5.15727920 111 134 150
0.08654641 0.14709583 5.18898615 152 140 124
0.10445780 0.16539304 5.20170006 75 84 94
-0.16955237 -0.39428893 4.87647680 179 170 147
0.15173883 -0.18673367 5.13699244 191 179 165
0.09974550 0.00649277 5.15647841 160 152 139
-0.23911930 -0.34705855 4.88085118 66 83 98
-0.12267837 -0.36431443 4.89473943 47 59 69
0.07610360 0.30625089 5.21841650 47 60 66
-0.51147744 0.40610004 5.20657713 99 118 129
-0.21448412 0.05908899 5.06448201 45 61 74
-0.54011598 0.40441804 5.20597857 104 123 134
-0.22021181 -0.06926598 5.02175045 53 69 78
-0.39457329 0.26613157 5.11789191 88 106 120
-0.54596309 1.27833639 5.62744504 175 173 161
-0.81159098 -0.52619105 5.41664275 175 132 77
-0.09886704 -0.52676429 5.19698318 165 116 57
-0.15711168 -0.08880853 5.02323080 49 59 65
-0.35017617 0.05959196 4.54318607 112 132 141
-0.39796782 0.08692034 4.56785875 160 186 201
-0.33692183 -0.29861548 4.89074669 50 69 83
-0.53254648 0.13415013 5.10023666 186 189 176
-0.29801848 -1.00760208 6.30268464 127 133 129
-0.04943234 0.35333343 5.18419464 171 164 147
0.09576702 0.32110798 5.22527116 164 152 136
-0.47470543 0.12523075 5.07541015 192 193 180
-0.08171004 0.36706676 5.18202105 176 168 149
0.01960991 0.33750736 5.20089148 173 166 148
-0.63577302 0.11029226 5.13951546 100 121 134
-0.25984291 0.10474753 5.05561049 162 157 138
0.13834045 0.28497806 5.23363304 69 78 83
0.23713488 -0.51845971 5.07512046 218 215 200
-0.60429337 0.12261578 5.12900041 173 178 170
-0.56229162 -0.03635561 5.05101272 94 115 125
-0.02238811 0.03838462 5.11217681 158 152 135
-0.35661376 1.38054722 5.58528150 73 79 77
-0.92382744 -0.36225028 5.11756051 99 118 127
0.18252343 -0.33458267 5.07689769 128 118 106
-0.28294504 1.39431433 5.56774725 71 77 75
-0.06184961 0.20931722 5.14697576 79 90 95
0.17854615 0.13354616 5.22804765 65 68 66
0.27637552 0.08053674 5.27972678 156 144 130
-0.22963567 0.53319380 5.22226123 173 167 151
-0.75513144 -0.94902893 6.23165063 130 131 129
0.03375608 0.55551896 5.31886247 184 201 197
-0.04593880 0.81024552 5.32280864 87 100 108
-0.41220086 0.26212803 5.13702185 175 177 167
0.25992933 0.22736273 5.28512817 60 69 73
-0.61195331 0.11646886 5.13342273 106 124 133
-0.25498916 -0.37714137 4.87541365 183 190 180
-0.20073594 -0.64635284 5.31632475 156 116 57
0.00532572 0.17263826 5.15751215 167 160 146
-0.51199072 -0.47867670 5.16988284 209 164 107
0.39414218 -0.59133279 5.20282655 180 189 188
-0.75717882 -0.77588446 6.17162865 166 131 93
-0.22293507 -0.46327141 5.15233123 193 150 95
0.05853495 1.55003019 5.08643434 206 212 200
-0.11292990 -0.56190436 5.22640923 147 99 41
-0.20087277 -0.55102729 5.20420506 184 139 82
-0.23197304 -0.57961144 5.23352656 156 111 54
-0.27463035 -0.47956916 5.16518179 191 146 89
-0.19388580 -0.54246297 5.22017836 138 90 32
0.04267098 -0.87831006 6.05685933 178 157 128
-0.13598249 -0.54057799 5.21701269 135 89 30
-0.20073594 -0.64635284 5.31632475 156 116 57
0.21725676 -0.47007758 5.03923954 57 70 79
0.15613766 -0.56345316 5.30655091 171 129 71
-0.20648811 -0.47252645 5.15995583 185 140 84
-0.11505750 -0.38714114 4.88828701 49 62 70
-0.30420113 -0.46515035 5.16042241 142 92 36
-0.05410387 -0.45953365 5.16689559 138 93 36
-0.20648811 -0.47252645 5.15995583 185 140 84
-0.26191839 -0.45067421 5.13196039 139 92 38
0.07092922 -0.52677548 5.23393742 152 106 48
-0.20648811 -0.47252645 5.15995583 185 140 84
-0.11806708 -0.50527827 5.18354977 190 145 88
0.67468902 1.40580814 5.29447330 187 188 172
-0.50461710 -0.48153925 5.17602269 173 128 69
-0.06859768 -0.49616517 5.17847803 193 151 96
0.15613766 -0.56345316 5.30655091 171 129 71
-0.43854376 -0.51777741 5.20240555 162 117 57
-0.02481675 -0.50900308 5.20199362 195 152 94
-1.03491663 -0.65882122 5.86031031 184 156 129
-0.21995592 -0.51308738 5.17396516 187 142 85
-0.02695032 -0.51732645 5.21206004 157 115 56
0.14792494 -0.54621477 5.28403104 171 129 71
-0.26138902 -0.51020028 5.18325510 146 100 44
-0.33531722 -0.46495830 5.15047694 186 139 85
-0.25979832 -0.49362931 5.17391584 187 142 87
0.14792494 -0.54621477 5.28403104 171 129 71
0.57138323 1.37068059 5.35554834 85 91 88
-0.26629350 -0.45237456 5.15067535 185 138 82
-0.22706983 -0.52386072 5.18161407 197 152 95
-0.27036959 -0.53168923 5.20887721 148 103 46
-0.31276292 -0.47706169 5.15236770 193 148 92
-0.35651190 -0.59389155 5.26114118 206 161 102
-0.01999582 -0.48759227 5.18355818 150 104 45
-0.27036959 -0.53168923 5.20887721 148 103 46
0.02354541 -0.51459763 5.22292907 201 156 99
-0.05573879 -0.45354629 5.14946667 197 155 101
-0.37076280 -0.45835079 5.15217873 152 104 48
0.01142375 -0.62110330 5.30823969 214 174 116
-0.30420113 -0.46515035 5.16042241 142 92 36
0.62941204 1.43407507 5.28462069 86 88 83
-0.47380798 -0.47702664 5.17081790 204 159 100
-0.33531722 -0.46495830 5.15047694 186 139 85
-0.26138902 -0.51020028 5.18325510 146 100 44
-0.43802312 -1.31125791 11.49308379 114 102 90
-0.37057108 -0.46893928 5.14326297 200 153 97
-0.00219127 -0.51325115 5.20483703 209 164 105
-0.03860966 -0.46596217 5.17069337 213 168 111
-0.31229895 -0.53476494 5.19514257 192 147 90
-0.03102519 -0.49288286 5.17927502 189 144 87
0.07423042 0.30881803 5.22905119 47 57 64
-0.19889572 0.23751784 5.12979949 40 53 64
-0.06399852 -0.41300635 4.89640385 173 167 147
2.40942799 -1.88190107 10.87880168 63 60 57
0.00854373 -0.42899433 4.85038707 186 180 164
0.00469440 1.56145114 5.00669753 139 144 140
0.61553772 1.41270645 5.49207809 95 78 62
0.05902551 0.33475480 5.23740876 187 177 158
-0.45781043 -0.06170539 5.01528576 206 205 187
0.10225717 0.00513892 5.16824255 151 143 127
-0.67747472 0.10124814 5.14429299 78 103 117
0.46502112 0.64599296 5.53623258 110 128 143
0.43824214 1.22529911 5.43232599 80 100 107
-0.41366542 0.68710411 5.30035763 106 124 136
-0.44427723 0.42515300 5.19387861 173 173 162
-0.15700214 -0.25604348 4.96279598 79 88 94
-0.22438233 -0.42598019 5.44469050 242 236 217
-0.28948757 -0.46118639 5.14042958 208 159 101
-0.01036195 1.58708715 5.05256382 129 135 131
0.18583206 -0.49602825 5.04314934 163 159 140
-0.55677690 -0.03532424 5.03609050 98 120 132
-0.33403839 0.69791148 5.33454153 96 113 123
0.05941331 0.33597904 5.22916175 172 163 146
0.22943404 0.11118455 5.27148803 157 149 135
0.11157113 -0.16920901 5.13614537 148 147 136
-0.00223882 -0.42639599 4.93726819 185 181 164
0.60970505 1.11797991 6.05330208 99 83 72
0.75918599 1.30604267 5.82392163 149 114 95
0.50732385 0.50608179 5.68687581 187 193 189
-0.30113568 1.14778874 5.46540719 96 113 123
-0.82128761 -0.05048004 5.14955418 74 99 115
0.13568416 0.13577556 5.21813084 207 195 179
-0.72563357 -0.06137026 5.10069626 181 183 167
-0.16788583 1.25146434 5.47390940 102 116 125
-0.36262018 0.89660081 5.71889285 192 187 175
-0.55734523 0.84293318 5.42864502 108 124 131
-0.55342338 -0.46368959 6.20746507 186 189 178
-0.16143542 -0.38925141 4.87421261 194 190 169
-0.70437066 0.79593886 5.52202891 196 196 186
-0.02209638 0.33771420 5.21874724 86 99 107
-0.76709261 -0.22384905 5.03073858 86 113 130
-0.22005834 0.84045722 5.34174761 93 110 118
-0.40314350 0.98598977 5.43719711 90 104 112
0.14297848 1.37419572 5.51903707 115 80 56
-0.30571512 0.92064328 5.90345003 171 176 169
-0.27836361 0.93779657 6.02320091 106 118 123
-0.15279011 0.66523972 5.28569525 86 102 112
-0.81133774 -0.37441617 4.99820747 201 200 180
-0.18537960 0.67760343 5.33602588 103 120 130
0.42899615 0.68087726 5.55071625 95 104 111
0.41579020 0.72037290 5.55155771 103 114 122
-0.12803407 -0.51185253 5.17005797 158 107 49
0.00275152 1.57988930 5.08596767 137 143 139
-0.36658783 0.41247060 5.18459022 189 190 174
-0.41653250 0.11792791 5.06102518 184 184 171
-0.79685952 -0.20192051 5.07337286 200 203 191
-0.52633722 0.12698139 5.10117599 177 174 161
-0.04329598 0.36290203 5.19617811 179 169 144
-0.86998951 0.36313574 5.34070390 87 105 117
-0.02139197 1.11178467 5.42067775 96 107 111
-0.63609748 0.27063750 5.16962835 97 117 128
-0.44869060 0.27248869 5.14663843 114 131 141
0.16030768 0.30230517 5.25856754 168 157 137
-0.10439097 0.36721473 5.18831265 177 169 151
0.06080840 -0.44247820 4.95532076 202 196 181
-0.74429947 -0.36398207 4.99810298 199 202 183
-0.87202112 -0.21144831 5.16238065 185 182 167
-0.11230389 0.05701368 5.09198804 170 163 146
-0.36574584 1.39305443 5.61159904 79 81 76
0.29864895 0.48659425 5.42994556 84 91 93
0.29083833 0.48258065 5.41335750 84 91 93
0.31289857 -0.11693701 5.33533029 75 80 84
-1.26715508 -0.49220136 5.37450489 106 116 118
-0.02251636 1.50728087 5.55446968 46 56 57
0.39543206 0.63413930 5.47559023 162 155 141
0.40165019 -0.39229558 5.26689933 157 160 159
0.73233100 2.59064593 5.45127470 127 128 120
1.03652924 1.34331916 5.01082970 147 136 118
0.93096202 2.38839034 5.31030629 202 239 246
-0.72375990 -0.35546524 5.04575556 100 123 137
-0.20907651 0.61041637 5.32518090 48 65 75
0.02720477 -0.29133523 5.01538184 67 67 65
-0.79031338 0.24936876 5.26728551 94 110 115
-0.40342009 -0.21016695 4.94156696 77 88 96
-0.01450129 1.10996334 5.44765936 81 98 108
-0.67902139 0.53653102 5.34842866 184 186 175
-0.69390040 -0.35435410 4.94253063 203 206 197
-0.47415982 -0.35773745 4.87825473 208 210 198
-0.02224092 0.03885451 5.11505860 165 157 139
-0.46870072 0.26142398 5.14637647 216 221 211
-0.32281660 1.28966000 5.92456295 91 106 112
-0.46870072 0.26142398 5.14637647 216 221 211
-0.53331790 -0.32037134 4.89854030 56 81 95
0.05913465 0.33274213 5.22637174 190 179 162
-0.64782802 0.81427342 6.05874021 182 186 182
0.06177050 -0.44756600 4.94764479 200 194 178
-0.02628577 0.33596242 5.20146061 102 116 123
-0.02733021 -0.42191456 4.90421305 212 205 183
-0.83382264 0.37619435 5.36400600 91 109 119
-0.19362145 0.52362184 5.21898418 170 162 143
0.06610909 0.01413161 5.14133082 160 151 134
-0.08312649 0.36452525 5.19037388 180 169 149
0.14137943 0.55643048 5.32868458 85 98 104
-1.02714255 -0.37709892 5.21748836 84 102 113
-0.09763469 0.05456560 5.09581347 199 190 172
0.16002363 0.58258747 5.33193638 90 98 99
0.06287510 1.08659097 5.43242900 99 110 116
-0.69855662 -0.34143225 4.98031312 111 131 146
-0.31152760 1.00954057 5.42184212 184 179 160
-0.57684803 1.24777768 5.71887322 94 112 122
-0.45266935 1.15513023 5.58427423 86 104 114
-0.45320089 0.98363727 5.48939317 103 122 129
-0.03684516 0.81665839 5.37379674 89 102 110
-0.20590460 1.14823897 5.44996675 98 111 118
-0.69041245 0.09116823 5.20021130 66 89 103
-1.15642822 -0.17838133 5.63500493 91 109 116
-1.09496130 0.12140953 5.67987481 173 173 160
-1.16102229 -0.19481041 5.63319707 178 180 163
0.01572868 1.09206824 5.46187147 192 181 161
-0.92230662 -0.38766444 5.12893375 191 188 171
0.58736102 2.01947393 5.20797393 132 128 119
-0.90252241 -0.86332288 6.17053724 130 112 100
-1.09069312 0.25195109 5.78323966 100 114 123
-1.11930658 -0.29786687 5.48680943 179 182 170
0.12255416 -0.30734395 5.02397276 149 137 124
-0.07452319 0.34725526 5.19562822 71 79 85
0.08927495 0.31910683 5.22414018 178 165 148
0.16052138 -0.02685676 5.14178165 76 80 85
-0.94609403 0.06104525 5.37287918 105 127 140
0.07956822 -0.29013796 5.01436546 153 137 122
-0.27517801 1.26202343 5.54218458 91 105 114
0.52931769 1.53711784 4.71042415 215 204 176
8.28484598 -6.05381381 15.94574695 90 112 136
0.44451686 0.63758506 5.53848713 24 37 39
-0.80810236 0.38488940 5.40534794 87 103 111
-0.14376080 0.37530615 5.18212637 217 205 184
-0.60589932 1.13527674 5.65627849 84 102 112
0.14343603 2.06063065 5.12898793 47 54 54
0.32980262 0.23854538 5.34696927 175 163 151
-0.03988345 1.84016269 5.00216659 77 89 89
-0.26465793 1.41723127 5.67268517 66 70 69
-0.90706373 -0.37670836 5.10503320 201 206 195
-0.75701721 -0.35923236 4.99288188 212 212 200
-0.01522768 0.59955621 5.30315889 19 24 28
0.31024295 0.79282835 5.47108151 105 113 116
-1.20093348 -0.47461654 5.50642241 100 111 114
0.19111336 1.36612518 5.51857362 132 94 67
-1.17419077 -0.34469290 5.57244210 90 107 115
-0.04764430 1.37585973 5.62639380 147 137 121
-0.84361668 0.24519804 5.35825419 78 95 106
0.61876877 1.63362808 4.76211729 107 102 87
0.04529335 1.92762432 5.04783125 76 88 88
-0.17341228 2.01798154 5.42163856 164 179 176
0.33174300 0.83657553 5.50300230 104 111 115
0.30922724 0.10108149 5.29278412 79 86 92
-0.19039690 -0.46855423 4.96461428 198 146 86
0.27434714 0.77918414 5.44475654 100 108 111
-0.11709290 -0.32339454 4.89069023 54 61 69
0.48020734 0.18290092 5.50230480 186 190 189
0.10353579 1.95236422 5.03194982 160 162 148
0.26904014 1.56215232 5.13358766 216 219 202
-0.12955040 -0.10597959 5.08343689 104 101 93
8.53129114 -5.76816605 16.66124019 55 67 79
-1.02853433 0.20626618 5.56735403 66 85 99
7.17587828 -3.75245354 15.18063635 79 99 124
0.34639985 0.05187596 5.31303428 172 160 146
-0.14937605 0.08594196 5.08145241 137 126 106
0.48017405 1.20276419 5.81124560 45 35 29
0.24971707 0.19738541 5.34398117 101 108 114
0.27721052 -0.18007876 5.17235641 73 80 88
0.26904012 1.56215231 5.13358762 216 219 202
0.05788627 -0.15382330 5.07138521 176 168 158
0.24971706 0.19738541 5.34398115 101 108 114
0.00633444 1.74489584 5.06212351 139 148 143
0.35901168 0.75461193 5.51003800 111 120 127
