ply
format ascii 1.0
element vertex 10
property float x
property float y
property float z
property uchar red
property uchar green
property uchar blue
element face 12
property list uchar int vertex_indices
end_header
0.00000000 0.00000000 0.00000000 88 166 255
-0.06000000 -0.04200000 0.12000000 88 166 255
0.06000000 -0.04200000 0.12000000 88 166 255
0.06000000 0.04200000 0.12000000 88 166 255
-0.06000000 0.04200000 0.12000000 88 166 255
0.99714530 -0.07229162 0.02179835 255 123 114
0.91544126 -0.10831398 0.13038397 255 123 114
1.03342021 -0.11989808 0.14900588 255 123 114
1.04142876 -0.03629039 0.15027748 255 123 114
0.92344981 -0.02470629 0.13165557 255 123 114
3 0 1 2
3 0 2 3
3 0 3 4
3 0 4 1
3 1 2 3
3 1 3 4
3 5 6 7
3 5 7 8
3 5 8 9
3 5 9 6
3 6 7 8
3 6 8 9
