ply
format ascii 1.0
element vertex 53
property float x
property float y
property float z
property uchar red
property uchar green
property uchar blue
end_header
-1.80072550 1.67759022 15.15242542 11 18 22
-1.80072550 1.67759022 15.15242542 11 18 22
-2.04084930 1.35425631 15.03124546 174 161 142
-0.48116485 1.80969230 15.85144546 215 226 228
-1.51113593 1.68553370 15.27377246 16 24 30
-0.48116485 1.80969230 15.85144546 215 226 228
-1.51113593 1.68553370 15.27377246 16 24 30
-0.18284442 -0.57636011 15.40583831 230 240 241
-1.05812296 1.10459340 15.43581607 12 14 17
-1.75497003 -1.05454187 14.61441049 189 140 84
-2.29192549 -0.26424581 14.82120500 89 86 82
-1.34188500 3.89383077 16.28064237 115 110 106
-1.09335646 -1.22403112 14.65794353 223 184 132
-0.07632902 1.71077593 15.84782853 214 229 232
-0.83124494 1.30869655 15.56539612 207 213 211
-2.45142395 5.26597368 16.05695476 148 163 166
-1.05812296 1.10459340 15.43581607 12 14 17
-0.33753952 1.51039475 15.63229007 150 199 237
-0.10548369 1.11967101 15.53030622 226 236 238
-1.24285345 1.37297792 15.47681515 210 213 204
-0.08583871 0.53905110 15.52601993 223 233 234
-2.38113127 1.27452419 14.73120500 162 145 125
0.14780759 -0.97358427 15.44080962 152 138 129
-1.07769949 3.81211055 16.68883753 208 217 216
0.45782684 0.10787521 15.60569832 126 130 131
-0.13985447 -0.01183199 15.44427005 229 239 240
-2.90151155 3.13953637 15.28373292 232 242 243
-0.44649924 -1.23623189 14.44146348 150 138 124
-0.13713676 -1.10216018 15.11382976 241 246 243
-2.90151155 3.13953637 15.28373292 232 242 243
-0.24242634 -1.31720244 15.13058136 153 139 129
-1.82258047 3.17187803 15.87966856 203 203 190
-3.24016585 2.35785515 14.47544624 93 86 78
-2.12223518 2.73657046 15.26764544 146 108 85
0.30561148 2.13060270 15.80811604 100 107 115
-2.55770910 -0.98557787 14.23777109 218 214 203
-0.52548533 -0.55408127 15.12956799 220 230 229
0.09441006 -0.40962207 15.46633135 103 106 100
-0.48890459 -1.12399976 14.77555426 196 166 132
-0.00046843 2.10323617 15.65446230 203 222 232
-1.58310811 2.81836064 15.87983107 76 79 75
0.17255859 1.56795577 15.48317279 222 236 245
-2.12089206 3.06109785 15.66167484 172 175 173
-2.46289856 -0.95084926 14.46699715 194 156 109
-1.42983556 1.52533618 15.35671107 189 190 180
-0.98752053 4.70037372 16.73322310 143 157 170
-2.12089206 3.06109785 15.66167484 172 175 173
0.17255859 1.56795577 15.48317279 222 236 245
-1.64032603 1.66559965 14.93049071 105 123 135
-0.75181377 2.71541289 16.04071826 81 102 119
-1.78926188 2.67780635 14.97652910 39 34 29
-2.16301347 3.12860243 15.78611317 110 99 93
-1.19641410 1.08365578 15.04792000 97 135 161
