ply
format ascii 1.0
element vertex 437
property float x
property float y
property float z
property uchar red
property uchar green
property uchar blue
end_header
-1.80072550 1.67759022 15.15242542 11 18 22
-1.80072550 1.67759022 15.15242542 11 18 22
-2.04084930 1.35425631 15.03124546 174 161 142
-0.48116485 1.80969230 15.85144546 215 226 228
-1.51113593 1.68553370 15.27377246 16 24 30
-0.48116485 1.80969230 15.85144546 215 226 228
-1.51113593 1.68553370 15.27377246 16 24 30
-0.18284442 -0.57636011 15.40583831 230 240 241
-1.05812296 1.10459340 15.43581607 12 14 17
-1.75497003 -1.05454187 14.61441049 189 140 84
-2.29192549 -0.26424581 14.82120500 89 86 82
-1.34188500 3.89383077 16.28064237 115 110 106
-1.09335646 -1.22403112 14.65794353 223 184 132
-0.07632902 1.71077593 15.84782853 214 229 232
-0.83124494 1.30869655 15.56539612 207 213 211
-2.45142395 5.26597368 16.05695476 148 163 166
-1.05812296 1.10459340 15.43581607 12 14 17
-0.33753952 1.51039475 15.63229007 150 199 237
-0.10548369 1.11967101 15.53030622 226 236 238
-1.24285345 1.37297792 15.47681515 210 213 204
-0.08583871 0.53905110 15.52601993 223 233 234
-2.38113127 1.27452419 14.73120500 162 145 125
0.14780759 -0.97358427 15.44080962 152 138 129
-1.07769949 3.81211055 16.68883753 208 217 216
0.45782684 0.10787521 15.60569832 126 130 131
-0.13985447 -0.01183199 15.44427005 229 239 240
-2.90151155 3.13953637 15.28373292 232 242 243
-0.44649924 -1.23623189 14.44146348 150 138 124
-0.13713676 -1.10216018 15.11382976 241 246 243
-2.90151155 3.13953637 15.28373292 232 242 243
-0.24242634 -1.31720244 15.13058136 153 139 129
-1.82258047 3.17187803 15.87966856 203 203 190
-3.24016585 2.35785515 14.47544624 93 86 78
-2.12223518 2.73657046 15.26764544 146 108 85
0.30561148 2.13060270 15.80811604 100 107 115
-2.55770910 -0.98557787 14.23777109 218 214 203
-0.52548533 -0.55408127 15.12956799 220 230 229
0.09441006 -0.40962207 15.46633135 103 106 100
-0.48890459 -1.12399976 14.77555426 196 166 132
-0.00046843 2.10323617 15.65446230 203 222 232
-1.58310811 2.81836064 15.87983107 76 79 75
0.17255859 1.56795577 15.48317279 222 236 245
-2.12089206 3.06109785 15.66167484 172 175 173
-2.46289856 -0.95084926 14.46699715 194 156 109
-1.42983556 1.52533618 15.35671107 189 190 180
-0.98752053 4.70037372 16.73322310 143 157 170
-2.12089206 3.06109785 15.66167484 172 175 173
0.17255859 1.56795577 15.48317279 222 236 245
-1.64032603 1.66559965 14.93049071 105 123 135
-0.75181377 2.71541289 16.04071826 81 102 119
-1.78926188 2.67780635 14.97652910 39 34 29
-2.16301347 3.12860243 15.78611317 110 99 93
-1.19641410 1.08365578 15.04792000 97 135 161
0.00000000 0.00000000 0.00000000 88 166 255
-0.00260870 -0.00182609 0.00521739 88 166 255
-0.00521739 -0.00365217 0.01043478 88 166 255
-0.00782609 -0.00547826 0.01565217 88 166 255
-0.01043478 -0.00730435 0.02086957 88 166 255
-0.01304348 -0.00913043 0.02608696 88 166 255
-0.01565217 -0.01095652 0.03130435 88 166 255
-0.01826087 -0.01278261 0.03652174 88 166 255
-0.02086957 -0.01460870 0.04173913 88 166 255
-0.02347826 -0.01643478 0.04695652 88 166 255
-0.02608696 -0.01826087 0.05217391 88 166 255
-0.02869565 -0.02008696 0.05739130 88 166 255
-0.03130435 -0.02191304 0.06260870 88 166 255
-0.03391304 -0.02373913 0.06782609 88 166 255
-0.03652174 -0.02556522 0.07304348 88 166 255
-0.03913043 -0.02739130 0.07826087 88 166 255
-0.04173913 -0.02921739 0.08347826 88 166 255
-0.04434783 -0.03104348 0.08869565 88 166 255
-0.04695652 -0.03286957 0.09391304 88 166 255
-0.04956522 -0.03469565 0.09913043 88 166 255
-0.05217391 -0.03652174 0.10434783 88 166 255
-0.05478261 -0.03834783 0.10956522 88 166 255
-0.05739130 -0.04017391 0.11478261 88 166 255
-0.06000000 -0.04200000 0.12000000 88 166 255
0.00000000 0.00000000 0.00000000 88 166 255
0.00260870 -0.00182609 0.00521739 88 166 255
0.00521739 -0.00365217 0.01043478 88 166 255
0.00782609 -0.00547826 0.01565217 88 166 255
0.01043478 -0.00730435 0.02086957 88 166 255
0.01304348 -0.00913043 0.02608696 88 166 255
0.01565217 -0.01095652 0.03130435 88 166 255
0.01826087 -0.01278261 0.03652174 88 166 255
0.02086957 -0.01460870 0.04173913 88 166 255
0.02347826 -0.01643478 0.04695652 88 166 255
0.02608696 -0.01826087 0.05217391 88 166 255
0.02869565 -0.02008696 0.05739130 88 166 255
0.03130435 -0.02191304 0.06260870 88 166 255
0.03391304 -0.02373913 0.06782609 88 166 255
0.03652174 -0.02556522 0.07304348 88 166 255
0.03913043 -0.02739130 0.07826087 88 166 255
0.04173913 -0.02921739 0.08347826 88 166 255
0.04434783 -0.03104348 0.08869565 88 166 255
0.04695652 -0.03286957 0.09391304 88 166 255
0.04956522 -0.03469565 0.09913043 88 166 255
0.05217391 -0.03652174 0.10434783 88 166 255
0.05478261 -0.03834783 0.10956522 88 166 255
0.05739130 -0.04017391 0.11478261 88 166 255
0.06000000 -0.04200000 0.12000000 88 166 255
0.00000000 0.00000000 0.00000000 88 166 255
0.00260870 0.00182609 0.00521739 88 166 255
0.00521739 0.00365217 0.01043478 88 166 255
0.00782609 0.00547826 0.01565217 88 166 255
0.01043478 0.00730435 0.02086957 88 166 255
0.01304348 0.00913043 0.02608696 88 166 255
0.01565217 0.01095652 0.03130435 88 166 255
0.01826087 0.01278261 0.03652174 88 166 255
0.02086957 0.01460870 0.04173913 88 166 255
0.02347826 0.01643478 0.04695652 88 166 255
0.02608696 0.01826087 0.05217391 88 166 255
0.02869565 0.02008696 0.05739130 88 166 255
0.03130435 0.02191304 0.06260870 88 166 255
0.03391304 0.02373913 0.06782609 88 166 255
0.03652174 0.02556522 0.07304348 88 166 255
0.03913043 0.02739130 0.07826087 88 166 255
0.04173913 0.02921739 0.08347826 88 166 255
0.04434783 0.03104348 0.08869565 88 166 255
0.04695652 0.03286957 0.09391304 88 166 255
0.04956522 0.03469565 0.09913043 88 166 255
0.05217391 0.03652174 0.10434783 88 166 255
0.05478261 0.03834783 0.10956522 88 166 255
0.05739130 0.04017391 0.11478261 88 166 255
0.06000000 0.04200000 0.12000000 88 166 255
0.00000000 0.00000000 0.00000000 88 166 255
-0.00260870 0.00182609 0.00521739 88 166 255
-0.00521739 0.00365217 0.01043478 88 166 255
-0.00782609 0.00547826 0.01565217 88 166 255
-0.01043478 0.00730435 0.02086957 88 166 255
-0.01304348 0.00913043 0.02608696 88 166 255
-0.01565217 0.01095652 0.03130435 88 166 255
-0.01826087 0.01278261 0.03652174 88 166 255
-0.02086957 0.01460870 0.04173913 88 166 255
-0.02347826 0.01643478 0.04695652 88 166 255
-0.02608696 0.01826087 0.05217391 88 166 255
-0.02869565 0.02008696 0.05739130 88 166 255
-0.03130435 0.02191304 0.06260870 88 166 255
-0.03391304 0.02373913 0.06782609 88 166 255
-0.03652174 0.02556522 0.07304348 88 166 255
-0.03913043 0.02739130 0.07826087 88 166 255
-0.04173913 0.02921739 0.08347826 88 166 255
-0.04434783 0.03104348 0.08869565 88 166 255
-0.04695652 0.03286957 0.09391304 88 166 255
-0.04956522 0.03469565 0.09913043 88 166 255
-0.05217391 0.03652174 0.10434783 88 166 255
-0.05478261 0.03834783 0.10956522 88 166 255
-0.05739130 0.04017391 0.11478261 88 166 255
-0.06000000 0.04200000 0.12000000 88 166 255
-0.06000000 -0.04200000 0.12000000 88 166 255
-0.05478261 -0.04200000 0.12000000 88 166 255
-0.04956522 -0.04200000 0.12000000 88 166 255
-0.04434783 -0.04200000 0.12000000 88 166 255
-0.03913043 -0.04200000 0.12000000 88 166 255
-0.03391304 -0.04200000 0.12000000 88 166 255
-0.02869565 -0.04200000 0.12000000 88 166 255
-0.02347826 -0.04200000 0.12000000 88 166 255
-0.01826087 -0.04200000 0.12000000 88 166 255
-0.01304348 -0.04200000 0.12000000 88 166 255
-0.00782609 -0.04200000 0.12000000 88 166 255
-0.00260870 -0.04200000 0.12000000 88 166 255
0.00260870 -0.04200000 0.12000000 88 166 255
0.00782609 -0.04200000 0.12000000 88 166 255
0.01304348 -0.04200000 0.12000000 88 166 255
0.01826087 -0.04200000 0.12000000 88 166 255
0.02347826 -0.04200000 0.12000000 88 166 255
0.02869565 -0.04200000 0.12000000 88 166 255
0.03391304 -0.04200000 0.12000000 88 166 255
0.03913043 -0.04200000 0.12000000 88 166 255
0.04434783 -0.04200000 0.12000000 88 166 255
0.04956522 -0.04200000 0.12000000 88 166 255
0.05478261 -0.04200000 0.12000000 88 166 255
0.06000000 -0.04200000 0.12000000 88 166 255
0.06000000 -0.04200000 0.12000000 88 166 255
0.06000000 -0.03834783 0.12000000 88 166 255
0.06000000 -0.03469565 0.12000000 88 166 255
0.06000000 -0.03104348 0.12000000 88 166 255
0.06000000 -0.02739130 0.12000000 88 166 255
0.06000000 -0.02373913 0.12000000 88 166 255
0.06000000 -0.02008696 0.12000000 88 166 255
0.06000000 -0.01643478 0.12000000 88 166 255
0.06000000 -0.01278261 0.12000000 88 166 255
0.06000000 -0.00913043 0.12000000 88 166 255
0.06000000 -0.00547826 0.12000000 88 166 255
0.06000000 -0.00182609 0.12000000 88 166 255
0.06000000 0.00182609 0.12000000 88 166 255
0.06000000 0.00547826 0.12000000 88 166 255
0.06000000 0.00913043 0.12000000 88 166 255
0.06000000 0.01278261 0.12000000 88 166 255
0.06000000 0.01643478 0.12000000 88 166 255
0.06000000 0.02008696 0.12000000 88 166 255
0.06000000 0.02373913 0.12000000 88 166 255
0.06000000 0.02739130 0.12000000 88 166 255
0.06000000 0.03104348 0.12000000 88 166 255
0.06000000 0.03469565 0.12000000 88 166 255
0.06000000 0.03834783 0.12000000 88 166 255
0.06000000 0.04200000 0.12000000 88 166 255
0.06000000 0.04200000 0.12000000 88 166 255
0.05478261 0.04200000 0.12000000 88 166 255
0.04956522 0.04200000 0.12000000 88 166 255
0.04434783 0.04200000 0.12000000 88 166 255
0.03913043 0.04200000 0.12000000 88 166 255
0.03391304 0.04200000 0.12000000 88 166 255
0.02869565 0.04200000 0.12000000 88 166 255
0.02347826 0.04200000 0.12000000 88 166 255
0.01826087 0.04200000 0.12000000 88 166 255
0.01304348 0.04200000 0.12000000 88 166 255
0.00782609 0.04200000 0.12000000 88 166 255
0.00260870 0.04200000 0.12000000 88 166 255
-0.00260870 0.04200000 0.12000000 88 166 255
-0.00782609 0.04200000 0.12000000 88 166 255
-0.01304348 0.04200000 0.12000000 88 166 255
-0.01826087 0.04200000 0.12000000 88 166 255
-0.02347826 0.04200000 0.12000000 88 166 255
-0.02869565 0.04200000 0.12000000 88 166 255
-0.03391304 0.04200000 0.12000000 88 166 255
-0.03913043 0.04200000 0.12000000 88 166 255
-0.04434783 0.04200000 0.12000000 88 166 255
-0.04956522 0.04200000 0.12000000 88 166 255
-0.05478261 0.04200000 0.12000000 88 166 255
-0.06000000 0.04200000 0.12000000 88 166 255
-0.06000000 0.04200000 0.12000000 88 166 255
-0.06000000 0.03834783 0.12000000 88 166 255
-0.06000000 0.03469565 0.12000000 88 166 255
-0.06000000 0.03104348 0.12000000 88 166 255
-0.06000000 0.02739130 0.12000000 88 166 255
-0.06000000 0.02373913 0.12000000 88 166 255
-0.06000000 0.02008696 0.12000000 88 166 255
-0.06000000 0.01643478 0.12000000 88 166 255
-0.06000000 0.01278261 0.12000000 88 166 255
-0.06000000 0.00913043 0.12000000 88 166 255
-0.06000000 0.00547826 0.12000000 88 166 255
-0.06000000 0.00182609 0.12000000 88 166 255
-0.06000000 -0.00182609 0.12000000 88 166 255
-0.06000000 -0.00547826 0.12000000 88 166 255
-0.06000000 -0.00913043 0.12000000 88 166 255
-0.06000000 -0.01278261 0.12000000 88 166 255
-0.06000000 -0.01643478 0.12000000 88 166 255
-0.06000000 -0.02008696 0.12000000 88 166 255
-0.06000000 -0.02373913 0.12000000 88 166 255
-0.06000000 -0.02739130 0.12000000 88 166 255
-0.06000000 -0.03104348 0.12000000 88 166 255
-0.06000000 -0.03469565 0.12000000 88 166 255
-0.06000000 -0.03834783 0.12000000 88 166 255
-0.06000000 -0.04200000 0.12000000 88 166 255
0.99714530 -0.07229162 0.02179835 255 123 114
0.99359295 -0.07385781 0.02651946 255 123 114
0.99004060 -0.07542400 0.03124058 255 123 114
0.98648825 -0.07699019 0.03596169 255 123 114
0.98293590 -0.07855638 0.04068280 255 123 114
0.97938355 -0.08012257 0.04540392 255 123 114
0.97583120 -0.08168876 0.05012503 255 123 114
0.97227885 -0.08325494 0.05484615 255 123 114
0.96872650 -0.08482113 0.05956726 255 123 114
0.96517415 -0.08638732 0.06428838 255 123 114
0.96162180 -0.08795351 0.06900949 255 123 114
0.95806945 -0.08951970 0.07373060 255 123 114
0.95451710 -0.09108589 0.07845172 255 123 114
0.95096475 -0.09265208 0.08317283 255 123 114
0.94741240 -0.09421827 0.08789395 255 123 114
0.94386005 -0.09578446 0.09261506 255 123 114
0.94030771 -0.09735065 0.09733617 255 123 114
0.93675536 -0.09891684 0.10205729 255 123 114
0.93320301 -0.10048303 0.10677840 255 123 114
0.92965066 -0.10204922 0.11149952 255 123 114
0.92609831 -0.10361541 0.11622063 255 123 114
0.92254596 -0.10518160 0.12094175 255 123 114
0.91899361 -0.10674779 0.12566286 255 123 114
0.91544126 -0.10831398 0.13038397 255 123 114
0.99714530 -0.07229162 0.02179835 255 123 114
0.99872247 -0.07436146 0.02732911 255 123 114
1.00029964 -0.07643131 0.03285987 255 123 114
1.00187681 -0.07850116 0.03839063 255 123 114
1.00345398 -0.08057100 0.04392140 255 123 114
1.00503115 -0.08264085 0.04945216 255 123 114
1.00660832 -0.08471070 0.05498292 255 123 114
1.00818549 -0.08678054 0.06051368 255 123 114
1.00976266 -0.08885039 0.06604444 255 123 114
1.01133983 -0.09092023 0.07157521 255 123 114
1.01291700 -0.09299008 0.07710597 255 123 114
1.01449417 -0.09505993 0.08263673 255 123 114
1.01607134 -0.09712977 0.08816749 255 123 114
1.01764851 -0.09919962 0.09369826 255 123 114
1.01922568 -0.10126947 0.09922902 255 123 114
1.02080285 -0.10333931 0.10475978 255 123 114
1.02238002 -0.10540916 0.11029054 255 123 114
1.02395719 -0.10747900 0.11582130 255 123 114
1.02553436 -0.10954885 0.12135207 255 123 114
1.02711153 -0.11161870 0.12688283 255 123 114
1.02868870 -0.11368854 0.13241359 255 123 114
1.03026587 -0.11575839 0.13794435 255 123 114
1.03184304 -0.11782824 0.14347512 255 123 114
1.03342021 -0.11989808 0.14900588 255 123 114
0.99714530 -0.07229162 0.02179835 255 123 114
0.99907067 -0.07072635 0.02738440 255 123 114
1.00099604 -0.06916108 0.03297045 255 123 114
1.00292141 -0.06759581 0.03855649 255 123 114
1.00484677 -0.06603053 0.04414254 255 123 114
1.00677214 -0.06446526 0.04972859 255 123 114
1.00869751 -0.06289999 0.05531464 255 123 114
1.01062288 -0.06133472 0.06090069 255 123 114
1.01254824 -0.05976945 0.06648674 255 123 114
1.01447361 -0.05820418 0.07207279 255 123 114
1.01639898 -0.05663891 0.07765884 255 123 114
1.01832435 -0.05507364 0.08324489 255 123 114
1.02024972 -0.05350837 0.08883094 255 123 114
1.02217508 -0.05194310 0.09441699 255 123 114
1.02410045 -0.05037783 0.10000304 255 123 114
1.02602582 -0.04881256 0.10558908 255 123 114
1.02795119 -0.04724729 0.11117513 255 123 114
1.02987655 -0.04568201 0.11676118 255 123 114
1.03180192 -0.04411674 0.12234723 255 123 114
1.03372729 -0.04255147 0.12793328 255 123 114
1.03565266 -0.04098620 0.13351933 255 123 114
1.03757803 -0.03942093 0.13910538 255 123 114
1.03950339 -0.03785566 0.14469143 255 123 114
1.04142876 -0.03629039 0.15027748 255 123 114
0.99714530 -0.07229162 0.02179835 255 123 114
0.99394115 -0.07022269 0.02657475 255 123 114
0.99073700 -0.06815376 0.03135115 255 123 114
0.98753285 -0.06608484 0.03612755 255 123 114
0.98432869 -0.06401591 0.04090395 255 123 114
0.98112454 -0.06194698 0.04568035 255 123 114
0.97792039 -0.05987805 0.05045675 255 123 114
0.97471624 -0.05780913 0.05523316 255 123 114
0.97151209 -0.05574020 0.06000956 255 123 114
0.96830794 -0.05367127 0.06478596 255 123 114
0.96510378 -0.05160234 0.06956236 255 123 114
0.96189963 -0.04953342 0.07433876 255 123 114
0.95869548 -0.04746449 0.07911516 255 123 114
0.95549133 -0.04539556 0.08389156 255 123 114
0.95228718 -0.04332663 0.08866796 255 123 114
0.94908302 -0.04125771 0.09344436 255 123 114
0.94587887 -0.03918878 0.09822077 255 123 114
0.94267472 -0.03711985 0.10299717 255 123 114
0.93947057 -0.03505092 0.10777357 255 123 114
0.93626642 -0.03298200 0.11254997 255 123 114
0.93306226 -0.03091307 0.11732637 255 123 114
0.92985811 -0.02884414 0.12210277 255 123 114
0.92665396 -0.02677521 0.12687917 255 123 114
0.92344981 -0.02470629 0.13165557 255 123 114
0.91544126 -0.10831398 0.13038397 255 123 114
0.92057078 -0.10881763 0.13119362 255 123 114
0.92570030 -0.10932129 0.13200327 255 123 114
0.93082982 -0.10982495 0.13281292 255 123 114
0.93595933 -0.11032860 0.13362257 255 123 114
0.94108885 -0.11083226 0.13443221 255 123 114
0.94621837 -0.11133592 0.13524186 255 123 114
0.95134789 -0.11183957 0.13605151 255 123 114
0.95647741 -0.11234323 0.13686116 255 123 114
0.96160693 -0.11284689 0.13767081 255 123 114
0.96673645 -0.11335054 0.13848045 255 123 114
0.97186597 -0.11385420 0.13929010 255 123 114
0.97699549 -0.11435786 0.14009975 255 123 114
0.98212501 -0.11486151 0.14090940 255 123 114
0.98725453 -0.11536517 0.14171905 255 123 114
0.99238405 -0.11586883 0.14252869 255 123 114
0.99751357 -0.11637248 0.14333834 255 123 114
1.00264309 -0.11687614 0.14414799 255 123 114
1.00777261 -0.11737980 0.14495764 255 123 114
1.01290213 -0.11788345 0.14576729 255 123 114
1.01803165 -0.11838711 0.14657693 255 123 114
1.02316117 -0.11889077 0.14738658 255 123 114
1.02829069 -0.11939443 0.14819623 255 123 114
1.03342021 -0.11989808 0.14900588 255 123 114
1.03342021 -0.11989808 0.14900588 255 123 114
1.03376841 -0.11626296 0.14906116 255 123 114
1.03411660 -0.11262785 0.14911645 255 123 114
1.03446480 -0.10899273 0.14917174 255 123 114
1.03481300 -0.10535761 0.14922703 255 123 114
1.03516120 -0.10172250 0.14928231 255 123 114
1.03550940 -0.09808738 0.14933760 255 123 114
1.03585759 -0.09445226 0.14939289 255 123 114
1.03620579 -0.09081715 0.14944817 255 123 114
1.03655399 -0.08718203 0.14950346 255 123 114
1.03690219 -0.08354691 0.14955875 255 123 114
1.03725039 -0.07991179 0.14961403 255 123 114
1.03759858 -0.07627668 0.14966932 255 123 114
1.03794678 -0.07264156 0.14972461 255 123 114
1.03829498 -0.06900644 0.14977989 255 123 114
1.03864318 -0.06537133 0.14983518 255 123 114
1.03899138 -0.06173621 0.14989047 255 123 114
1.03933957 -0.05810109 0.14994576 255 123 114
1.03968777 -0.05446598 0.15000104 255 123 114
1.04003597 -0.05083086 0.15005633 255 123 114
1.04038417 -0.04719574 0.15011162 255 123 114
1.04073237 -0.04356062 0.15016690 255 123 114
1.04108056 -0.03992551 0.15022219 255 123 114
1.04142876 -0.03629039 0.15027748 255 123 114
1.04142876 -0.03629039 0.15027748 255 123 114
1.03629924 -0.03578673 0.14946783 255 123 114
1.03116972 -0.03528308 0.14865818 255 123 114
1.02604020 -0.03477942 0.14784853 255 123 114
1.02091068 -0.03427576 0.14703889 255 123 114
1.01578116 -0.03377211 0.14622924 255 123 114
1.01065164 -0.03326845 0.14541959 255 123 114
1.00552212 -0.03276479 0.14460994 255 123 114
1.00039260 -0.03226114 0.14380029 255 123 114
0.99526308 -0.03175748 0.14299065 255 123 114
0.99013356 -0.03125382 0.14218100 255 123 114
0.98500404 -0.03075017 0.14137135 255 123 114
0.97987453 -0.03024651 0.14056170 255 123 114
0.97474501 -0.02974285 0.13975205 255 123 114
0.96961549 -0.02923920 0.13894241 255 123 114
0.96448597 -0.02873554 0.13813276 255 123 114
0.95935645 -0.02823188 0.13732311 255 123 114
0.95422693 -0.02772823 0.13651346 255 123 114
0.94909741 -0.02722457 0.13570381 255 123 114
0.94396789 -0.02672091 0.13489417 255 123 114
0.93883837 -0.02621726 0.13408452 255 123 114
0.93370885 -0.02571360 0.13327487 255 123 114
0.92857933 -0.02520994 0.13246522 255 123 114
0.92344981 -0.02470629 0.13165557 255 123 114
0.92344981 -0.02470629 0.13165557 255 123 114
0.92310161 -0.02834140 0.13160029 255 123 114
0.92275341 -0.03197652 0.13154500 255 123 114
0.92240521 -0.03561164 0.13148971 255 123 114
0.92205702 -0.03924675 0.13143443 255 123 114
0.92170882 -0.04288187 0.13137914 255 123 114
0.92136062 -0.04651699 0.13132385 255 123 114
0.92101242 -0.05015210 0.13126857 255 123 114
0.92066423 -0.05378722 0.13121328 255 123 114
0.92031603 -0.05742234 0.13115799 255 123 114
0.91996783 -0.06105746 0.13110270 255 123 114
0.91961963 -0.06469257 0.13104742 255 123 114
0.91927143 -0.06832769 0.13099213 255 123 114
0.91892324 -0.07196281 0.13093684 255 123 114
0.91857504 -0.07559792 0.13088156 255 123 114
0.91822684 -0.07923304 0.13082627 255 123 114
0.91787864 -0.08286816 0.13077098 255 123 114
0.91753044 -0.08650328 0.13071570 255 123 114
0.91718225 -0.09013839 0.13066041 255 123 114
0.91683405 -0.09377351 0.13060512 255 123 114
0.91648585 -0.09740863 0.13054984 255 123 114
0.91613765 -0.10104374 0.13049455 255 123 114
0.91578945 -0.10467886 0.13043926 255 123 114
0.91544126 -0.10831398 0.13038397 255 123 114
