ply
format ascii 1.0
element vertex 85
property float x
property float y
property float z
property uchar red
property uchar green
property uchar blue
element face 102
property list uchar int vertex_indices
end_header
0.00000000 0.00000000 0.00000000 88 166 255
-0.20073970 -0.14051779 0.40147940 88 166 255
0.20073970 -0.14051779 0.40147940 88 166 255
0.20073970 0.14051779 0.40147940 88 166 255
-0.20073970 0.14051779 0.40147940 88 166 255
0.25402417 -0.94906758 -0.18639330 255 123 114
0.03973090 -1.01819655 0.22655581 255 123 114
0.44100320 -1.02061685 0.23922029 255 123 114
0.44417662 -0.74366345 0.19159952 255 123 114
0.04290432 -0.74124314 0.17893504 255 123 114
0.34962536 -1.86187019 -0.27103883 126 231 135
0.12868389 -1.88353586 0.14362108 126 231 135
0.52969938 -1.88397133 0.16291078 126 231 135
0.53379063 -1.61428865 0.08394555 126 231 135
0.13277514 -1.61385318 0.06465586 126 231 135
0.03268872 0.90008385 0.41167529 210 168 255
-0.17116686 0.70329421 0.78710054 210 168 255
0.23029993 0.70299409 0.79026849 210 168 255
0.23018806 0.98109266 0.83079218 210 168 255
-0.17127873 0.98139278 0.82762422 210 168 255
0.31184404 -2.55130321 -0.33848955 255 166 87
0.09443600 -2.53443079 0.07825551 255 166 87
0.49539390 -2.54680820 0.09454235 255 166 87
0.50752787 -2.28409209 -0.00452333 255 166 87
0.10656996 -2.27171468 -0.02081017 255 166 87
0.02588351 -2.96056939 -0.32537479 121 192 255
-0.18302836 -2.92742079 0.09472565 121 192 255
0.21835176 -2.93125376 0.10278867 121 192 255
0.22306257 -2.67354092 -0.00920640 121 192 255
-0.17831756 -2.66970795 -0.01726941 121 192 255
-0.04326726 -3.54834679 -0.21922630 88 166 255
-0.24986904 -3.48731499 0.19888637 88 166 255
0.15157120 -3.48729555 0.20449307 88 166 255
0.15337383 -3.23810641 0.07456031 88 166 255
-0.24806641 -3.23812586 0.06895361 88 166 255
0.31812547 -4.21197806 0.56158681 255 123 114
0.09938967 -4.09339264 0.96073531 255 123 114
0.50050118 -4.08939282 0.97744657 255 123 114
0.50506752 -3.86135023 0.81326155 255 123 114
0.10395601 -3.86535004 0.79655029 255 123 114
-0.22122566 1.80093578 0.78117123 126 231 135
-0.40320181 1.54681349 1.13264516 126 231 135
-0.00210591 1.55651691 1.11802926 126 231 135
-0.00568767 1.82576469 1.19848919 126 231 135
-0.40678357 1.81606127 1.21310509 126 231 135
2.69884468 -1.91698273 0.16943786 210 168 255
2.33056679 -1.92881059 0.46177137 210 168 255
2.69025719 -1.95528083 0.63814554 210 168 255
2.74016417 -1.68559177 0.57684221 210 168 255
2.38047377 -1.65912153 0.40046804 210 168 255
2.20103097 -3.24096360 0.71288017 255 166 87
1.84481722 -3.16160044 1.00959659 255 166 87
2.20723244 -3.18843522 1.18024479 255 166 87
2.27883374 -2.94137867 1.06703123 255 166 87
1.91641852 -2.91454388 0.89638303 255 166 87
3.23038934 -0.96312690 -0.08101925 121 192 255
2.84848628 -1.04166048 0.18205852 121 192 255
3.19788445 -1.05321762 0.37947448 121 192 255
3.22375035 -0.77493281 0.34998688 121 192 255
2.87435218 -0.76337567 0.15257092 121 192 255
3.46300994 -0.17117929 0.33710286 88 166 255
3.07004840 -0.28547904 0.56893077 88 166 255
3.40779988 -0.30273210 0.78529153 88 166 255
3.42450971 -0.02221834 0.78157529 88 166 255
3.08675823 -0.00496528 0.56521453 88 166 255
3.57360365 0.48514927 0.49698089 255 123 114
3.18176783 0.33214616 0.70741406 255 123 114
3.51517738 0.31130881 0.93010125 255 123 114
3.51820309 0.59149002 0.95178832 255 123 114
3.18479354 0.61232737 0.72910114 255 123 114
3.77068810 1.18384528 0.76390637 126 231 135
3.37964512 0.99055837 0.93984083 126 231 135
3.70308280 0.96875145 1.17669148 126 231 135
3.68798587 1.24556840 1.22279413 126 231 135
3.36454818 1.26737532 0.98594348 126 231 135
2.06802992 -4.08541871 1.16713564 210 168 255
1.72092386 -3.93962646 1.44907425 210 168 255
2.08167947 -3.96935126 1.62273351 210 168 255
2.17041346 -3.74631469 1.47657619 210 168 255
1.80965786 -3.71658989 1.30291694 210 168 255
1.68873313 -4.56197257 1.55483326 255 166 87
1.35821884 -4.38044738 1.83596721 255 166 87
1.72391952 -4.41081184 1.99883747 255 166 87
1.81533124 -4.20381045 1.83217818 255 166 87
1.44963056 -4.17344599 1.66930792 255 166 87
3 0 1 2
3 0 2 3
3 0 3 4
3 0 4 1
3 1 2 3
3 1 3 4
3 5 6 7
3 5 7 8
3 5 8 9
3 5 9 6
3 6 7 8
3 6 8 9
3 10 11 12
3 10 12 13
3 10 13 14
3 10 14 11
3 11 12 13
3 11 13 14
3 15 16 17
3 15 17 18
3 15 18 19
3 15 19 16
3 16 17 18
3 16 18 19
3 20 21 22
3 20 22 23
3 20 23 24
3 20 24 21
3 21 22 23
3 21 23 24
3 25 26 27
3 25 27 28
3 25 28 29
3 25 29 26
3 26 27 28
3 26 28 29
3 30 31 32
3 30 32 33
3 30 33 34
3 30 34 31
3 31 32 33
3 31 33 34
3 35 36 37
3 35 37 38
3 35 38 39
3 35 39 36
3 36 37 38
3 36 38 39
3 40 41 42
3 40 42 43
3 40 43 44
3 40 44 41
3 41 42 43
3 41 43 44
3 45 46 47
3 45 47 48
3 45 48 49
3 45 49 46
3 46 47 48
3 46 48 49
3 50 51 52
3 50 52 53
3 50 53 54
3 50 54 51
3 51 52 53
3 51 53 54
3 55 56 57
3 55 57 58
3 55 58 59
3 55 59 56
3 56 57 58
3 56 58 59
3 60 61 62
3 60 62 63
3 60 63 64
3 60 64 61
3 61 62 63
3 61 63 64
3 65 66 67
3 65 67 68
3 65 68 69
3 65 69 66
3 66 67 68
3 66 68 69
3 70 71 72
3 70 72 73
3 70 73 74
3 70 74 71
3 71 72 73
3 71 73 74
3 75 76 77
3 75 77 78
3 75 78 79
3 75 79 76
3 76 77 78
3 76 78 79
3 80 81 82
3 80 82 83
3 80 83 84
3 80 84 81
3 81 82 83
3 81 83 84
