ply
format ascii 1.0
element vertex 31
property float x
property float y
property float z
property uchar red
property uchar green
property uchar blue
end_header
-0.05031308 -0.23075212 1.61752453 194 190 169
-0.18554451 0.00602465 1.72119456 220 218 205
-0.03810030 0.04295433 1.70877568 81 95 105
-0.23602340 0.21240937 1.83558478 196 196 186
0.00232639 0.03590419 1.71268564 86 99 107
-0.01979379 -0.07406431 1.67884264 111 124 132
-0.01167645 -0.18233961 1.64851099 145 131 118
-0.15393534 -0.11039226 1.67183653 206 205 187
-0.03705302 -0.01155891 1.69446013 169 161 147
-0.26291535 -0.16772276 1.69722898 86 113 130
0.05898570 0.39922014 1.80838217 142 102 77
-0.06584959 0.21945747 1.75530398 93 110 118
-0.21863496 0.16150641 1.79473543 84 107 123
0.02743309 0.11371611 1.74015550 25 26 25
-0.12976880 0.27580928 1.79273043 90 104 112
-0.03783760 -0.17846009 1.64670954 145 131 121
0.02903422 0.11034749 1.74191245 255 250 229
0.03792156 0.40917554 1.81002152 130 94 72
0.00805777 0.17078807 1.74476295 198 186 162
0.06356069 0.11754668 1.74631616 117 139 153
-0.17958705 -0.10466419 1.68182490 203 212 200
0.12329167 0.09121027 1.77862884 109 119 128
0.02903422 0.11034749 1.74191245 255 250 229
0.06876797 0.08679249 1.73913167 48 57 64
-0.09344263 0.41870767 1.81787939 80 85 81
0.02312727 0.11556052 1.73990961 230 255 255
0.11408013 -0.12714850 1.73003129 56 65 74
0.06592352 0.41273661 1.79466335 115 80 56
0.12329167 0.09121027 1.77862884 109 119 128
0.46207686 0.29972706 1.67153366 223 228 224
0.02533528 0.11237040 1.73572349 42 39 35
