ply
format ascii 1.0
element vertex 85
property float x
property float y
property float z
property uchar red
property uchar green
property uchar blue
element face 102
property list uchar int vertex_indices
end_header
0.00000000 0.00000000 0.00000000 88 166 255
-0.20619207 -0.14433445 0.41238414 88 166 255
0.20619207 -0.14433445 0.41238414 88 166 255
0.20619207 0.14433445 0.41238414 88 166 255
-0.20619207 0.14433445 0.41238414 88 166 255
0.25402417 -0.94906758 -0.18639330 255 123 114
0.03391040 -1.02007419 0.23777209 255 123 114
0.44608181 -1.02256023 0.25078055 255 123 114
0.44934142 -0.73808438 0.20186634 255 123 114
0.03717000 -0.73559834 0.18885787 255 123 114
0.40485315 -2.04177475 -0.12889827 126 231 135
0.17307883 -2.04818932 0.29495052 126 231 135
0.58473493 -2.04810879 0.31944390 126 231 135
0.59010883 -1.77428397 0.22822537 126 231 135
0.17845273 -1.77436449 0.20373198 126 231 135
0.00744578 1.00611027 0.45103699 210 168 255
-0.20018206 0.79566084 0.83314954 210 168 255
0.21219963 0.79462958 0.83412975 210 168 255
0.21279722 1.07927020 0.88218278 210 168 255
-0.19958447 1.08030145 0.88120257 210 168 255
0.43200721 -2.74327519 -0.10059800 255 166 87
0.19918922 -2.70760770 0.32122175 255 166 87
0.61059256 -2.71818547 0.34760514 255 166 87
0.62468139 -2.45310270 0.23419278 255 166 87
0.21327805 -2.44252493 0.20780939 255 166 87
0.07997156 -3.10345518 -0.11807265 121 192 255
-0.13843707 -3.05478599 0.31010636 121 192 255
0.27377031 -3.05679667 0.32201065 121 192 255
0.27863405 -2.79636678 0.19758256 121 192 255
-0.13357333 -2.79435610 0.18567827 121 192 255
0.04281238 -3.69283243 0.00911931 88 166 255
-0.17597853 -3.61402892 0.43259166 88 166 255
0.23622925 -3.61326027 0.44462645 88 166 255
0.23994027 -3.36259443 0.30150902 88 166 255
-0.17226751 -3.36336309 0.28947422 88 166 255
0.38453597 -4.33539142 0.82526698 255 123 114
0.15437714 -4.19730165 1.22697136 255 123 114
0.56612287 -4.19066082 1.24892667 255 123 114
0.57197426 -3.96376567 1.07056163 255 123 114
0.16022854 -3.97040650 1.04860633 255 123 114
-0.21162133 1.93801483 0.83884293 126 231 135
-0.39885984 1.66487649 1.19061767 126 231 135
0.01314336 1.67623455 1.17701477 126 231 135
0.00862465 1.94992632 1.26867790 126 231 135
-0.40337855 1.93856826 1.28228080 126 231 135
2.67157405 -2.08238534 0.30135277 210 168 255
2.29235842 -2.08212194 0.60069158 210 168 255
2.66113133 -2.10509770 0.78382907 210 168 255
2.71412845 -1.83069853 0.71153707 210 168 255
2.34535555 -1.80772278 0.52839958 210 168 255
2.14938742 -3.32125857 0.91132173 255 166 87
1.78320448 -3.22848012 1.21250357 255 166 87
2.15489183 -3.25256122 1.38950440 255 166 87
2.23005404 -3.00288628 1.26563835 255 166 87
1.85836669 -2.97880518 1.08863752 255 166 87
3.21968879 -1.09207830 -0.01678511 121 192 255
2.82630004 -1.16485305 0.25406062 121 192 255
3.18455741 -1.17362997 0.45810793 121 192 255
3.21246178 -0.88867112 0.42137191 121 192 255
2.85420441 -0.87989421 0.21732460 121 192 255
3.47226958 -0.27458234 0.39733097 88 166 255
3.06642034 -0.38595154 0.63458942 88 166 255
3.41162884 -0.40091558 0.85968461 88 166 255
3.42999749 -0.11297320 0.85065628 88 166 255
3.08478899 -0.09800916 0.62556109 88 166 255
3.60247450 0.41132166 0.56321093 255 123 114
3.19704078 0.25803880 0.77660294 255 123 114
3.53674151 0.23862150 1.00959878 255 123 114
3.54041921 0.52666430 1.02824158 255 123 114
3.20071849 0.54608160 0.79524573 255 123 114
3.76749814 1.16935861 0.83311879 126 231 135
3.36502018 0.96990356 1.01098801 126 231 135
3.69514358 0.94972432 1.25730492 126 231 135
3.67809722 1.23417012 1.30345402 126 231 135
3.34797383 1.25434937 1.05713710 126 231 135
2.07559834 -4.14479913 1.42285676 210 168 255
1.71573904 -3.98499079 1.70280471 210 168 255
2.08429019 -4.00861080 1.88630629 210 168 255
2.17695827 -3.78503384 1.72896684 210 168 255
1.80840713 -3.76141383 1.54546526 210 168 255
1.70789366 -4.62122899 1.83140329 255 166 87
1.36459689 -4.42358516 2.10797611 255 166 87
1.73804064 -4.44761982 2.28124693 255 166 87
1.83405395 -4.24199758 2.10283541 255 166 87
1.46061019 -4.21796291 1.92956460 255 166 87
3 0 1 2
3 0 2 3
3 0 3 4
3 0 4 1
3 1 2 3
3 1 3 4
3 5 6 7
3 5 7 8
3 5 8 9
3 5 9 6
3 6 7 8
3 6 8 9
3 10 11 12
3 10 12 13
3 10 13 14
3 10 14 11
3 11 12 13
3 11 13 14
3 15 16 17
3 15 17 18
3 15 18 19
3 15 19 16
3 16 17 18
3 16 18 19
3 20 21 22
3 20 22 23
3 20 23 24
3 20 24 21
3 21 22 23
3 21 23 24
3 25 26 27
3 25 27 28
3 25 28 29
3 25 29 26
3 26 27 28
3 26 28 29
3 30 31 32
3 30 32 33
3 30 33 34
3 30 34 31
3 31 32 33
3 31 33 34
3 35 36 37
3 35 37 38
3 35 38 39
3 35 39 36
3 36 37 38
3 36 38 39
3 40 41 42
3 40 42 43
3 40 43 44
3 40 44 41
3 41 42 43
3 41 43 44
3 45 46 47
3 45 47 48
3 45 48 49
3 45 49 46
3 46 47 48
3 46 48 49
3 50 51 52
3 50 52 53
3 50 53 54
3 50 54 51
3 51 52 53
3 51 53 54
3 55 56 57
3 55 57 58
3 55 58 59
3 55 59 56
3 56 57 58
3 56 58 59
3 60 61 62
3 60 62 63
3 60 63 64
3 60 64 61
3 61 62 63
3 61 63 64
3 65 66 67
3 65 67 68
3 65 68 69
3 65 69 66
3 66 67 68
3 66 68 69
3 70 71 72
3 70 72 73
3 70 73 74
3 70 74 71
3 71 72 73
3 71 73 74
3 75 76 77
3 75 77 78
3 75 78 79
3 75 79 76
3 76 77 78
3 76 78 79
3 80 81 82
3 80 82 83
3 80 83 84
3 80 84 81
3 81 82 83
3 81 83 84
