ply
format ascii 1.0
element vertex 50
property float x
property float y
property float z
property uchar red
property uchar green
property uchar blue
element face 60
property list uchar int vertex_indices
end_header
0.00000000 0.00000000 0.00000000 88 166 255
-0.14559435 -0.10191605 0.29118870 88 166 255
0.14559435 -0.10191605 0.29118870 88 166 255
0.14559435 0.10191605 0.29118870 88 166 255
-0.14559435 0.10191605 0.29118870 88 166 255
0.12973310 0.92309261 0.36203503 255 123 114
-0.02449128 0.78099366 0.63110413 255 123 114
0.26653835 0.78166028 0.64070450 255 123 114
0.26513362 0.98347531 0.66927448 255 123 114
-0.02589601 0.98280868 0.65967411 255 123 114
1.10985579 -0.05987755 0.09652217 126 231 135
0.90483189 -0.14508802 0.35551991 126 231 135
1.18998029 -0.16632579 0.41056722 126 231 135
1.20534527 0.03692296 0.40939095 126 231 135
0.92019687 0.05816073 0.35434364 126 231 135
0.75864947 -0.87949884 -0.18924754 210 168 255
0.56892146 -0.92477315 0.09062560 210 168 255
0.85658117 -0.94547521 0.13080238 210 168 255
0.87511181 -0.74459368 0.10163486 210 168 255
0.58745210 -0.72389161 0.06145808 210 168 255
1.39549561 0.97309850 0.82752051 255 166 87
1.17739156 0.84378014 1.05573716 255 166 87
1.45904346 0.82023791 1.12580018 255 166 87
1.46801282 1.02141491 1.15734202 255 166 87
1.18636092 1.04495714 1.08727900 255 166 87
0.34392388 -1.94714345 -0.05600989 121 192 255
0.17563828 -1.95982934 0.24046014 121 192 255
0.46572097 -1.97395688 0.26151486 121 192 255
0.47919215 -1.77787929 0.20748128 121 192 255
0.18910945 -1.76375175 0.18642657 121 192 255
-0.55545055 -1.43937312 0.38909088 88 166 255
-0.67503788 -1.47917391 0.70609280 88 166 255
-0.38484630 -1.47634511 0.68218253 88 166 255
-0.39029625 -1.27708238 0.63961278 88 166 255
-0.68048783 -1.27991118 0.66352306 88 166 255
-1.82330591 -0.90268880 -1.24573473 255 123 114
-1.89140781 -0.99376509 -0.92410964 255 123 114
-1.60859837 -0.97066979 -0.98950297 255 123 114
-1.62775060 -0.76805261 -1.00077213 255 123 114
-1.91056004 -0.79114792 -0.93537880 255 123 114
-2.40344440 0.00840410 -0.33412345 126 231 135
-2.43669087 -0.11104687 -0.01631597 126 231 135
-2.16250987 -0.07909517 -0.10902372 126 231 135
-2.18320588 0.12350037 -0.10040718 126 231 135
-2.45738688 0.09154867 -0.00769942 126 231 135
-2.46703613 0.56664122 0.22599745 210 168 255
-2.49311298 0.42837455 0.53676711 210 168 255
-2.22130146 0.45997874 0.43721545 210 168 255
-2.23682861 0.66205075 0.45897164 210 168 255
-2.50864012 0.63044656 0.55852330 210 168 255
3 0 1 2
3 0 2 3
3 0 3 4
3 0 4 1
3 1 2 3
3 1 3 4
3 5 6 7
3 5 7 8
3 5 8 9
3 5 9 6
3 6 7 8
3 6 8 9
3 10 11 12
3 10 12 13
3 10 13 14
3 10 14 11
3 11 12 13
3 11 13 14
3 15 16 17
3 15 17 18
3 15 18 19
3 15 19 16
3 16 17 18
3 16 18 19
3 20 21 22
3 20 22 23
3 20 23 24
3 20 24 21
3 21 22 23
3 21 23 24
3 25 26 27
3 25 27 28
3 25 28 29
3 25 29 26
3 26 27 28
3 26 28 29
3 30 31 32
3 30 32 33
3 30 33 34
3 30 34 31
3 31 32 33
3 31 33 34
3 35 36 37
3 35 37 38
3 35 38 39
3 35 39 36
3 36 37 38
3 36 38 39
3 40 41 42
3 40 42 43
3 40 43 44
3 40 44 41
3 41 42 43
3 41 43 44
3 45 46 47
3 45 47 48
3 45 48 49
3 45 49 46
3 46 47 48
3 46 48 49
