ply
format ascii 1.0
element vertex 1072
property float x
property float y
property float z
property uchar red
property uchar green
property uchar blue
end_header
-0.23580287 0.22161658 5.15544838 165 159 144
-0.00218446 0.66930881 5.32305036 209 194 171
0.13934006 0.29325853 5.26804640 58 67 76
0.28384709 0.25775993 5.32599951 162 153 141
-0.13867160 0.35970772 5.20492632 44 58 69
-0.07832099 0.35053560 5.21546264 149 162 170
0.12292622 1.31862749 5.50251339 139 99 74
-0.00008342 0.77743983 5.34690518 178 169 152
0.04083681 0.66487940 5.32914430 213 207 190
0.30685622 0.10102997 5.30191423 107 115 125
0.18430092 0.65613123 5.35974639 189 174 153
0.10218757 -0.46654138 4.96694313 208 202 186
0.34567352 0.20437608 5.36164999 50 57 65
0.42142743 0.76645995 5.52353849 102 115 124
0.23437941 -0.34668025 5.10102428 142 126 113
0.26684198 0.70267258 5.41773175 178 165 148
-0.08285509 0.03279158 5.12725132 69 82 93
-0.22697225 0.39790850 5.19437540 228 222 205
0.03470770 0.64940175 5.33481861 45 46 40
-0.38026558 -0.21073299 4.96765870 170 166 158
-0.01203568 -0.28298451 5.00907691 66 65 70
0.06882192 -0.29719768 5.03276263 133 123 111
-0.28203983 -0.21904800 4.97541303 144 137 124
-0.19868875 -0.08346883 5.04836016 49 59 67
0.15450451 -0.00776522 5.17989030 170 160 148
0.06668854 0.01455702 5.15980931 139 132 119
0.46660860 1.66919634 4.83490528 157 142 123
-0.63530870 -0.35876558 4.95495405 121 135 135
-0.33965337 -0.21555007 4.96668329 143 139 130
-0.95674814 1.12144130 7.56625347 103 118 122
-0.00403948 0.65224220 5.32878933 207 192 169
0.47588987 1.62187510 4.83538066 214 198 172
0.18759122 2.06133522 5.06435630 127 127 117
-0.36569531 -0.22885121 4.96343910 59 72 81
-0.91228035 -0.23294994 5.16822402 198 203 198
0.04933456 0.54013629 5.31323518 250 231 215
-0.04004761 -0.04920174 5.10701027 43 59 72
0.19116823 -0.02877908 5.19501551 55 58 63
-0.06758168 -0.04908869 5.09836799 48 62 75
0.43215194 0.71030620 5.52440952 10 17 23
0.00782246 0.63523142 5.32700078 42 43 37
0.32364137 -0.38224076 5.14781589 198 189 180
-0.00367915 0.63608629 5.32115729 203 193 176
0.40298191 0.75606381 5.50429617 15 23 26
-0.18096264 -0.08810289 5.05055900 45 55 61
-0.13007254 -0.02640167 5.08598468 42 58 71
0.29394201 0.57089247 5.39653197 171 159 142
-0.18769479 0.26963783 5.17134892 33 49 62
-0.02828537 -0.27906060 5.00545349 56 60 64
-0.15708463 0.07366768 5.10757179 192 187 173
-0.06758168 -0.04908869 5.09836799 48 62 75
-0.33965337 -0.21555007 4.96668329 143 139 130
0.30581064 0.55865246 5.40215529 172 161 147
-0.21613291 0.04763803 5.08995844 36 52 65
-0.28850552 -0.01408700 5.05703717 55 71 84
-0.48990606 0.26119614 5.16431747 186 195 192
-0.17822067 0.05352503 5.10318794 43 57 67
0.03231929 -0.14391235 5.10235126 40 46 51
-0.13007254 -0.02640167 5.08598468 42 58 71
-0.09939444 -0.26363870 4.99053678 61 64 67
0.41400392 0.19057745 5.41028804 183 180 173
-0.03895009 -0.12630346 5.08687813 44 52 58
-0.67095427 -0.34446844 4.96840657 101 123 134
0.46635694 1.67967104 4.83282219 197 186 169
-0.10414828 -0.40508942 4.90215141 181 179 163
-0.01035595 0.70868907 5.32025445 200 188 166
0.56337172 1.64988783 4.84683839 199 188 167
0.03273584 0.55489201 5.31075565 231 255 255
0.06334333 1.34497036 5.50288919 137 102 80
-0.34983847 0.09529281 5.09634942 52 69 78
-0.03760583 0.59703854 5.30532441 115 129 138
0.07080444 -0.44501030 4.95298618 90 98 104
0.19490362 0.59415650 5.35579990 167 160 142
-0.00522520 -0.07217513 5.11332441 46 62 74
0.03299713 0.02563383 5.14671714 205 198 184
-0.47363357 -0.19155931 4.99270806 185 185 173
0.02278418 -0.08534830 5.11721968 49 65 78
0.28978917 0.85131075 5.46830424 86 97 103
0.03414098 0.24439853 5.21396712 39 54 66
0.17976479 0.13467642 5.24332099 44 52 59
-0.09924387 -0.10269074 5.07434250 51 61 70
-0.21825807 0.39125808 5.19773540 214 214 205
-0.09924387 -0.10269074 5.07434250 51 61 70
0.01048177 -0.02677070 5.12551400 47 61 72
0.05139504 1.56298909 5.12024635 210 215 208
0.35645273 0.69515156 5.45982503 112 121 130
0.04256316 -0.44265290 4.93889758 198 193 175
0.43108857 0.32224262 5.45524544 176 174 168
0.05687299 1.37556900 5.51731430 116 85 64
0.20897285 1.15408317 5.51121111 91 101 107
-0.23048124 -0.01013575 5.06947547 40 58 70
0.09345561 -0.11573501 5.12741884 44 56 69
-0.72555805 0.25481481 5.23629761 99 113 120
0.08969812 -0.14280605 5.11840914 42 54 66
-0.28666642 0.24800483 5.14939567 60 73 81
-0.13664422 0.21901945 5.16574204 54 64 67
0.10633935 -0.16023397 5.11800179 71 81 89
-0.22741177 0.02879159 5.08072402 40 58 70
-0.35199657 0.40967237 5.19896741 205 206 200
-0.11147245 -0.03035627 5.09138572 40 56 69
0.25503210 -0.20145502 5.16271697 46 53 62
-0.11288978 -0.04441485 5.08759101 45 62 73
-0.28850552 -0.01408700 5.05703717 55 71 84
0.09462938 -0.16845920 5.11647228 118 113 105
0.08969812 -0.14280605 5.11840914 42 54 66
0.01978632 0.03202452 5.15068476 188 180 167
-0.26813715 -0.23072894 4.97100311 60 65 67
-0.30965897 -0.06330791 5.03737255 59 77 88
0.09345561 -0.11573501 5.12741884 44 56 69
0.52096886 1.79019695 4.88807933 196 186 174
-0.14566037 -0.09767032 5.05875261 47 55 59
-0.09044026 0.28755377 5.19671394 42 59 69
0.46957689 0.77557336 5.55134438 185 178 168
-0.12286430 0.24863442 5.17892367 48 62 73
-0.78113864 -0.21645781 5.08556990 102 118 124
-0.36699400 -0.00356369 5.05564920 52 73 86
-0.09411607 0.24994904 5.18023870 47 62 73
0.02278418 -0.08534830 5.11721968 49 65 78
0.06653876 -0.42110986 4.95529674 62 71 80
0.03414098 0.24439853 5.21396712 39 54 66
0.32673032 0.07849415 5.31226828 52 63 71
-0.22933371 0.23849677 5.15452296 69 79 80
0.04933456 0.54013629 5.31323518 250 231 215
-0.70243109 -0.05064140 5.11104247 113 135 144
-0.16237396 -0.09316962 5.05399852 48 55 60
-0.07154926 -0.08900801 5.08547267 40 57 67
0.03414098 0.24439853 5.21396712 39 54 66
-0.17682800 -0.03534273 5.07374849 48 65 75
0.05963906 -0.39723292 4.95768591 52 59 65
-0.09196755 -0.11227477 5.07225384 46 55 61
-0.67095427 -0.34446844 4.96840657 101 123 134
0.63729535 1.63439744 4.86062997 151 138 119
0.25215635 0.44980258 5.34568042 50 59 68
0.30721348 -0.26382983 5.18214657 177 167 152
0.39604514 0.64707204 5.48437130 174 165 155
-0.11649697 -0.09795579 5.06975057 48 59 68
0.43545942 0.17786625 5.43014179 165 163 159
-0.76759613 -0.21527092 5.07643369 100 119 130
0.40546164 -0.42492524 5.21849626 162 164 163
-0.01317433 0.58883148 5.31028490 11 16 20
-0.31832879 -0.27619453 4.93057069 46 62 75
0.16108820 -0.14555430 5.13872966 44 56 70
0.40817604 0.50170425 5.46664093 182 178 173
1.31896695 1.10699138 5.37379473 218 223 216
0.18802862 -0.45648822 5.01154634 49 59 69
0.16661575 0.30487571 5.27288515 196 184 168
-0.05937216 -0.39938583 4.90896395 57 70 79
-0.33809700 -0.27522043 4.93484514 61 77 90
0.27933344 0.72934503 5.40968586 27 32 35
-0.19308456 -0.36167964 4.89458306 60 77 87
0.51365581 0.41814829 5.60504303 186 194 196
0.19536481 -0.45127674 5.01703270 60 69 77
0.58352855 0.95624733 5.75800814 176 177 171
-0.05628259 -0.12181659 5.08296473 45 49 55
0.49251079 1.62516496 4.83883459 169 154 131
0.45204482 1.13199298 5.68838508 51 41 33
-0.27799992 -0.28058695 4.92979938 53 66 75
0.18068186 -0.44673744 5.01122834 55 64 72
0.11509918 -0.43793749 4.97582931 76 86 95
0.16302391 -0.45486387 4.99655299 55 65 74
-0.20211597 -0.35497627 4.90221120 67 84 94
-0.03904588 -0.39105057 4.91992533 57 67 76
0.09189489 -0.42212687 4.96868824 70 79 88
-0.72695256 -0.25835342 5.03826800 69 93 107
0.06653876 -0.42110986 4.95529674 62 71 80
-0.26808873 -0.30026910 4.91684038 57 70 79
0.44210934 -0.46266999 5.26577405 108 127 141
0.31040847 -0.16208353 5.21415457 57 66 75
-0.15500392 0.09982582 5.11924531 141 134 118
-0.02922385 -0.38595642 4.92322976 55 64 71
0.44579505 1.67659646 4.83259240 150 137 120
0.69264578 1.25366089 5.43551530 197 200 191
0.45201561 0.62974307 5.51630443 11 18 22
-0.22741177 0.02879159 5.08072402 40 58 70
0.29813142 -0.13066273 5.21325370 52 61 70
-0.20129783 0.19540732 5.13952484 184 177 159
-0.20581204 -0.04261990 5.06173200 173 188 191
0.05952099 -0.41158995 4.95630711 53 62 69
0.47549792 0.44684593 5.54177090 194 201 203
-0.33684163 -0.23756615 4.95123675 54 68 79
0.51207937 0.25752363 5.54279112 171 178 182
-0.27812974 -0.24555003 4.95347219 50 60 69
0.26580806 1.31756749 5.55492770 150 117 98
0.02960668 1.95772264 5.02893519 99 110 106
0.14568601 0.56069146 5.29119115 80 102 115
-0.31721561 0.18969660 5.12503328 201 195 179
-0.27710936 -0.25725323 4.94430411 53 66 75
-1.09487067 -0.31938993 5.32406766 99 116 126
0.34189149 1.30622754 5.45012859 42 47 50
-0.15500392 0.09982582 5.11924531 141 134 118
0.40212263 1.34500140 5.24706455 165 169 168
0.34443625 -0.36512617 5.16800907 181 172 162
0.64845038 1.71533663 4.88722849 105 97 84
-0.46188045 0.95911907 5.38065031 104 124 135
-0.63611285 0.09937333 5.10012484 125 149 167
-0.48111841 0.10060792 5.05688846 79 100 114
-0.09101043 0.66214244 5.28293808 187 183 172
0.23473373 0.41462326 5.32470363 176 164 148
-0.27191012 -0.96321243 5.99778489 123 110 101
0.36638002 0.22388446 5.38549457 165 158 149
-0.93154466 -0.38920295 5.05983088 194 192 175
-0.04574005 -0.40686593 4.95377375 98 107 116
0.45838001 0.76348815 5.55771365 100 111 121
0.42097280 0.79326771 5.53582862 89 103 111
-0.33311167 0.08647792 5.05711529 151 169 181
0.23495449 0.57613991 5.37009998 53 60 64
0.16891096 0.47401025 5.32042432 63 72 79
-0.56290705 -0.36741044 4.92011261 211 211 187
-0.07113076 -0.40803065 4.93649122 69 80 87
0.23495449 0.57613991 5.37009998 53 60 64
-0.28982025 -0.06657182 5.02443517 60 77 85
-0.15798902 -0.47768505 4.92198103 165 115 61
0.00918129 0.03355630 5.15131135 201 194 180
0.46802066 0.75220683 5.56079068 112 126 138
-0.08341023 0.51453693 5.23279237 192 186 176
-0.75012040 -0.36074403 4.63169401 180 177 158
-0.09830304 0.20995316 5.15345438 36 46 49
0.39543775 0.51015048 5.46163152 180 175 167
-0.06370103 0.65852067 5.28429354 200 192 176
0.25880943 0.41166858 5.33685095 157 148 135
-0.08341023 0.51453693 5.23279237 192 186 176
-0.67097955 -0.37890550 5.23665019 121 135 135
0.44992764 0.61782942 5.53766987 175 172 166
-0.23825152 0.39372876 5.17292485 215 212 198
0.37162415 0.04680409 5.35309159 146 140 128
-0.44374010 0.10494049 5.06739366 48 65 76
0.02393167 -0.44021654 4.97599061 167 164 152
-0.03579994 0.64597932 5.29105518 187 177 160
-0.04775780 0.50412626 5.24029674 180 175 162
1.63045989 1.97323044 5.39848686 155 191 197
0.35631385 0.53243140 5.42800217 168 162 150
0.03231480 0.55413911 5.30358819 231 255 255
-0.33908020 0.25001379 5.12039273 183 188 181
-0.44976519 -0.20944896 4.96130092 82 93 96
-0.75735471 -0.54696107 5.23167536 191 148 93
-0.75735471 -0.54696107 5.23167536 191 148 93
-0.12253348 0.24833669 5.15608563 48 62 73
0.56361171 1.03256464 5.83284675 54 47 40
-0.67945417 -0.20587019 4.99781080 98 119 130
0.07464627 0.16638948 5.20269829 49 60 65
-0.03993610 -0.04903490 5.10839425 43 59 72
-0.10520179 0.03611594 5.10393101 45 55 65
-0.12253348 0.24833669 5.15608563 48 62 73
-0.44976519 -0.20944896 4.96130092 82 93 96
0.50602015 0.13349362 5.52293098 176 182 182
-0.45686997 -0.29428676 4.92653608 71 94 108
-0.45686997 -0.29428676 4.92653608 71 94 108
-0.61945732 -0.46325299 5.00716320 158 117 66
1.56280168 2.03664187 5.33042531 132 164 171
0.45163982 0.45067286 5.53937283 90 106 120
0.87372175 -0.40786380 6.29978666 194 193 190
0.87372175 -0.40786380 6.29978666 194 193 190
-0.02597927 1.45928193 5.47911159 41 47 47
0.04984850 0.56815436 5.32109767 17 21 25
0.19126098 -0.18333035 5.16803237 45 49 54
0.06984127 -0.07534253 5.14243520 45 59 69
0.28547481 1.27462311 5.64979631 89 88 84
-0.05593411 -0.12183261 5.08813878 45 49 55
-0.10418517 -0.05319063 5.08455549 43 59 70
-0.34521574 -0.38314502 4.28235950 238 235 218
-0.18911980 -0.45950074 4.94842207 233 230 211
-0.78710281 1.23882501 5.75351752 75 87 87
-0.03681845 -0.11183589 5.09922808 41 54 64
0.00866500 1.31397505 5.51439863 159 142 126
-0.01558588 0.62895374 5.30073172 50 53 56
0.45256140 -0.12215569 5.37918427 177 181 181
-0.25796241 -0.32258294 4.92120861 60 73 82
-0.12600943 -0.38221113 4.92383659 57 70 79
0.05297397 1.43029372 5.50740492 115 93 74
0.41218689 -0.29083942 5.31058081 164 169 172
0.88351397 1.24200555 5.32726383 221 222 206
0.35132870 0.31056965 5.38945559 201 191 179
0.28707263 0.78081503 5.43355843 73 82 89
-0.00252709 -0.39002795 4.97275911 48 57 64
0.33857364 1.09785171 5.55214830 78 83 87
0.31537765 -0.14038670 5.30619688 59 68 77
0.47708046 0.28899725 5.53938744 179 181 176
0.42227726 0.64521116 5.50681873 74 82 86
0.34588617 0.34618854 5.38572069 199 191 178
-0.09687047 1.63440771 5.08552400 126 128 125
1.08367679 1.80767024 5.42759350 58 59 54
0.46807041 0.62929558 5.54993889 115 129 142
0.51694272 0.35464157 5.59676273 20 25 28
0.46948352 1.06858901 5.70824997 46 39 33
0.45067103 -0.75251931 5.50647136 221 223 213
0.62286345 1.63667183 4.85541492 148 137 119
0.49070518 -0.42752199 5.58237177 173 180 186
0.23993310 1.34709665 5.55446068 165 123 99
1.57349541 2.02768576 5.34762061 148 180 185
0.02098214 1.58225331 5.07787848 155 160 154
0.54463241 -0.71220556 5.53409402 154 174 184
1.57349541 2.02768576 5.34762061 148 180 185
0.37794343 1.13922187 5.65071570 145 133 119
0.49336599 0.48453006 5.50021175 195 204 206
1.37003262 1.29400981 5.34624207 197 199 192
0.37610841 1.50488811 5.77854282 65 65 65
0.64433758 0.00944838 5.92235353 206 189 171
-0.55286760 0.25522492 5.14157658 220 218 205
-0.26981530 0.10005016 5.08588269 160 158 139
-0.65852528 0.12286072 5.12602901 173 176 160
0.33789562 0.23520389 5.35877780 193 184 169
-0.00781228 0.02014881 5.13460457 53 63 73
-0.28573743 0.23540567 5.12817414 192 186 169
0.23977967 -0.02344851 5.22488786 172 156 141
0.03642099 -0.28801529 5.03924623 157 139 127
0.04345947 -0.29900729 5.03680205 58 58 63
-0.27210089 -0.06890200 5.03466219 51 65 73
-0.13343167 0.20987500 5.15003296 169 161 147
0.23754831 0.27473477 5.30910814 166 157 141
0.28494038 -0.20362960 5.19694633 124 132 143
-0.71589094 -0.35437260 4.99586114 125 148 164
-0.02846642 -0.12193911 5.09676151 41 51 60
-0.67153618 -0.35829772 4.95715651 130 148 160
0.36500179 -0.40692523 5.20627354 169 165 159
0.41154817 -0.44966701 5.25360914 81 100 114
-0.27210089 -0.06890200 5.03466219 51 65 73
0.37170618 0.75331738 5.49137248 91 105 114
0.10410049 -0.46706170 4.98839242 218 216 202
0.07647080 0.00368185 5.15943096 70 75 78
0.19258725 -0.18408489 5.15264050 50 54 61
0.03299521 -0.14510251 5.11176106 42 46 53
-0.04987931 -0.41316502 4.93284273 49 58 66
0.30057231 0.08981564 5.29933948 47 52 56
0.25396876 0.14297494 5.28406207 44 53 62
0.06804503 -0.10398528 5.12830632 44 54 65
0.01551324 -0.14115803 5.10804808 46 52 59
-0.08696227 0.03248364 5.11106505 44 57 66
-0.54308639 -0.35910362 4.92167016 113 132 139
-0.40738835 -0.21258073 4.96812271 80 89 93
0.11115159 0.29065138 5.24432875 57 69 78
0.01968480 -0.11283208 5.11191116 52 66 77
0.35666418 0.36805938 5.38599811 172 169 156
0.23966949 -0.13691767 5.18901051 55 59 67
-0.60799983 -0.35029799 4.93784975 108 131 147
0.09363954 -0.00019172 5.16658358 59 62 61
0.37050526 0.05903509 5.34343680 59 66 73
0.04761259 -0.11257957 5.12014316 54 66 77
0.02167304 -0.09920075 5.11493583 45 56 69
-0.15760872 -0.03983036 5.07077279 58 72 81
0.05367629 -0.13491868 5.11851766 46 54 67
0.07241592 -0.13946899 5.12372575 59 72 81
-0.16258679 0.02266665 5.08716132 66 80 89
0.01052927 -0.02742606 5.12973656 42 54 64
0.08368470 -0.12147680 5.13118088 48 58 70
-0.15760872 -0.03983036 5.07077279 58 72 81
0.31715620 -0.07351921 5.25509423 64 63 62
0.13678999 -0.03188896 5.17338915 46 55 64
0.38803438 0.36180536 5.42347745 68 82 91
-0.26329377 -0.37733332 4.90374984 65 80 87
-0.51095930 -0.12272099 5.01387962 213 212 192
0.44303958 0.14768699 5.42137423 122 138 151
-0.28526971 -0.37673934 4.90293400 87 98 101
0.25396876 0.14297494 5.28406207 44 53 62
0.27293675 1.55586219 5.37358222 225 227 214
0.20147338 -0.17918130 5.15897441 44 51 61
-0.28526971 -0.37673934 4.90293400 87 98 101
0.05367629 -0.13491868 5.11851766 46 54 67
0.01714002 -0.39600350 4.96499067 51 55 64
0.25668387 -0.11563297 5.20687060 45 49 58
0.36265355 0.37637102 5.40304174 58 72 81
0.12451405 -0.16633255 5.13477856 52 60 70
0.23171824 -0.12702910 5.18841804 47 54 62
-0.10460135 -0.05301847 5.08579992 47 61 72
0.23751297 -0.47900833 5.06536412 52 64 75
0.08556429 -0.43263958 4.98441774 59 68 77
-0.01160360 -0.40989305 4.94851463 55 64 73
-0.70520336 -0.34509052 4.97110729 111 134 150
0.62506305 1.36714920 5.24256804 144 135 126
-0.20581901 -0.04185682 5.05614494 173 187 190
0.89051297 1.75556076 5.22574058 155 147 137
0.36777984 -0.26362802 5.25170651 193 188 178
0.47513000 0.38250904 5.54568093 164 192 214
-0.26726836 -0.37119794 4.90371135 185 200 205
-0.26726836 -0.37119794 4.90371135 185 200 205
1.28813427 1.35597382 5.34073231 135 125 115
-0.97134009 -0.17275720 5.25936191 208 207 187
1.13072651 1.41412314 5.24889476 184 175 158
1.34800033 1.32306501 5.33429207 184 181 174
-0.29312968 0.56385427 5.23937123 51 68 81
-0.44867367 0.27375774 5.12711212 141 164 178
0.13445969 0.15669160 5.22384535 53 63 73
-0.00757006 -0.43287816 4.95364920 177 172 158
-0.05402317 -0.26640762 5.02062271 133 123 111
-0.89387088 -0.85588411 5.87591033 131 121 109
-0.18159402 -0.07794516 5.05137825 73 86 95
-0.26901855 0.09783157 5.08147358 140 137 122
-0.43367764 -0.04358723 5.01439793 81 104 119
0.09827457 0.14717758 5.20447775 154 147 132
0.20933445 0.28691148 5.28120045 166 156 141
-0.13587007 0.94735482 5.34076348 83 97 108
0.18009919 0.29795274 5.27158126 174 163 148
0.23863583 0.27275620 5.29613685 142 133 122
-0.67591413 0.09898276 5.11950598 99 121 134
0.22261761 0.27976273 5.28722190 147 136 124
-0.25711457 -0.22479763 4.97515637 134 128 116
0.20891329 0.28559697 5.28135759 149 139 125
0.09178475 0.32076007 5.23765958 152 145 128
0.37895511 -0.41164014 5.22634745 165 163 160
0.27025913 -0.05685717 5.23075385 56 57 61
-0.03483047 -0.00741248 5.11347035 36 52 65
0.10055164 1.18481325 5.46357077 80 89 94
-0.51576971 -0.22014184 4.95911584 120 140 151
0.13680967 -0.46967708 5.01751932 60 70 78
-0.08842606 -0.40270789 4.92823556 63 75 81
-0.11370454 0.66927482 5.27164786 184 178 162
-0.18504065 -0.38497943 4.91133885 67 80 87
0.21346809 -0.49819768 5.06260271 54 66 76
0.32205729 0.05629313 5.28331785 178 168 156
1.57660419 1.88527676 5.48333900 133 159 159
0.07203562 1.51629387 5.23785215 77 82 80
0.24863906 -0.48323969 5.08348676 63 78 91
0.21346809 -0.49819768 5.06260271 54 66 76
0.51476383 0.17342788 6.23447873 78 92 104
-0.54018975 -0.35883889 4.91751698 114 129 134
0.35553071 0.21305185 5.36895285 80 86 90
-0.26204800 -0.36232229 4.90798699 80 97 107
-0.26204800 -0.36232229 4.90798699 80 97 107
-0.12036794 0.16257952 5.13001056 151 142 125
-0.91779512 0.04884579 5.21641125 93 114 129
0.65792224 1.22968701 5.42617537 142 109 90
-0.23975835 -0.54227077 5.17758565 167 120 64
1.49023720 2.08511028 5.26869651 205 238 243
1.48022724 2.09689456 5.26411269 209 244 253
1.54489616 2.04411259 5.31173341 150 187 193
0.02539565 1.82076365 4.92173947 151 154 145
0.08735224 -0.15736761 5.12622263 39 51 63
0.61286627 0.15548749 5.86964822 130 130 125
1.51673833 2.07060707 5.28586975 148 182 187
1.64243998 1.95361883 5.41187958 157 194 199
1.49102307 2.09364108 5.26326890 143 175 183
1.51218729 2.08766419 5.27401226 207 241 249
0.43107115 1.23418212 5.44110581 73 92 99
-0.12993762 -0.35313976 4.93136259 60 73 81
-0.21549971 -0.51404844 5.15385228 217 168 108
1.51218729 2.08766419 5.27401226 207 241 249
0.40642510 0.06542854 5.37714497 61 73 85
0.59485841 1.36161618 5.28922852 95 78 62
0.67434640 1.35119601 5.37581971 196 196 184
0.23669098 1.35582546 5.30406429 188 173 163
-0.21549971 -0.51404844 5.15385228 217 168 108
1.25823724 1.33913439 5.22010460 136 124 112
1.50178244 2.08720971 5.27630875 146 179 186
-0.51539451 0.68153196 5.31136464 85 107 121
-0.91490619 -0.06051167 5.19979137 98 121 136
-0.15093203 0.23003102 5.14797291 66 79 88
0.32915918 0.22166653 5.34777306 60 69 74
-0.28376007 0.40736168 5.17886242 201 198 181
-0.48647673 -0.04510424 5.03992808 82 102 115
-0.48647673 -0.04510424 5.03992808 82 102 115
0.27404247 0.56896941 5.38569522 170 157 140
0.04505671 0.54994104 5.30346411 25 26 25
0.03391661 -0.53359138 5.00985728 215 169 114
-0.00780258 0.36383114 5.21903342 199 186 167
0.05711255 -0.44440823 4.96399996 46 54 61
-0.26438486 -0.23732649 4.96953544 59 67 74
-0.16324592 -0.36239646 4.91211681 61 74 83
-0.25268649 0.08307359 5.08534834 78 87 89
0.04505671 0.54994104 5.30346411 25 26 25
1.25208462 1.23416448 5.31399565 225 220 200
-0.33495718 0.68669318 5.27634468 92 109 122
-0.48434099 0.56727505 5.23746655 100 118 130
-0.15399929 0.52036926 5.21739565 166 160 146
-0.78620186 -0.06791389 5.10829881 186 186 176
-0.42027444 0.56105194 5.22811679 102 119 128
-0.63441356 -0.03722755 5.06233021 80 107 124
0.17109663 0.73373596 5.38571282 167 155 139
-0.11482752 0.04629992 5.11314589 108 120 134
-0.00006693 -0.27706339 5.03245931 138 126 116
-0.55261676 0.24144815 5.12421075 196 197 183
-0.87414123 0.07532885 5.20505332 114 137 147
0.17870778 0.14301799 5.24267609 133 143 152
-0.48656555 0.40906059 5.18213627 92 106 115
0.31602248 -0.55750965 5.14494906 194 192 180
0.13395878 0.60106236 5.34561924 178 157 134
0.15758084 -0.49374488 5.02896847 229 222 206
0.23490008 -0.34867881 5.13134950 112 95 81
-0.60285441 0.26213498 5.15177380 107 125 134
-0.57753559 0.11966367 5.09035296 186 190 176
0.28597203 0.84883144 5.46747880 88 99 105
-0.33541888 0.55612926 5.22587969 90 106 116
0.44681596 0.17228476 5.46593516 174 171 168
-0.24225086 1.57035298 8.11844124 166 164 151
-0.96947013 -0.39651541 5.08492654 195 193 179
0.30203499 0.70862138 5.43579860 77 82 86
0.29348524 -0.05536823 5.26030872 138 127 115
-0.63131896 -0.35859347 4.93266851 126 143 148
0.39750211 0.34612756 5.43763579 189 188 182
-0.09860556 0.05617542 5.11309009 170 163 149
-0.29769834 -0.37829447 4.89236640 203 204 194
0.42932171 0.01725982 5.40758026 155 153 146
0.12479594 0.56130481 5.34428415 16 27 32
0.04870769 0.55455543 5.30453280 20 22 22
-0.22384511 0.54536399 5.22143791 82 95 102
-0.16552503 -0.38902734 4.91044211 56 67 72
0.13025268 -0.32240069 5.08383729 55 48 46
-0.53122892 -0.36490550 4.90874016 181 187 179
0.34496776 0.32738331 5.39257821 143 133 121
0.51249288 0.25221373 5.55325077 176 180 183
0.43917305 -0.12455180 5.37993742 141 146 142
0.43670810 0.69691508 5.57442996 13 21 24
0.16434446 0.29376071 5.27745699 71 76 78
0.35299614 0.35532332 5.39883061 162 154 143
-0.98171780 -0.38805207 5.10102261 110 128 137
0.33376196 0.80307232 5.46760125 90 99 106
-0.77297888 -0.23632111 5.04409862 109 135 150
-0.55803995 0.10740615 5.08580595 105 128 139
-0.65814932 -0.36255043 4.93916892 200 204 194
0.56829542 1.12211179 5.67132205 154 114 89
0.25601860 -0.21372228 5.20218333 186 181 171
-0.55831798 -0.35882335 4.91331997 121 137 143
0.45156538 -0.30137173 5.37227152 113 145 166
-0.86090072 0.23907052 5.23763302 104 122 134
0.45290508 0.71901625 5.54390481 108 122 133
0.43670810 0.69691508 5.57442996 13 21 24
-1.02119958 0.19024348 5.40078795 113 128 134
0.44562282 0.31064076 5.48127787 173 170 162
0.04771434 1.57146128 5.14499359 212 219 211
-0.05759437 -0.40213513 4.93266928 42 55 64
0.34774193 1.60387973 5.20162165 214 216 203
0.05159056 1.40259222 5.50905519 131 99 78
-0.45006183 0.40810463 5.17358285 89 103 112
1.31747140 1.86412287 5.60567412 159 179 186
0.16510704 -0.45934008 5.03610180 49 59 69
0.32756281 -0.07743107 5.28603888 62 65 66
0.54390554 0.59341708 5.65949125 117 146 170
0.09010409 -0.45390363 4.99406422 48 57 65
0.36761305 -0.09694413 5.31683773 80 83 81
-0.16552503 -0.38902734 4.91044211 56 67 72
0.22869783 -0.50570323 5.07470465 92 106 112
0.02074636 -0.61430045 5.28068798 195 149 88
0.04391153 0.55730323 5.32568761 20 22 22
-0.00091029 -0.38925965 4.96227394 43 52 60
0.61294977 1.35485660 5.47383754 88 72 57
0.08690532 -0.15663375 5.13546187 27 42 55
0.46763565 -0.16368902 5.41818496 74 96 108
1.36109811 1.20826270 5.38845620 169 162 146
0.64684018 1.42354977 5.39253288 117 114 105
0.38821530 0.33403263 5.43133413 158 151 140
-1.00287240 -0.28165712 5.20893285 105 125 136
1.36109811 1.20826270 5.38845620 169 162 146
1.55749070 2.03367612 5.35146027 210 243 250
1.56992048 2.02566876 5.32543948 202 239 247
0.53849796 -0.53380563 5.54794246 179 192 198
-0.52415255 0.12697426 5.07819847 185 187 174
0.01240605 1.09182894 5.42592596 100 114 123
-0.44248253 0.42077993 5.18465539 168 166 155
0.19095135 -0.01409951 5.21452407 148 138 126
-0.57375243 0.39718159 5.19800266 133 152 165
0.34445804 0.97670001 5.52986341 175 165 150
0.25086318 -0.04060976 5.23842286 133 124 112
0.05153823 0.56578379 5.32175711 17 21 25
-0.56969360 -0.21464745 4.95048736 50 72 86
-0.29432518 0.97596094 5.37372970 112 124 128
-0.04247325 1.09129602 5.41670790 192 185 169
0.15520418 0.44516900 5.30844219 173 162 144
-0.12629071 -0.10263732 5.04851496 45 55 63
-0.39084000 0.24946143 5.11992105 174 174 163
0.21853030 0.59003646 5.37416340 168 161 146
-0.43187512 -0.42703850 5.60838347 200 203 191
-0.50042580 -0.20650002 4.94617478 80 92 97
-0.28740968 -0.29798070 4.90271750 64 78 87
0.20493691 0.59144172 5.33178388 191 184 168
-0.04314610 -0.12473873 5.07670746 47 54 60
0.34624820 0.34561504 5.39918488 200 192 179
0.22284925 -0.19226015 5.17434992 53 59 66
0.40619542 0.66474493 5.50773816 99 106 112
0.44899029 0.47119562 5.52568805 175 179 179
0.26152565 1.32125276 5.56191768 117 85 64
0.16138332 0.62859687 5.34870711 183 168 145
-0.00153991 -0.27807652 5.02221918 159 145 133
-0.21660786 -0.06652314 5.01951887 75 88 97
0.36512054 0.22475820 5.39301351 168 160 147
0.45979048 0.67345175 5.55572388 116 132 145
0.39031420 0.79103518 5.51588083 104 117 126
-0.75459705 -0.35919417 4.94088657 207 209 198
0.15721815 -0.17413526 5.14232827 59 66 73
-0.65157352 -0.21085761 4.97832876 144 168 183
0.32461425 1.11443654 5.56592641 77 82 85
-0.03251261 -0.48698716 4.92637382 248 241 225
-0.22954754 -0.23652971 4.95980261 73 75 76
0.12812234 -0.17525531 5.13327849 190 182 173
0.63681223 1.61096592 4.85417232 175 160 137
0.28889833 0.76414996 5.45384680 15 23 27
-0.52935789 -0.35945487 4.88502978 203 209 200
-0.11846330 0.27599516 5.16472915 57 71 82
-0.01542835 -0.42132931 4.93052502 54 59 67
-0.15980777 0.23409718 5.13982814 50 65 78
-0.26722403 -0.27600242 4.92241875 55 68 77
0.01250074 1.31278335 5.54112835 156 140 124
-0.07651774 -0.44417481 4.82392874 252 249 235
0.49197732 0.90221666 5.63567809 99 109 116
-0.16131648 0.31726540 5.16595285 49 65 80
0.43728728 1.66757702 4.82925019 207 195 173
-0.15980777 0.23409718 5.13982814 50 65 78
-0.11893284 0.55071983 5.24632110 52 62 71
0.46879520 1.69089522 4.84826815 148 139 124
-0.10256703 0.24648239 5.15925195 57 74 85
0.38610494 -0.10971292 5.31244779 134 144 153
-0.15673045 0.36902831 5.18099742 43 57 70
0.08740025 -0.15734172 5.12163873 46 55 62
-0.01542835 -0.42132931 4.93052502 54 59 67
-0.31500856 -0.01224878 5.02408326 50 69 83
-0.24976926 -0.05523243 5.02234964 51 68 80
0.32975265 0.22983284 5.36300997 66 72 74
0.19831546 0.88562383 5.43429540 76 79 76
0.05277222 -0.13371112 5.11308634 46 54 67
-0.12746091 0.60787869 5.27277899 47 61 73
-0.16618337 0.26755995 5.14911809 42 58 72
0.15280451 1.30069829 5.55770597 154 115 92
-0.21284948 -0.05024810 5.03136499 47 64 73
-0.30709187 -0.26906289 4.91690322 61 75 86
-0.30709187 -0.26906289 4.91690322 61 75 86
1.02840806 1.47463121 5.22079716 196 187 170
-0.25197325 0.26423757 5.12754265 56 72 85
0.11514106 -0.44177704 4.99349919 76 84 94
-0.12409574 0.25810541 5.15683468 183 197 206
-0.37841138 -0.50112391 5.03405175 227 181 119
0.41870913 0.03520883 5.39167403 84 92 97
-0.13686514 -0.29267246 4.94600408 103 110 117
0.31737906 0.46305488 5.47671361 109 119 128
0.44333087 0.32807208 5.47828467 55 71 80
0.48560296 0.50669626 5.53635472 201 206 200
0.50667506 0.55801732 5.60488535 187 198 201
-0.12928935 0.53540365 5.23759112 53 63 71
0.42209802 0.64596812 5.52124240 62 68 73
-0.39086370 0.28083051 5.12206464 44 63 78
-0.00363022 -0.13507551 5.09444399 52 54 56
0.29158587 1.27064422 5.67347492 107 103 94
0.29306091 1.24436794 5.66931049 49 56 59
0.32070518 0.22679663 5.35268935 53 61 68
0.33062250 -0.43002248 5.18612314 53 57 66
0.35194804 -0.51279557 5.16302856 77 87 96
0.44543858 0.24382997 5.46567127 199 194 184
-0.23118112 -0.06098808 5.02411447 61 75 86
-0.07599365 0.18874300 5.14879361 204 196 174
0.31737906 0.46305488 5.47671361 109 119 128
0.01990367 0.03415300 5.13975544 190 182 163
0.43816536 -0.82145235 5.71226383 235 240 235
-0.04488295 -0.20921478 5.02423944 195 182 166
0.43816536 -0.82145235 5.71226383 235 240 235
1.29127423 1.82856208 5.49890662 164 188 198
-0.43088017 0.70033401 5.28222433 189 187 174
-0.20367411 0.24168040 5.13352566 73 86 96
-0.22947750 -0.09021718 5.00143265 184 177 167
-0.22923617 1.12752971 5.38083614 102 120 130
0.11735371 0.14217463 5.22983830 176 164 148
-0.13834679 0.53515505 5.22824952 66 78 85
0.11939097 1.06253466 5.41621397 100 110 114
0.19070363 -0.50414188 5.03202476 206 200 184
-0.25065050 -0.06205457 5.01355939 54 69 84
0.31662374 0.55469594 5.42724231 164 156 141
0.37854327 -0.56843884 5.18423581 179 200 216
0.25053925 1.13906153 5.49990804 83 89 92
-0.62782048 -0.35836002 4.89298027 204 205 191
0.49756571 -0.19607019 5.47750293 157 181 198
-0.08149698 -0.38710834 4.90173438 52 66 77
-0.40157872 0.55151880 5.22366974 110 123 128
-0.10184904 1.22256759 5.41064445 100 113 121
0.52901411 1.58210597 4.85482453 177 160 133
-0.08137669 -0.37359896 4.90860658 49 62 71
0.27878270 0.75279325 5.44217922 18 26 29
0.22378388 -0.19213793 5.17412657 63 65 71
0.05550168 -0.41624261 4.95595723 50 60 69
0.31886631 0.06058138 5.33196551 171 159 145
0.02924664 -0.40180395 4.94966875 43 50 58
1.17815444 1.19145743 5.31487862 186 165 139
-0.19375116 -0.24304970 4.95679797 54 58 64
0.36685927 -0.09700813 5.32105394 80 83 81
-0.05043869 -0.36020614 4.92614941 49 58 67
0.16191998 -0.14506424 5.15244721 36 46 58
-0.29753919 -0.37005879 4.86668150 82 96 103
0.18507883 -0.44829107 5.02971642 42 53 59
0.09117468 -0.31655471 5.04063494 45 48 53
-0.03490628 -0.11097572 5.08361985 32 45 58
0.06480103 -0.39851455 4.96713693 43 50 56
-0.44650946 0.40666001 5.16840421 89 103 112
0.19233032 -0.45878243 5.03174570 39 48 56
0.19912954 -0.49805150 5.03362689 213 216 210
0.28973371 1.32667425 5.53222583 131 109 95
0.07219508 -0.42242537 4.96339170 50 59 69
-0.15974674 -0.37241634 4.88549222 54 70 84
0.17661509 -0.45191696 5.02476112 57 67 77
0.02173733 -0.43570915 4.93458295 196 190 175
-0.38199661 0.25723878 5.11509093 104 120 125
-0.55372784 -0.11976257 5.00754370 198 194 182
-0.11620528 -0.32848303 4.91647043 48 56 67
0.66214987 1.23543504 5.43138438 141 108 89
0.14539693 -0.44060796 5.00588749 50 60 70
-0.55372784 -0.11976257 5.00754370 198 194 182
0.23086175 -0.50374777 5.05601027 92 106 112
0.51201259 0.35669280 5.62542015 18 23 26
0.47609182 0.37353134 5.56649841 131 156 175
0.13526758 -0.03071395 5.17911384 35 43 53
0.55156812 0.34703037 5.74489761 179 192 200
-0.31291345 0.18882120 5.09065804 203 198 179
0.27855200 1.30539440 5.52528679 135 107 91
0.34742579 0.31309764 5.41613820 195 185 173
0.42453156 1.08173032 5.64971444 147 133 122
0.17661509 -0.45191696 5.02476112 57 67 77
0.54725332 0.27099690 5.70062086 127 155 176
1.08878095 1.77760608 5.37427125 56 57 52
-0.15663202 0.09285092 5.08847748 191 183 168
-0.15663202 0.09285092 5.08847748 191 183 168
0.59703923 0.68292085 5.81384373 191 197 197
1.36400725 1.30315938 5.37099754 206 203 194
-0.65666786 0.38416554 5.21797213 95 117 130
-0.05869349 0.18695131 5.16403133 181 176 157
0.18064796 0.65759861 5.37503566 179 166 144
0.11237996 -0.31837168 5.06232782 43 47 52
-0.50826342 0.10035198 5.06817835 56 82 97
0.59405519 0.95439292 5.76927407 165 170 164
-0.88104910 -0.21818058 5.14588564 214 215 201
-0.63574441 -0.03677500 5.07776868 92 118 133
2.29799139 -1.77531292 10.31208417 63 60 57
-0.64254177 -0.36202296 4.95578147 189 194 180
0.10297508 -0.46569228 4.99636892 198 196 187
-0.26129394 -0.37569473 4.90177899 82 95 100
-0.67303037 -0.89613259 6.16228878 241 233 214
-0.55690949 0.23597722 5.14291339 166 167 153
0.31872511 0.76032671 5.44125294 49 57 62
0.31872511 0.76032671 5.44125294 49 57 62
0.45444135 -0.00033391 5.42966163 151 152 150
-0.24048709 -0.54511504 5.21077816 167 120 64
-0.39461785 0.27554325 5.14011595 79 98 115
-0.27654381 0.06193697 5.06724672 130 149 163
0.44774826 -0.60643896 5.27864442 97 120 142
-0.59006620 0.27469237 5.17477437 112 133 148
-1.11479672 -0.79886493 5.96224076 129 120 111
-0.32045291 0.39340750 5.19041511 86 105 119
-0.41853741 0.12245052 5.08783378 197 195 182
-0.26691783 -0.38694111 4.89477004 194 194 170
0.20084942 -0.02531319 5.20708996 132 127 116
-0.93574669 -0.39493454 5.11849949 193 191 176
0.17447622 -0.04470658 5.18667738 69 79 86
0.06161430 -0.45353240 4.96892321 192 189 171
0.22799365 -0.50556392 5.06722937 78 91 97
-0.94083972 -0.15274325 5.24165193 192 193 179
-0.60784511 -0.36160246 4.94438757 220 226 211
-0.01376373 -0.42179995 4.94303042 46 58 62
-0.05632247 0.64189151 5.29764638 89 104 112
0.09843916 0.00627317 5.17164022 181 176 164
-0.24793166 -0.51089194 5.19367907 195 150 95
0.13988935 -0.64862658 5.40251680 187 142 83
-0.24793166 -0.51089194 5.19367907 195 150 95
0.44737837 0.24932808 5.47910568 138 135 128
0.42155659 -0.11817859 5.37171392 164 169 165
0.43702078 0.35382683 5.46776732 93 109 122
0.92637010 1.74221397 5.25340371 63 60 55
-0.24793166 -0.51089194 5.19367907 195 150 95
-0.07547989 -0.51421789 5.20943462 158 109 50
0.24887497 0.31996724 5.08625358 147 136 116
-0.29404042 -0.47531844 5.17962577 152 102 43
0.15003540 -0.24080540 4.97484724 125 115 100
0.20178426 -0.18011958 5.16815345 85 96 102
-0.07016034 -0.40971077 4.91484932 73 85 90
-0.12210530 -0.38710632 4.90945266 87 100 108
-0.58977883 -0.05658613 5.06094794 164 166 152
0.05064294 0.02050322 5.14492248 163 157 143
-0.27722578 -0.07957180 5.02787810 185 184 171
-0.27097611 -0.06976898 5.03027516 46 61 71
0.04716858 -0.11197701 5.11755044 51 67 80
0.04716858 -0.11197701 5.11755044 51 67 80
-0.06901035 -0.12322061 5.07873342 127 123 116
-0.26080667 -0.06415925 5.03631736 45 62 72
0.22330470 -0.19261274 5.16673274 53 59 66
-0.55309951 -0.20193637 4.99205203 173 180 173
-0.12398826 -0.36668465 4.91357137 62 75 84
-0.25901032 -0.34755525 4.89966316 66 83 93
-0.29227757 -0.35161131 4.89668414 71 88 99
-0.14439934 -0.36330306 4.91145876 62 75 84
-0.42936780 -0.32799513 4.91214892 70 89 103
-0.29227757 -0.35161131 4.89668414 71 88 99
-0.14558922 0.08730765 5.10010413 125 116 101
-0.18091130 -0.34335927 4.91212377 58 72 81
-0.43113895 -0.34210339 4.90737064 66 84 94
-0.09762076 0.20023656 5.15394774 176 169 150
0.12336584 -0.16640226 5.12993859 52 60 70
-0.35403381 -0.36093981 4.89598597 73 95 107
-0.06940859 -0.12368969 5.07688712 141 130 121
-0.10872917 -0.00294564 5.09196318 52 66 75
-0.10872917 -0.00294564 5.09196318 52 66 75
-0.16592748 -0.02988753 5.07005696 68 82 91
-0.29770850 -0.35928485 4.89394695 211 228 230
0.30815925 -0.13971641 5.24842455 56 65 74
-0.82358596 -0.05270317 5.15462110 111 134 150
0.08675261 0.14734569 5.19734370 152 140 124
0.10468737 0.16571228 5.20936275 75 84 94
-0.16943910 -0.39734454 4.90069454 179 170 147
0.15417859 -0.18784939 5.14398576 191 179 165
0.10047834 0.00656012 5.16703963 160 152 139
-0.23963821 -0.35029067 4.90396477 66 83 98
-0.12232121 -0.36682972 4.91867598 47 59 69
0.07539428 0.30620799 5.22243588 47 60 66
-0.51394234 0.40460419 5.21231089 99 118 129
-0.21538763 0.05938661 5.08198974 45 61 74
-0.54263446 0.40272687 5.21110892 104 123 134
-0.22062296 -0.06966271 5.03938666 53 69 78
-0.39618483 0.26675921 5.12943675 88 106 120
-0.54883084 1.27272928 5.60479998 175 173 161
-0.80533114 -0.53254128 5.38839156 175 132 77
-0.09701700 -0.53131318 5.19484039 165 116 57
-0.16126772 -0.09086798 5.04567764 49 59 65
-0.35627035 0.05815346 4.57521153 112 132 141
-0.40474720 0.08591043 4.60070871 160 186 201
-0.33871269 -0.30287404 4.90802691 50 69 83
-0.53310189 0.12637285 5.10012075 186 189 176
-0.28357651 -1.00592707 6.23251391 127 133 129
-0.05095397 0.34965908 5.18121261 171 164 147
0.09462463 0.31861133 5.22150998 164 152 136
-0.47566868 0.11875546 5.07864183 192 193 180
-0.08330571 0.36293881 5.17839888 176 168 149
0.01826699 0.33447283 5.19779768 173 166 148
-0.63519355 0.10054809 5.13420174 100 121 134
-0.26116223 0.10157472 5.06544269 162 157 138
0.13741676 0.28296010 5.23061105 69 78 83
0.23869031 -0.52330883 5.07945059 218 215 200
-0.60407567 0.11341215 5.12499938 173 178 170
-0.56278393 -0.04272232 5.05894789 94 115 125
-0.02267165 0.03734408 5.12240620 158 152 135
-0.35745608 1.34691632 5.51053439 73 79 77
-0.92042561 -0.37183255 5.12068933 99 118 127
0.18461298 -0.33344381 5.09903824 128 118 106
-0.28498656 1.36338308 5.49765637 71 77 75
-0.06195223 0.20756998 5.14914929 79 90 95
0.17843611 0.13257670 5.22916115 65 68 66
0.27667704 0.07987334 5.27864647 156 144 130
-0.23103436 0.52193018 5.20099087 173 167 151
-0.73434564 -0.95145971 6.16035251 130 131 129
0.03140636 0.54190601 5.28553952 184 201 197
-0.04893043 0.80034283 5.29740835 87 100 108
-0.41318746 0.25468714 5.13320652 175 177 167
0.25945314 0.22594726 5.28014400 60 69 73
-0.61164779 0.10712894 5.12920155 106 124 133
-0.25561938 -0.37782531 4.91034966 183 190 180
-0.19652568 -0.64817668 5.32665062 156 116 57
0.00460889 0.17084245 5.16154368 167 160 146
-0.51092995 -0.48204158 5.19166832 209 164 107
0.39819660 -0.58992021 5.22014925 180 189 188
-0.73771981 -0.78154073 6.10062046 166 131 93
-0.22081365 -0.46515823 5.17024138 193 150 95
0.05081511 1.51166950 5.01656038 206 212 200
-0.10972790 -0.56313790 5.24202201 147 99 41
-0.19794290 -0.55280369 5.22071299 184 139 82
-0.22870782 -0.58164612 5.24836062 156 111 54
-0.27239499 -0.48190432 5.18219147 191 146 89
-0.19088202 -0.54427557 5.23535966 138 90 32
0.05086097 -0.87704140 6.00840616 178 157 128
-0.13342180 -0.54357768 5.22944414 135 89 30
-0.19652568 -0.64817668 5.32665062 156 116 57
0.22013863 -0.46874890 5.06663209 57 70 79
0.15984943 -0.56338161 5.31667635 171 129 71
-0.20467888 -0.47576019 5.17521631 185 140 84
-0.11482011 -0.38684594 4.92359994 49 62 70
-0.30207302 -0.46772113 5.17705119 142 92 36
-0.05167410 -0.46031055 5.18479008 138 93 36
-0.20467888 -0.47576019 5.17521631 185 140 84
-0.26006245 -0.45279102 5.15069526 139 92 38
0.07418792 -0.52697133 5.24868354 152 106 48
-0.20467888 -0.47576019 5.17521631 185 140 84
-0.11541625 -0.50649510 5.20099828 190 145 88
0.66761056 1.40186260 5.26495685 187 188 172
-0.50218323 -0.48591336 5.18943873 173 128 69
-0.06595341 -0.49705122 5.19634384 193 151 96
0.15984943 -0.56338161 5.31667635 171 129 71
-0.43572896 -0.52149468 5.21572123 162 117 57
-0.02192144 -0.50968932 5.21859148 195 152 94
-1.01611503 -0.66892361 5.80856078 184 156 129
-0.21744619 -0.51496311 5.19162556 187 142 85
-0.02396751 -0.51805363 5.22809797 157 115 56
0.15149361 -0.54614431 5.29549412 171 129 71
-0.25885176 -0.51243350 5.19982277 146 100 44
-0.33328496 -0.46773057 5.16746200 186 139 85
-0.25741771 -0.49585591 5.19078424 187 142 87
0.15149361 -0.54614431 5.29549412 171 129 71
0.56457761 1.36195964 5.31836572 85 91 88
-0.26428534 -0.45462476 5.16807716 185 138 82
-0.22445524 -0.52579473 5.19891674 197 152 95
-0.26753576 -0.53405207 5.22405350 148 103 46
-0.31112191 -0.48126828 5.16727492 193 148 92
-0.35287937 -0.59687248 5.27310030 206 161 102
-0.01730716 -0.48822132 5.20116013 150 104 45
-0.26753576 -0.53405207 5.22405350 148 103 46
0.02662402 -0.51506843 5.23826038 201 156 99
-0.05344798 -0.45427620 5.16855993 197 155 101
-0.36876440 -0.46146797 5.16851418 152 104 48
0.01540785 -0.62168778 5.31940123 214 174 116
-0.30207302 -0.46772113 5.17705119 142 92 36
0.62214517 1.42942087 5.25421536 86 88 83
-0.47142043 -0.48105189 5.18464959 204 159 100
-0.33328496 -0.46773057 5.16746200 186 139 85
-0.25885176 -0.51243350 5.19982277 146 100 44
-0.36969351 -1.26835767 10.59728062 114 102 90
-0.36860875 -0.47197143 5.16051668 200 153 97
0.00076690 -0.51381012 5.22141425 209 164 105
-0.03609877 -0.46664460 5.18851105 213 168 111
-0.30957758 -0.53738871 5.21103823 192 147 90
-0.02832514 -0.49352678 5.19711960 189 144 87
0.07486818 0.30770656 5.23135121 47 57 64
-0.19853771 0.23644931 5.13730531 40 53 64
-0.06531101 -0.41639850 4.91749195 173 167 147
2.27549520 -1.77762455 10.27026035 63 60 57
0.01099007 -0.43527974 4.88313665 186 180 164
0.00637255 1.55966433 5.01684081 139 144 140
0.61224436 1.40541928 5.46326098 95 78 62
0.05963904 0.33380320 5.23992448 187 177 158
-0.45775912 -0.06384224 5.02421567 206 205 187
0.10239007 0.00418147 5.17242763 151 143 127
-0.67701561 0.09895723 5.14934771 78 103 117
0.46239691 0.64850337 5.52135769 110 128 143
0.44079969 1.22156125 5.42321248 80 100 107
-0.41460503 0.68279532 5.28601261 106 124 136
-0.44516232 0.42107154 5.18502995 173 173 162
-0.15635754 -0.25737370 4.98239985 79 88 94
-0.22459641 -0.42333968 5.43407567 242 236 217
-0.28919128 -0.46171074 5.14920196 208 159 101
-0.01208174 1.58491692 5.04347854 129 135 131
0.18920538 -0.49498436 5.06910589 163 159 140
-0.55545660 -0.04203227 5.03664400 98 120 132
-0.33447334 0.69129558 5.32703111 96 113 123
0.05804858 0.33283475 5.22680020 172 163 146
0.22980415 0.11077277 5.27277913 157 149 135
0.11244932 -0.16926546 5.14855294 148 147 136
-0.00134665 -0.42657581 4.95986087 185 181 164
0.61118092 1.11427491 6.01255707 99 83 72
0.75515873 1.29813726 5.77886154 149 114 95
0.50914736 0.50640839 5.66881626 187 193 189
-0.30106341 1.13834226 5.44577421 96 113 123
-0.82103378 -0.05168772 5.14769097 74 99 115
0.13562478 0.13688259 5.21655921 207 195 179
-0.72624314 -0.06434676 5.09786521 181 183 167
-0.16758274 1.24516428 5.45804246 102 116 125
-0.36020485 0.88847985 5.68209877 192 187 175
-0.55601933 0.83701189 5.41394859 108 124 131
-0.54518850 -0.44879156 6.11403294 186 189 178
-0.16381593 -0.39031857 4.88965725 194 190 169
-0.70162142 0.79479949 5.50427334 196 196 186
-0.02179052 0.33676662 5.21976643 86 99 107
-0.76820850 -0.22533663 5.03662970 86 113 130
-0.21889358 0.83745607 5.34071768 93 110 118
-0.40159680 0.98281736 5.43072382 90 104 112
0.14233817 1.36608596 5.49504758 115 80 56
-0.30601604 0.90994596 5.84178745 171 176 169
-0.27875474 0.92677049 5.95113163 106 118 123
-0.15497011 0.66183995 5.27518555 86 102 112
-0.81247169 -0.37597061 5.00699535 201 200 180
-0.18760604 0.67352790 5.32054854 103 120 130
0.42689628 0.68125668 5.52403236 95 104 111
0.41287913 0.71866376 5.52230607 103 114 122
-0.12591285 -0.50920490 5.17843283 158 107 49
-0.00163402 1.57587059 5.08303378 137 143 139
-0.36687224 0.40821396 5.18819760 189 190 174
-0.41760562 0.11404639 5.07285659 184 184 171
-0.79446898 -0.20535364 5.09084871 200 203 191
-0.52494100 0.12408893 5.11211112 177 174 161
-0.04141400 0.36158992 5.20282822 179 169 144
-0.86859634 0.35552591 5.32323670 87 105 117
-0.01875251 1.10723686 5.41325375 96 107 111
-0.63572713 0.26561312 5.17070077 97 117 128
-0.44996774 0.26772757 5.14605067 114 131 141
0.16251802 0.30258078 5.26165549 168 157 137
-0.10259501 0.36552836 5.19522429 177 169 151
0.06359681 -0.44099438 4.98032465 202 196 181
-0.74070950 -0.36440918 5.02330553 199 202 183
-0.87326405 -0.21398260 5.14489996 185 182 167
-0.10886951 0.05681990 5.11335496 170 163 146
-0.37542835 1.36747392 5.54116544 79 81 76
0.30168174 0.48748832 5.42340150 84 91 93
0.30168174 0.48748832 5.42340150 84 91 93
0.31714147 -0.11267318 5.33841546 75 80 84
-1.24924288 -0.48886319 5.40310864 106 116 118
-0.02609830 1.49388559 5.51067852 46 56 57
0.38272378 0.62738101 5.43303055 162 155 141
0.40657838 -0.38669309 5.27551235 157 160 159
0.74321298 2.59499946 5.45434771 127 128 120
1.04402201 1.34797578 5.02122842 147 136 118
0.94396033 2.39865182 5.31702892 202 239 246
-0.72483446 -0.35404565 5.05720297 100 123 137
-0.20898669 0.60751961 5.31565130 48 65 75
0.02749488 -0.29157727 5.03672347 67 67 65
-0.78916570 0.24811052 5.25778122 94 110 115
-0.40526082 -0.21167765 4.96120075 77 88 96
-0.01384422 1.10687413 5.42841636 81 98 108
-0.67710385 0.53477891 5.33721082 184 186 175
-0.69668405 -0.35534044 4.95590115 203 206 197
-0.47729114 -0.36132922 4.89947149 208 210 198
-0.02245924 0.03695181 5.12558440 165 157 139
-0.46900672 0.25852037 5.15161314 216 221 211
-0.31944126 1.28855383 5.87030492 91 106 112
-0.46900672 0.25852037 5.15161314 216 221 211
-0.53635656 -0.32360758 4.91773864 56 81 95
0.05918840 0.33192151 5.22720542 190 179 162
-0.64519880 0.81029618 5.98430916 182 186 182
0.06373894 -0.44922196 4.97786022 200 194 178
-0.02724140 0.33448948 5.20108250 102 116 123
-0.02946807 -0.42343983 4.92789839 212 205 183
-0.82875013 0.37253732 5.35952895 91 109 119
-0.19437580 0.51877370 5.21494017 170 162 143
0.06751072 0.01395926 5.15370495 160 151 134
-0.08346514 0.36141533 5.19149953 180 169 149
0.14172295 0.55410198 5.32264927 85 98 104
-1.01815633 -0.37435923 5.24356640 84 102 113
-0.09748466 0.05294972 5.10729078 199 190 172
0.16030080 0.58014980 5.32521235 90 98 99
0.05636498 1.07839654 5.40139731 99 110 116
-0.69318173 -0.34309352 5.01281176 111 131 146
-0.31180335 1.00028686 5.40433698 184 179 160
-0.55646927 1.24395237 5.73239135 94 112 122
-0.44175918 1.14824438 5.58182682 86 104 114
-0.44645520 0.97608608 5.48379972 103 122 129
-0.04034754 0.81103754 5.35400480 89 102 110
-0.20840981 1.13791914 5.42538208 98 111 118
-0.68210718 0.08825152 5.22167627 66 89 103
-1.11754049 -0.17799040 5.72054951 91 109 116
-1.05817772 0.12230520 5.75261762 173 173 160
-1.12173465 -0.19441762 5.71970685 178 180 163
0.01199455 1.08445110 5.43458472 192 181 161
-0.90638854 -0.38928709 5.17901041 191 188 171
0.53543989 1.98274269 5.10454529 132 128 119
-0.82442098 -0.86564470 6.34279653 130 112 100
-1.05039138 0.25402927 5.86034210 100 114 123
-1.08583918 -0.29838363 5.56457399 179 182 170
0.12411475 -0.30501247 5.04288661 149 137 124
-0.07903773 0.34474195 5.18810836 71 79 85
0.08580445 0.31842812 5.21706686 178 165 148
0.16057757 -0.02479045 5.14876368 76 80 85
-0.92555667 0.05910812 5.41586143 105 127 140
0.08014782 -0.28815234 5.03217556 153 137 122
-0.27212283 1.25248868 5.52363515 91 105 114
0.44717290 1.49375672 4.59481092 215 204 176
11.16176144 -7.21056823 19.50343828 90 112 136
0.45261174 0.64149747 5.53058104 24 37 39
-0.79257933 0.38127767 5.43032479 87 103 111
-0.14916426 0.37172889 5.17335038 217 205 184
-0.58827962 1.13023182 5.66720959 84 102 112
0.09176677 2.01395325 5.02463986 47 54 54
0.33531009 0.24219217 5.34903357 175 163 151
-0.08758754 1.79674348 4.91103131 77 89 89
-0.25392862 1.41067866 5.66280001 66 70 69
-0.89267775 -0.37843387 5.15240806 201 206 195
-0.75009463 -0.36100616 5.02845141 212 212 200
-0.01918091 0.59584187 5.28834581 19 24 28
0.31029722 0.79219395 5.45197295 105 113 116
-1.16341436 -0.47580858 5.59869988 100 111 114
0.18395274 1.35645979 5.47921527 132 94 67
-1.13565122 -0.34504383 5.66216351 90 107 115
-0.04325493 1.36885765 5.60463594 147 137 121
-0.82800876 0.24205370 5.38730666 78 95 106
0.53530137 1.58900528 4.64189628 107 102 87
-0.00564592 1.88212569 4.94903227 76 88 88
-0.19352830 1.98705235 5.35631758 164 179 176
0.33284135 0.83623330 5.48363516 104 111 115
0.31520534 0.10496361 5.29989825 79 86 92
-0.18620172 -0.46751562 4.99562391 198 146 86
0.27324736 0.77789322 5.42520869 100 108 111
-0.12209271 -0.32316142 4.90634041 54 61 69
0.49850714 0.19031260 5.51774457 186 190 189
0.04912295 1.90540024 4.92885265 160 162 148
0.24342920 1.54089900 5.08038820 216 219 202
-0.12583881 -0.10574185 5.10252173 104 101 93
11.58706028 -6.89504226 20.51517067 55 67 79
-0.99927704 0.20556811 5.62280420 66 85 99
9.41032249 -4.27683039 18.02450269 79 99 124
0.35500894 0.05657552 5.32390029 172 160 146
-0.15401119 0.08448817 5.08283236 137 126 106
0.49563519 1.20749345 5.79802818 45 35 29
0.26031130 0.20094039 5.35627136 101 108 114
0.28369608 -0.17615319 5.18964488 73 80 88
0.24342920 1.54089900 5.08038820 216 219 202
0.05787126 -0.15215002 5.08386971 176 168 158
0.26031130 0.20094039 5.35627136 101 108 114
-0.04084556 1.70482700 4.97015913 139 148 143
0.36168718 0.75560419 5.49387974 111 120 127
