ply
format ascii 1.0
element vertex 34
property float x
property float y
property float z
property uchar red
property uchar green
property uchar blue
end_header
-0.24424180 -0.02664691 5.51309976 38 51 60
-0.50355870 -0.01318512 6.06875115 130 149 163
0.14290563 0.05598710 4.09201958 59 68 77
-0.28400975 0.28634292 5.09105873 67 81 91
-0.48130194 0.03044141 5.93174556 124 120 103
-0.47803880 -0.20214618 6.39906909 184 177 167
0.04159491 0.08864479 4.51414264 133 143 152
-0.07857437 0.42517489 4.40019797 14 20 19
-0.49899975 -0.16813754 6.37162689 54 69 84
-0.47991802 -0.20395519 6.41734924 154 146 136
-0.03590334 0.09313195 4.75748169 154 144 129
-0.91718875 -0.41396099 7.50819300 189 185 174
0.16476891 0.12933470 3.87888511 43 50 58
0.09815732 -0.04958456 4.42972558 162 148 135
0.22064196 -0.00363456 3.54034731 155 153 146
-0.26100580 -0.00482233 5.53137440 170 163 149
0.09020128 0.47923383 3.87761886 177 165 148
0.22082750 -0.00387493 3.54355846 184 181 173
0.21442479 -0.36280425 3.01872779 97 120 142
-0.10472310 -0.02467555 5.12467343 161 153 140
0.03477975 -0.57485238 5.40618280 229 222 206
-0.03212801 -0.03675738 4.85483278 160 152 139
0.21004190 -0.30803684 3.40806486 65 82 98
-0.33771909 0.01041148 5.71456150 198 192 178
0.23041160 -0.09060501 3.42177098 137 139 136
-0.16110282 0.45190119 4.47346392 74 87 96
0.15516729 0.45686285 3.72148688 84 93 97
-0.08246872 0.41524326 4.40069950 20 22 22
0.15850566 0.47911683 3.60742935 100 110 119
-0.08053564 0.39945399 4.36441414 255 242 226
0.24738776 0.53128302 3.01826169 48 41 38
0.05171930 0.85968442 3.65389319 156 116 91
-0.09570606 0.41132285 4.37696734 222 251 252
-1.30607306 -0.70375075 7.99679973 104 126 140
