ply
format ascii 1.0
element vertex 35
property float x
property float y
property float z
property uchar red
property uchar green
property uchar blue
element face 42
property list uchar int vertex_indices
end_header
0.00000000 0.00000000 0.00000000 88 166 255
-0.21017036 -0.14711925 0.42034073 88 166 255
0.21017036 -0.14711925 0.42034073 88 166 255
0.21017036 0.14711925 0.42034073 88 166 255
-0.21017036 0.14711925 0.42034073 88 166 255
0.98415737 0.03456460 0.17389526 255 123 114
0.74823207 -0.10622236 0.58257640 255 123 114
1.16784793 -0.11531065 0.60551683 255 123 114
1.17426717 0.17885652 0.60463891 255 123 114
0.75465131 0.18794481 0.58169849 255 123 114
1.24279905 -1.29424300 0.06966583 126 231 135
1.00756023 -1.42211449 0.48296181 126 231 135
1.42721614 -1.42926760 0.50585465 126 231 135
1.43280542 -1.13527311 0.49525735 126 231 135
1.01314952 -1.12812001 0.47236451 126 231 135
0.50994470 -1.56869039 -0.06598983 210 168 255
0.28699235 -1.69888140 0.35334838 210 168 255
0.70714432 -1.69927672 0.36593783 210 168 255
0.70776906 -1.40526830 0.35432044 210 168 255
0.28761709 -1.40487299 0.34173100 210 168 255
-2.50029972 0.36994156 0.30024778 255 166 87
-2.66997521 0.21171943 0.73461856 255 166 87
-2.25133582 0.21981056 0.69771431 255 166 87
-2.25654008 0.51395250 0.70316721 255 166 87
-2.67517946 0.50586138 0.74007145 255 166 87
-3.64139091 0.32310504 0.60205472 121 192 255
-3.79302872 0.16031985 1.04138255 121 192 255
-3.37616447 0.17353899 0.98907787 121 192 255
-3.38454468 0.46756200 0.99659772 121 192 255
-3.80140892 0.45434285 1.04890241 121 192 255
-4.65888620 0.51994497 0.84470408 88 166 255
-4.79096899 0.35278377 1.28867846 88 166 255
-4.37669009 0.37215941 1.22023939 88 166 255
-4.38886167 0.66599225 1.22974814 88 166 255
-4.80314057 0.64661661 1.29818722 88 166 255
3 0 1 2
3 0 2 3
3 0 3 4
3 0 4 1
3 1 2 3
3 1 3 4
3 5 6 7
3 5 7 8
3 5 8 9
3 5 9 6
3 6 7 8
3 6 8 9
3 10 11 12
3 10 12 13
3 10 13 14
3 10 14 11
3 11 12 13
3 11 13 14
3 15 16 17
3 15 17 18
3 15 18 19
3 15 19 16
3 16 17 18
3 16 18 19
3 20 21 22
3 20 22 23
3 20 23 24
3 20 24 21
3 21 22 23
3 21 23 24
3 25 26 27
3 25 27 28
3 25 28 29
3 25 29 26
3 26 27 28
3 26 28 29
3 30 31 32
3 30 32 33
3 30 33 34
3 30 34 31
3 31 32 33
3 31 33 34
